<svg xmlns="http://www.w3.org/2000/svg" height="118.038" width="90.998"><path d="M-363.976-355.504h533.333V177.83h-533.333v-533.334" fill="#fff"/><path d="M47.958 116.863c1.358-.013 2.776.014 4.191.041h-5.156c.33-.013.625-.038.965-.04zm-11.09 0c.341 0 .636.032.966.041h-5.157c1.415-.027 2.833-.054 4.19-.04zm3.002-.784c-1.802-.013-3.613.073-5.484.081 1.848.298 3.595.37 5.339.383-.068.013-.136.02-.204.034a68.75 68.75 0 0 1 2.704-.04h.377c.884 0 1.782 0 2.703.04-.068-.015-.135-.02-.203-.034 1.744-.013 3.488-.085 5.339-.383-1.87-.013-3.683-.092-5.485-.08-.847 0-1.692.035-2.542.1a36.196 36.196 0 0 0-2.544-.1zm-24.39-2.784a3.232 3.232 0 0 0 .224 1.899c.153.325.353.621.588.88a2.72 2.72 0 0 1-.618-.73c-.317-.582-.388-1.293-.194-2.05zm46.177-.068h.161c-.141.03-.281.045-.422.071.088-.026.174-.048.261-.076zm-38.487 0c.086.028.174.05.26.076-.141-.025-.28-.041-.422-.07.054-.002.108 0 .162 0zm41.611-.459c.052.055.1.114.152.167-.01.014-.02.015-.03.021-.042.014-.09.02-.134.031l.013-.219zm-44.736 0l.013.22c-.044-.014-.092-.02-.136-.032-.009 0-.018-.014-.028-.021.052-.053.099-.112.151-.167zm34.552-.082c-.07.013-.124.02-.185.03-.042-.013-.083-.014-.126-.024.104 0 .207 0 .311-.013zm-1.36-.188c.087.03.172.045.259.068a6.052 6.052 0 0 0-.582-.035c.107-.015.216-.02.323-.032zm12.13-.318l.071.17c-.002.057-.017.124-.024.185a3.04 3.04 0 0 1-.448.378c-.026-.091-.065-.163-.093-.25.101.021.21.026.31.052l.091-.461c.03-.026.063-.047.094-.074zm-45.909 0c.031.026.064.048.095.074l.09.461c.1-.026.209-.03.31-.052-.028.087-.065.16-.093.25a2.945 2.945 0 0 1-.448-.378c-.007-.06-.02-.127-.023-.184l.07-.17zm35.983-.312c.264 0 .508.018.75.034.493.092.983.172.983.172.359.049.707.112 1.06.166-.314.04-.626.082-.945.115l-.932.104c.46-.09.916-.179 1.365-.216-.908-.296-1.797-.178-2.674-.021-.706-.164-1.411-.192-2.115-.147.777-.14 1.675-.215 2.508-.208zm9.635-.372c.042.1.085.195.125.291h-.084a5.107 5.107 0 0 0-.041-.285zm-45.326 0c-.016.095-.03.19-.041.286h-.084l.125-.29zm34.422-.16c-.103.015-.207.022-.31.042-.186 0-.382-.013-.585-.019.299-.013.599-.013.895-.024zm2.048-.168c.198.047.397.1.598.122-.368.001-.445 0-.836.013a13.155 13.155 0 0 0-1.13-.016c.45-.032.906-.07 1.368-.12zm11.544-.237c.47 1.052.149 2.5-.084 3.736.798-1.066 1.226-2.77.084-3.736zm-50.702 0c-1.142.965-.713 2.67.084 3.736-.232-1.236-.554-2.684-.084-3.736zm41.11-1.227a8.19 8.19 0 0 1 1.054.079c.25.03.498.076.746.12-.411 0-.851-.05-1.295-.101-.237-.035-.49-.063-.739-.086.11 0 .12-.013.234-.013zm-31.518 0c.114 0 .124 0 .235.014a14.9 14.9 0 0 0-.74.085c-.444.053-.884.103-1.295.101.248-.044.498-.089.746-.12 0 0 .53-.077 1.054-.078zm28.266-1.018c.688.103 1.38.182 1.38.182.937.088 1.88.133 2.822.157a16.45 16.45 0 0 1-2.65.035s-.718-.05-1.43-.158c-.214-.032-.393-.068-.589-.104.157-.034.31-.075.467-.112zm2.518-.412c-.148.037-.352.068-.409.104-.163.002-.327 0-.49.014.297-.033.597-.067.9-.114zm4.58-.337c.022.023.04.05.06.074.026.156.051.314.087.464a4.594 4.594 0 0 1-.065-.107l-.011-.245h-.068l-.003-.192zm-39.21 0l-.003.191h-.068l-.01.246a3.69 3.69 0 0 1-.066.106c.036-.15.061-.308.087-.464l.06-.076zm39.581-.988c.057.091.12.178.179.267.005.04.012.078.018.115-.062-.128-.137-.253-.197-.382zm-39.95 0c-.062.13-.137.254-.2.382l.02-.113c.058-.09.12-.178.18-.27zm35.9-.067c.607.095 1.217.174 1.826.257-.344.043-.677.093-1.013.143a14.367 14.367 0 0 0-1.027-.1 10.89 10.89 0 0 0-1.252-.226c.485-.014.973-.028 1.465-.074zm1.753-.54l.013.026c-.319.002-.637.002-.956-.002.312.002.627-.001.943-.024zm-35.358 0c.316.024.631.026.943.024-.319.004-.637.004-.955.002l.014-.026zm38.092-.12c.13.217.256.434.386.649l-.071-.068-.315-.581zm-40.825 0c-.105.194-.21.389-.316.581l-.07.068c.13-.215.255-.432.386-.65zm33.015-1.19c.216.024.366.039.601.058-.56-.018-1.153-.015-1.719-.019.378-.004.751-.017 1.118-.039zm2.906-.697c.427.04.856.073 1.29.08l.03.076a9.583 9.583 0 0 1-.686.058c-.152-.003-.315-.009-.472-.014.156-.044.308-.073.466-.125a24.066 24.066 0 0 0-2.117.057c.561-.057.992-.09 1.49-.133zm-2.641-.1c-.181.055-.355.145-.533.216-.151-.04-.3-.072-.456-.107.342-.029.666-.069.989-.109zm3.095-.79h.002c.15.042.315.071.468.11.008.02.018.039.027.058a13.85 13.85 0 0 0-2-.003c-.467.008-.932.041-1.396.105a26.218 26.218 0 0 0-2.487.005c.218-.03.43-.055.664-.097a25.038 25.038 0 0 0 1.87-.115c.95.06 1.909.003 2.852-.062zm-1.292-.667c-.015.001-.047.012-.068.014l-.088.003c.053-.008.102-.01.156-.017zm-29.342 0c.054.006.104.01.156.017l-.088-.003c-.021-.003-.053-.013-.068-.015zm30.084-.092c.024.001.046.009.07.01-.087.017-.175.031-.263.047-.097.003-.195-.005-.292.003.005-.002.01-.002.016-.003-.107-.02-.213-.028-.32-.047.268-.009.536-.02.79-.01zm-30.825 0c.252-.01.52.001.788.01-.107.02-.213.027-.32.047l.016.003c-.097-.008-.195.001-.292-.003-.087-.016-.176-.03-.263-.047.024-.001.046-.009.07-.01zm31.968-.364h.005l.019.038-.024-.038zm-33.117 0h.005l-.023.038.018-.038zm28.846-.027c.496.061 1.042.094 1.042.094.228.006.454-.009.682-.011-.168.064-.28.125-.33.174-.46-.05-.916-.065-1.372-.06h-.003c-.19-.06-.385-.1-.581-.145.188-.019.374-.027.562-.052zm-2.752-.306c.079.01.159.022.231.03l-.361.024c.044-.016.086-.037.13-.054zm-19.065 0c.044.017.085.038.13.054-.12-.01-.242-.016-.362-.024.073-.008.153-.02.232-.03zm24.557-.34c-.001.003-.004.003-.005.006.032.01.059.004.09.01-.63.105-1.255.202-1.88.26 0 0-.33.037-.611.06-.11 0-.218 0-.326-.002.922-.093 1.828-.21 2.732-.333zm-30.046 0c.901.123 1.808.24 2.728.334-.108.001-.216 0-.326.003-.281-.024-.612-.06-.612-.06a28.057 28.057 0 0 1-1.88-.26c.032-.007.059-.001.092-.01-.001-.002-.001-.005-.004-.006zm24.785-.08c-.073.02-.15.035-.224.054-.061-.003-.115-.003-.176-.005.133-.015.265-.034.4-.05zm-20.01-.063c.293.04.587.078.883.112l-.218.008c-.239-.043-.383-.064-.664-.12zm20.807-.039a3.14 3.14 0 0 0-.39.159l-.047.002c.021-.017.044-.029.065-.049-.085.02-.132.023-.185.03.06-.032.123-.06.183-.095.124-.016.252-.027.374-.047zm1.364-.244c.187.039.375.068.563.09-.184.038-.368.08-.552.113zm-23.85 0l-.011.203c-.184-.032-.368-.075-.552-.112.188-.023.376-.052.563-.092zm27.825-.748c.003.005.007.01.008.014l.03.122c-.097.016-.193.036-.29.055.085-.062.173-.122.252-.19zm-31.8 0c.079.07.167.13.253.19-.097-.018-.194-.038-.292-.054.011-.041.022-.081.031-.122.001-.005.005-.009.008-.014zm30.115-.138c-.067.053-.139.1-.206.152l-.18.03c-.048.007-.112.007-.161.013.033-.016.067-.031.099-.05.138-.045.282-.078.42-.132.009-.003.018-.01.028-.013zm-28.43 0c.01.005.019.01.03.014.136.053.28.086.418.132l.099.05c-.05-.007-.113-.007-.161-.014l-.18-.03c-.067-.052-.139-.1-.206-.151zm9.812-.22c.024.002.047.008.071.011-.087.002-.172 0-.257 0 .062-.002.124-.01.186-.012zm-1.749-.063c.327.04.657.052.987.064-.331-.01-.658-.03-.979-.062-.003 0-.005 0-.008-.002zm21.675-.39l.005.013-.037.007.032-.02zm-31.044 0l.03.019-.036-.008a.03.03 0 0 1 .006-.013zm31.252-.14l.018.136h-.048l-.058-.076c.029-.02.058-.038.088-.06zm-31.462 0c.03.022.059.04.09.06l-.06.076c-.016-.001-.032 0-.047 0 .007-.045.012-.09.017-.135zm31.762-.2c.024.158.053.314.085.468-.017.012-.032.03-.05.04l-.075-.14c.008-.012.021-.026.029-.037-.017-.001-.03 0-.047 0-.038-.075-.076-.14-.114-.216.054-.043.118-.07.172-.114zm-32.06 0c.053.044.116.072.172.115l-.115.216c-.017 0-.03-.001-.047 0l.028.036-.076.14c-.017-.01-.03-.027-.049-.039.032-.154.061-.31.087-.467zm32.296-.216c.001.026-.003.054 0 .08a2.586 2.586 0 0 1-.028-.054c.008-.01.017-.014.025-.023zm-32.534 0l.003.003c.008.01.017.015.025.023l-.028.055c.003-.026-.001-.055 0-.08zm32.118-.32c.032.059.058.127.09.187l-.09.039c-.095.037-.2.065-.298.099.1-.109.206-.21.298-.326zm-31.702 0c.092.115.198.216.298.325-.098-.034-.203-.062-.298-.1-.03-.012-.058-.026-.09-.038.032-.06.058-.128.09-.188zm31.798-.105c.008.088.024.173.033.261-.043-.053-.083-.109-.127-.161.028-.036.067-.063.094-.1zm-31.894 0c.028.037.066.064.094.1-.044.052-.083.108-.127.161.01-.088.025-.173.033-.261zm32.287-.596c.016.063.024.13.041.19.035.125.083.245.123.367.035.136.07.271.107.407-.036-.074-.131-.262-.156-.316 0-.092-.034-.176-.104-.208-.002-.001-.002-.004-.003-.005-.01-.021-.087-.167-.092-.18-.01.157.003.31.005.464-.044.033-.089.068-.142.093l-.134-.262c.13-.177.247-.36.355-.55zm-32.68 0c.108.19.225.373.355.55l-.134.262c-.053-.025-.097-.06-.142-.093.002-.155.014-.307.005-.464a7.994 7.994 0 0 1-.092.18c-.001.001 0 .004-.003.005-.069.032-.102.116-.104.208-.025.054-.12.242-.156.316.036-.136.074-.27.107-.407.04-.122.088-.242.123-.366.017-.062.025-.128.041-.19zm32.776-.195c.013.062.02.123.035.185-.019-.05-.032-.1-.05-.151.007-.01.011-.023.015-.034zm-32.872 0l.016.034c-.017.05-.03.101-.05.15.014-.06.02-.122.034-.184zm26.904-.729c-3.363 1.69-7.396 2.314-11.245 2.497 3.92.417 8.008-.174 11.245-2.497zm5.713-.655c.019.138.054.274.075.41.045.278.097.557.155.836l-.038.036c-.089-.283-.157-.574-.116-.872-.078.31-.034.634.034.95-.824.822-1.8 1.435-2.792 1.896-.606.195-1.203.392-1.812.626-.506.19-1.046.441-1.579.596.059.009.12.001.18.008-.501.183-.997.376-1.479.585-.534-.069-1.102-.188-1.114-.156-.016.042.264.163.621.287-.29-.018-.644-.01-1.455.2.18.05.37.092.56.13-1.637.226-3.329.3-4.945.287 1.237.29 2.512.41 3.765.323.979.099 1.954.154 2.935.013.57-.005 1.101-.003 1.599-.013a6.86 6.86 0 0 0-.916.26c.693.004 1.298.02 1.913.03-.125.019-.244.04-.244.067 0 .003.052.008.055.01-.294-.022-.546-.043-.555-.01-.01.03.107.09.281.159a50.92 50.92 0 0 0-1.677.08c.196-.03.393-.056.59-.086-2.32-.32-4.042.084-6.33 0 1.159.382 2.317.43 3.479.353.48.029.954.054 1.428.074a6.82 6.82 0 0 0-.774.263 6.687 6.687 0 0 0-2.718.06 4.41 4.41 0 0 0 2.104.24c-.008.005-.018.008-.027.013l.164-.026.101-.015c.15-.026.279-.044.418-.066-.032.009-.064.012-.096.02.998-.045 1.978-.013 2.953.025l-1.03.18c-1.2-.075-2.4-.104-3.671.13 1.482.196 2.906.373 4.368.221.368.042.737.079 1.116.083-.023.012-.05.019-.072.032.054-.01.165-.019.226-.027.119-.002.246-.029.37-.043.136-.018.301-.035.453-.052-.645.102-1.292.234-1.948.447-.828 0-1.627-.009-2.513.006.254.048.505.069.757.11-.176.011-.355.03-.533.051-.918-.316-1.595.08-2.386.008.519.532 1.208.423 1.82.219.44.042.876.077 1.311.104a8.81 8.81 0 0 0-1.388.341c2.019-.213 3.813.012 5.739-.084-.554.044-1.367.123-1.348.264.002.024.137.036.336.047.197.01.458.017.718.03a37.7 37.7 0 0 1 1.047.071c.693.047 1.393.107 2.101.127-.273-.004-.545.005-.817-.003 0 0-1.54-.036-1.552.06-.004.037.141.088.333.142a37.199 37.199 0 0 0-3.324.005c.256-.027.518-.063.772-.076-.078-.02-.154-.03-.232-.047a3.848 3.848 0 0 0 1.227-.287c-.092-.009-.183-.013-.273-.022-1.036-.115-2.071-.237-3.123.161-1.115.047-2.213.196-3.35.112.983.396 1.987.43 2.99.356-.275.044-.55.084-.828.144 1.132-.024 2.23.014 3.317.044-.88.08-1.761.201-2.648.372 1.139.07 2.038.059 2.907.032-.955.107-1.916.216-2.885.312-.899-.128-1.636-.065-2.602-.01.912.507 1.902.467 2.846.153 1.336.073 2.6-.003 3.857-.115.17.06.337.123.541.164a7.288 7.288 0 0 0 1.206.133c.426.01.849-.001 1.264-.018.762-.024 1.514-.08 2.244-.083-.702.047-1.402.09-2.104.164.104-.022.202-.04.308-.065-2.47.045-4.974-.096-7.407.596-.505 0-.99-.024-1.421-.094.246.127.5.224.754.303-.03.014-.062.017-.093.03.053 0 .103 0 .156-.014 1.016.301 2.08.247 3.13.063.083.033.183.064.286.101a9.63 9.63 0 0 0-2.23.276c-.994-.156-1.963-.165-3.006.073 1.188.285 2.287.376 3.473.146.84.028 1.658-.036 2.482-.26.014 0 .024.013.037.013a14.17 14.17 0 0 0 1.512.312c.264.038.532.048.797.074a.535.535 0 0 0-.161.095c-.088 0-.163 0-.255.017-.05.013-.085.024-.133.033-1.97-.308-3.95.064-5.919.486 3.435.146 3.299-.173 5.31-.238h-.006c.012.036.42-.014.795.025.383.037.77.137.77.137l.16.042c-.027 0-1.557.155-2.053.245.372-.096.743-.195 1.104-.297-1.845-.052-4.172.498-5.912.25 1.466.688 3.036.488 4.554.115.237.132 2.46.145 2.46.145h.12c.165.062.35.127.702.22-.098.013-.197.016-.296.03-3.11.17.158-.35-3.401-.09.028.012.059.018.087.03a20.59 20.59 0 0 0-4.106.42c-.806-.034-1.645-.068-2.202-.118 1.376.568 2.821.723 4.26.555-.236.101-.463.23-.676.388-.722.074-1.44.216-2.158.38.051-.027.103-.044.152-.073-.982-.143-1.653.043-2.581.249.753.359 1.519.251 2.221-.076.582.042 1.118.044 1.631.019a7.76 7.76 0 0 0-.768.141 6.338 6.338 0 0 0 3.03.099h.585c-.815.059-1.644.124-1.644.159 0 .077 1.017.117 2.029.14.396.049.796.082.796.082.69.039 1.367.037 2.05.044-.44.083-.857.15-1.282.219a21.34 21.34 0 0 0-3.364-.283c.1-.014.2-.036.3-.05a10.536 10.536 0 0 0-1.543-.067c-1.346-.17-2.586-.015-3.957.15.285.08.565.12.845.159-.733.094-1.474.173-2.26.175 1.427.372 2.826.241 4.219.021 1.256.034 2.463.072 3.636.063.441.11.883.213 1.323.302h-1.49c-1.386-.23-2.753-.46-4.138.03.52.04 1.009.086 1.502.132.207.054.518.107.847.153-1.712-.055-3.499-.119-5-.139-.899-.013-1.767.403-2.59.263.791.276 1.805 0 2.563.112.288.04.579.06.868.096-1.366.03-2.832-.035-4.021.134 1.772.271 3.667.623 5.383.015 2.861.313 5.737.473 8.628.316.069.02.142.031.21.052l.016-.068c.383-.022.766-.037 1.148-.07 1.392.137 2.788.061 4.159-.295.11-.019.221-.045.33-.065-.587.234-1.187.446-1.76.64 1.625.076 3.491-.472 4.175-2.088-.173.18-.372.34-.581.492.064-.076.135-.144.188-.232.027-.05.03-.102.05-.151.026-.025.054-.039.08-.068.346-.45.28-.902.297-1.388-.064.077-.086.12-.127.18.093-.524-.09-.948-.237-1.23a15.204 15.204 0 0 0-.858-1.697c-.865-1.53-1.82-2.991-2.77-4.46-.5-.774-1.011-1.558-1.514-2.353.062.05.112.108.175.156-1.212-1.622-1.915-3.986-2.755-5.921zm-32.362 0c-.84 1.936-1.543 4.299-2.755 5.923.063-.05.115-.106.175-.156-.503.793-1.014 1.577-1.514 2.35-.95 1.47-1.905 2.931-2.77 4.462-.307.541-.61 1.1-.858 1.697-.148.283-.33.707-.236 1.23-.042-.06-.064-.103-.128-.179.018.485-.048.939.298 1.387.025.03.054.044.08.068.021.052.022.102.049.152.383.617 1.05.953 1.656 1.114.235.069.465.1.696.138 1.372.356 2.768.432 4.159.295.382.033.765.048 1.148.07l.016.068c.069-.021.141-.032.21-.052 2.891.156 5.767 0 8.628-.315 1.718.608 3.611.256 5.383-.016-1.188-.167-2.655-.104-4.021-.133.289-.036.58-.057.868-.096.758-.11 1.772.163 2.565-.112-.825.139-1.693-.276-2.592-.263-1.501.018-3.288.085-5 .138a8.8 8.8 0 0 0 .847-.153c.494-.043.982-.091 1.502-.131-1.384-.49-2.752-.263-4.138-.03h-1.49c.44-.089.882-.193 1.323-.304 1.55.014 3-.034 4.803-.082-2.311-.507-4.594-.459-6.927-.083-.425-.07-.841-.136-1.281-.218.682 0 1.36 0 2.049-.045 0 0 .4-.033.797-.082 1.011-.023 2.028-.064 2.028-.142 0-.034-.829-.1-1.642-.158.236 0 .724.013.726-.013.014-.142-3.349-.485-3.349-.485-.319-.033-.63-.075-.945-.114.353-.055.701-.118 1.06-.167 0 0 1.466-.212 1.778-.35.759-.075 1.515-.18 2.208-.147-.9-.356-1.856-.33-2.794-.273-.391 0-.468-.015-.836-.017a5.47 5.47 0 0 0 1.625-.464c-3.559-.257-.29.262-3.401.091-.098-.013-.198-.021-.296-.03.352-.092.537-.158.702-.22.04.002.08 0 .12 0 0 0 2.544-.012 2.544-.163 0-.07-2.36-.291-2.39-.295.053-.013.106-.028.158-.04 0 0 .388-.103.771-.138.375-.036.783.013.795-.024.021-.066-.343-.224-.748-.285-.092-.013-.167-.013-.255-.015a.545.545 0 0 0-.161-.097c.265-.024.533-.038.797-.076 0 0 .767-.11 1.512-.312.747-.203 1.457-.493 1.437-.553-.014-.045-.725.123-1.434.23-.712.109-1.43.16-1.43.16-.881.065-1.766.04-2.65-.038a40.501 40.501 0 0 0 2.822-.156s2.812-.315 2.776-.528c-.002-.016-2.674.058-2.674.058-.276 0-.554-.017-.831-.02-.23-.144-1.479-.314-1.479-.314-.726-.08-1.448-.121-2.172-.17.73.004 1.482.06 2.244.083.415.016.839.03 1.264.02 0 0 .612-.01 1.206-.134.594-.123 1.136-.372 1.109-.44-.015-.035-.563.092-1.099.123-.544.03-1.098-.014-1.098-.014-.443-.028-.89-.086-1.334-.141-.584-.076-1.173-.176-1.776-.252.716-.098 1.434-.186 2.146-.305 0 0 1.593-.287 1.577-.411-.012-.098-1.552-.058-1.552-.058-.272.009-.544 0-.817.003.708-.02 1.408-.081 2.101-.128 0 0 .525-.042 1.047-.07.521-.027 1.048-.03 1.054-.078.022-.17-1.234-.263-1.689-.294.17-.017.439-.031.44-.04.023-.184-1.612-.311-1.612-.311-.115-.006-.23.001-.347 0 .366-.07.76-.161.776-.261.187-.011.372-.025.558-.034 0 0 2.041-.115 2.041-.227 0-.11-1.947-.237-1.947-.237l-.185-.01a1.876 1.876 0 0 0-.467-.12c-.312-.04-.622-.036-.622-.036-.304.005-.606.022-.892.026a8.39 8.39 0 0 1-.688-.059l.03-.074c.743-.011 1.475-.09 2.199-.18 0 0 .587-.083 1.117-.17.668 0 1.326-.007 2.042.014-1.666-.566-3.336-.53-5.042-.408.015-.039.034-.075.05-.112.154-.04.318-.07.468-.11h.002c1.014.071 2.044.14 3.063.058 0 0 .49-.04.964-.15.476-.109.925-.288.91-.347-.01-.034-.263-.012-.555.01.002-.003.053-.008.053-.01 0-.029-.119-.048-.244-.069.616-.007 1.221-.025 1.913-.029-1.256-.457-2.53-.5-3.82-.356-.049-.049-.162-.112-.33-.175.228.002.454.017.682.01 0 0 .547-.032 1.042-.092 1.544.208 3.064.154 4.648.047.221.043.442.083.665.12a15.74 15.74 0 0 0-2.223.114c1.351.384 2.702.473 4.054.09 1.138.098 2.286.152 3.449.16-4.124-.86-4.127-.66-5.585-.82.14-.033.282-.06.416-.097-.811-.21-1.164-.218-1.455-.2.357-.125.637-.246.621-.288-.012-.032-.58.087-1.113.156a27.418 27.418 0 0 0-1.48-.585c.06-.007.121.002.18-.008-.533-.154-1.072-.405-1.579-.596a35.05 35.05 0 0 0-1.812-.625c-.992-.462-1.968-1.075-2.792-1.896.068-.316.112-.64.035-.951.04.3-.028.59-.117.873l-.038-.037c.059-.277.11-.557.155-.836.021-.136.056-.272.075-.41zm19.144-2.077a80.337 80.337 0 0 0-3.714.047c-2.13-.015-4.27.03-6.442.182.685.023 1.545.056 2.284.08a50.95 50.95 0 0 0-5.12.754c2.5-.245 5.349-.396 8.213-.522 2.224.039 4.259.158 6.51.134 1.942.09 3.84.186 5.531.304-.92-.161-1.84-.295-2.757-.414.03-.002.056 0 .088-.002l-.301-.024a63.923 63.923 0 0 0-2.642-.276c.882-.039 1.871-.072 2.694-.117a118.945 118.945 0 0 0-4.344-.146zm-18.719-9.425c-.363 2.821.421 5.38 1.372 7.938-.039-.093-.087-.182-.123-.276.27 1.767 1.176 3.369 2.432 4.607-.109-.067-.254-.135-.353-.201 1.11 1.772 2.996 2.596 4.965 2.917 1.598.775 3.44.663 5.243.43 2.428.257 4.857.245 7.245-.295.378-.01.755-.027 1.127-.072-.065.032-.15.066-.213.098 2.476-.112 5.094-.851 6.489-3.078-.099.066-.244.134-.353.201 1.256-1.238 2.162-2.84 2.432-4.607-.036.094-.083.183-.123.276.952-2.558 1.735-5.117 1.373-7.938-.65 2.995-1.57 5.452-1.657 8.562-.933 1.823-2.424 3.28-4.025 4.282-1.883 1.176-4.16 1.966-6.547 2.218.077.01.156.006.233.014-2.966.177-6.033-.086-9.064-.302a15.73 15.73 0 0 1-2.844-.942c2.276.802 4.764.966 7.203.739-3.07-.263-6.37-.669-9.255-1.815-1.553-.998-2.992-2.419-3.901-4.192-.087-3.112-1.007-5.57-1.656-8.563zm32.096-.752c-.668 3.965-.884 7.74-2.51 11.033-.687 1.404-1.717 2.666-3.02 3.548-1.645 1.121-3.68 1.715-5.785 2.067 2.148-.059 4.276-.444 6.124-1.525.856-.506 1.595-1.179 2.222-1.94.54-.27 1.028-.624 1.404-1.118.665-.894.885-1.964.989-3.065-.407 1.03-.77 2.008-1.361 2.784-.071.094-.16.18-.24.27.132-.22.272-.438.385-.669 1.719-3.543 1.665-7.408 1.792-11.385zm-32.68 0c.127 3.977.073 7.842 1.792 11.385.113.23.253.448.385.67-.08-.091-.169-.177-.24-.271-.59-.776-.954-1.754-1.361-2.784.104 1.101.324 2.172.99 3.065.375.494.863.848 1.403 1.118.627.761 1.366 1.434 2.222 1.94 1.848 1.08 3.976 1.466 6.125 1.525-2.107-.352-4.141-.946-5.784-2.067-1.304-.882-2.335-2.144-3.021-3.548-1.626-3.293-1.842-7.068-2.511-11.033zm-2.916-3.336c.519 5.885.548 7.784 1.25 13.672.505-4.623.193-9.171-1.25-13.672zM58.42 74.42c-1.051 4.806-1.539 9.305-1.416 14.167.957-4.862 1.413-9.21 1.416-14.167zm-32.014 0c.003 4.958.459 9.305 1.418 14.167.121-4.862-.366-9.361-1.418-14.167zm33.931-.417c-.901 3.74-1.479 7.259-1.167 11.087.766-3.807 1.314-7.168 1.167-11.087zm-35.847 0c-.146 3.919.4 7.28 1.167 11.087.31-3.828-.267-7.347-1.167-11.087zm-2.25-3c-.124 2.592.174 4.584.75 7.087.511-2.434.163-4.775-.75-7.087zm41.597-16.25c-1.13 3.642-1.585 7.157-1.417 10.917.916-3.768 1.324-7.044 1.417-10.916zm-42.847 0c.092 3.873.5 7.149 1.416 10.917.17-3.76-.286-7.275-1.416-10.916zm41.143-.409c-.087.622-.185 1.243-.263 1.866-.657 2.516-1.16 5.064-1.581 7.632.053-.934.283-2.624.65-4.908.595-2.28.911-3.495 1.194-4.59zm2.53-7.858a11.257 11.257 0 0 0-.555 3.046 42.263 42.263 0 0 0-.771 1.967c.417-1.804.676-2.933 1.056-4.581.093-.143.18-.288.27-.432zm-44.498 0c.088.144.176.29.268.432.38 1.648.639 2.777 1.057 4.581a45.47 45.47 0 0 0-.77-1.967 11.308 11.308 0 0 0-.555-3.046zm1.75-.797c.562 1.93 1.111 3.863 1.645 5.8-.554-1.94-1.147-3.863-1.736-5.79l.09-.01zm46.491-9.805a55.56 55.56 0 0 0-1.372 3.446c-.752 2.078-1.478 4.308-2.377 6.445.541-2.355.86-3.776.844-3.797l.301-1.05c.966-1.78 1.808-3.43 2.604-5.044zm-6.812-1.56a488.926 488.926 0 0 0-2.958 11.165c-.394.005-.784.013-1.18.013.113-.418.433-1.584.433-1.584a610.06 610.06 0 0 1 2.637-9.304c.36-.088.712-.192 1.068-.29zm1.787-.52a365.176 365.176 0 0 0-3.3 11.668c-.287.008-.579.003-.867.008 1.022-3.806 2.09-7.6 3.203-11.38.323-.096.645-.192.964-.297zm1.601-.584a484.466 484.466 0 0 0-3.505 12.19c-.228.01-.45.03-.68.04a364.281 364.281 0 0 1 3.53-11.99c.218-.08.438-.157.655-.24zm-4.658-.43c-.075.276-.143.553-.216.828-.388.092-.783.168-1.175.248.064-.272.135-.543.2-.815.397-.085.797-.163 1.19-.261zm6.172-.182c-1.287 4.234-2.56 8.474-3.764 12.729-.18.01-.362.022-.544.031 1.189-4.184 2.45-8.35 3.75-12.505.192-.08.368-.173.558-.255zm-4.326-.34c-.081.286-.168.574-.248.86-.349.103-.702.192-1.057.284.081-.28.16-.562.243-.844.354-.097.71-.192 1.062-.3zm-1.698-.036l-.011.04c-.4.102-.804.195-1.208.288.001-.005.001-.012.003-.017.405-.092.812-.2 1.216-.31zm7.268-.192a267.527 267.527 0 0 0-3.771 13.224c-.188.015-.383.02-.573.034 1.304-4.387 2.68-8.76 4.065-13.13.092-.044.188-.085.279-.128zm-5.386-.417l-.041.144c-.348.103-.701.19-1.052.287l.019-.063c.361-.115.72-.232 1.074-.368zm1.699-.023l-.287.93c-.332.117-.653.252-.989.36.092-.31.188-.619.281-.928.334-.116.666-.234.995-.362zm1.653-.724c-.109.356-.222.711-.33 1.068-.21.086-.43.15-.642.231.106-.332.215-.664.322-.997.218-.096.434-.199.65-.302zm4.356-.032c-.086.162-.186.32-.273.48-.117.114-.23.235-.35.344.091-.057.171-.126.262-.185-1.393 2.633-2.54 5.363-3.539 8.195a242.419 242.419 0 0 1 2.544-8.096c.467-.236.907-.49 1.356-.738zm-59.325-.762c1.59 4.636 3.067 8.353 5.253 12.75-1.089-4.557-2.761-8.705-5.253-12.75zm50.328-.008c-.176.646-.359 1.29-.533 1.937-.403.093-.804.18-1.208.256.148-.61.294-1.22.448-1.828.434-.108.865-.235 1.293-.365zm6.201-.008c-.122.402-.242.804-.365 1.206-.173.08-.352.156-.528.234.119-.378.241-.755.361-1.132.18-.096.354-.207.532-.308zm-38.541-.104c1.527 1.481 3.707 1.672 5.73 1.718-1.78-.597-4.122-.89-5.73-1.718zm34.21-.364c-.183.633-.366 1.268-.546 1.902-.348.115-.7.211-1.052.306.19-.654.387-1.304.58-1.956.34-.08.68-.163 1.019-.252zm-22.887-.358c3.748.628 7.545 1.148 11.257.074-3.577.432-7.545-.044-11.257-.074zm24.798-.2c-.221.707-.44 1.416-.658 2.124-.324.112-.656.214-.984.32l.08-.268c.285-.129.577-.246.854-.394-.272.126-.557.22-.836.33.183-.606.367-1.213.552-1.818.331-.096.664-.188.992-.294zm-3.408-.308l-.182.656c-.428.102-.862.19-1.295.276.056-.216.105-.436.161-.653.44-.088.88-.17 1.316-.279zm-41-.132c11.707 5.716 25.624 8.676 37.687 6.507l-.075.363s-1.382 6.914-1.321 6.93c.153.036 1.71-6.517 1.71-6.517.067-.292.143-.581.213-.875.382-.073.769-.132 1.148-.216a624.534 624.534 0 0 0-2.235 8.52s-.356 1.482-.53 2.194c-8.297-.026-17.122-.95-25.831-.948a97.467 97.467 0 0 0-6.29.198A590.09 590.09 0 0 0 20.438 28.6zm46.008-.117c-.213.69-.429 1.38-.641 2.072a32.2 32.2 0 0 1-.628.243c.225-.703.45-1.408.677-2.11.198-.069.396-.133.592-.205zm-3.108-.295c-.068.236-.133.472-.202.708-.338.1-.678.192-1.019.282l.21-.7c.337-.096.677-.183 1.011-.29zm4.587-.302c-.205.674-.407 1.35-.612 2.024-.168.076-.333.157-.503.232.22-.692.443-1.383.664-2.074.151-.06.302-.118.451-.182zm-49.472-.28c.323.17.65.33.977.496A585.615 585.615 0 0 1 24.334 44.8c-.321.024-.641.045-.961.073-1.659-5.756-3.355-11.498-4.92-17.268zm46.881-.136c-.082.26-.16.522-.242.784a34.54 34.54 0 0 1-1.014.346c.078-.25.152-.502.23-.753.344-.123.686-.244 1.026-.377zm3.971-.214c-.388 1.122-.741 2.254-1.107 3.383l-.302.15.422-1.333c.04-.025.083-.044.123-.069-.039.019-.079.035-.117.053l.637-2.022c.115-.054.23-.107.344-.162zm-52.247-.417c.108.061.219.12.328.18 1.678 5.999 3.51 11.95 5.294 17.91-.082.008-.163.02-.244.027-1.712-6.065-3.542-12.097-5.378-18.117zm49.922-.077l-.3.96c-.2.094-.403.186-.604.278l.038-.113c.05-.03.099-.055.147-.084-.045.019-.093.033-.139.052l.274-.833c.196-.086.39-.172.584-.26zm-51.344-.727c.092.053.17.112.262.167l.046.022c1.97 6.255 3.938 12.52 5.781 18.816l-.095.011c-1.956-6.356-4.038-12.67-5.994-19.016zm52.854-.008l-.289.95c-.15.077-.299.157-.45.233.102-.319.202-.639.305-.956.145-.074.289-.152.434-.227zm-50.492-.141c.292.16.586.32.886.47.033.107.069.215.104.324-.311-.162-.608-.336-.915-.502l-.075-.292zm-.172-.664c.114.088.223.182.339.268-.108-.064-.213-.135-.321-.2l-.018-.068zm55.167-.072c.079.382.127.772.101 1.156-.057.208-.112.416-.164.628-.052.053-.101.11-.153.164l.08-.152c-.132.108-.265.21-.399.316.18-.387.348-.75.547-1.183-.36.512-.681 1.035-1.017 1.555a37.95 37.95 0 0 1-1.816 1.344 25.513 25.513 0 0 0 1.537-.926c-.199.314-.399.626-.59.94-.618.383-1.251.758-1.907 1.115.393-1.14.78-2.283 1.197-3.413.89-.47 1.745-.995 2.584-1.544zm-56.497-.163c.137.09.273.183.413.27l.092.333c-.128-.074-.261-.142-.388-.214-.04-.129-.079-.26-.117-.389zm56.992-.168c.009.037.009.072.02.112-.022.065-.04.136-.063.203-.02-.08-.055-.156-.08-.235.04-.028.083-.053.123-.08zm-21.022-.087c.046.754.426 1.552 1.271 1.732.793.122 1.45-.182 2.156-.45-.8-.048-1.428.11-2.08-.008-.527-.05-1.007-.612-1.347-1.274zm2.164-.005c.332.212.723.335 1.128.367-.552.081-1.124.061-1.56-.219-.06-.033-.108-.09-.164-.132.103.02.207.03.312.028.099-.004.192-.024.284-.044zm-35.361-.033c.956.514 1.945.974 2.979 1.358.553.207 1.142.354 1.734.498 3.204 1.668 6.796 2.574 10.443 3.188 4.425 1.73 9.175 1.832 13.916 1.424 3.613.296 7.261.194 10.745-.574-.129.596-.253 1.191-.377 1.787a53.22 53.22 0 0 1-1.253.204c-2.834.416-5.696.593-8.534.643-2.84.05-5.718-.034-8.598-.298-2.268-.208-4.614-.5-6.871-1.173 2.219.804 4.567 1.208 6.836 1.492 2.885.361 5.776.495 8.641.445 2.848-.049 5.727-.276 8.575-.792.379-.068.76-.15 1.141-.229l-.008.036c-2.378.533-4.797.952-7.19 1.341 2.378-.144 4.76-.408 7.089-.866-.055.265-.116.53-.17.794-12.157 2.302-26.485-.789-38.333-6.764l-.106-.36c.409.183.816.371 1.233.538 1.765.936 3.643 1.685 5.553 2.36-2.237-1.196-4.71-2.404-7.04-3.73-.132-.442-.272-.88-.405-1.324zm40.227-.5c-.192.081-.371.16-.579.246.023-.018.043-.038.065-.057.178-.065.339-.123.514-.19zm3.202-.035c-.374 1.35-.745 2.7-1.117 4.05-.443.113-.887.213-1.333.313.356-1.347.741-2.683 1.148-4.01.205 0 .416-.048.609-.102.239-.066.463-.166.693-.25zm-47.7-.227c.099.078.196.158.296.232.054.168.107.338.159.506-.093-.059-.19-.115-.283-.175-.057-.188-.116-.375-.172-.563zm-2.66-.109c.687.501 1.398.997 2.15 1.483 2.105 6.63 4.357 13.204 6.473 19.817l-.27.03a30.44 30.44 0 0 0-1.454-3.571c-.108-.367.328 1.545.81 3.648-.023.002-.047.004-.07.008l.008.052c-.81-1.988-1.496-4.038-2.192-5.962a55.089 55.089 0 0 0-1.373-3.445 137.52 137.52 0 0 0 2.817 5.448c-1.124-3.432-2.448-6.704-4.11-9.848.089.059.169.128.262.184-.121-.11-.235-.23-.352-.344a50.132 50.132 0 0 0-3.216-5.244c.259.561.465.999.71 1.533-.197-.234-.422-.453-.634-.678-.052-.212-.107-.42-.164-.628a4.338 4.338 0 0 1 .607-2.483zm6.642-.216c.246-.001.496.005.742 0 .572.516 1.166.993 1.782 1.43a33.797 33.797 0 0 1-2.524-1.43zm47.612-.005c-.378 1.146-.759 2.29-1.126 3.44-.334.116-.674.22-1.013.328.392-1.256.8-2.507 1.204-3.76.31.002.623-.004.935-.008zm-49.188-.008h.024c.237.153.472.31.713.456.144.445.288.89.43 1.336a40.18 40.18 0 0 1-.837-.522c-.11-.422-.221-.846-.33-1.27zm27.325-.003c-.696.592-.69 1.332-.143 2.005.527-.708.5-1.24.143-2.005zm23.235-.02c-.296.961-.592 1.921-.891 2.883-.184.07-.37.136-.557.205.34-1.025.69-2.045 1.037-3.068.136-.005.275-.015.41-.02zm-3.872-.004c.209.01.42.019.63.024-.416 1.364-.834 2.727-1.237 4.093-.333.1-.67.184-1.005.276.418-1.406.834-2.814 1.257-4.22.12-.056.236-.116.355-.173zm-48.044-.053c.133.01.268.02.4.028.052.186.101.374.152.562-.116-.08-.239-.16-.352-.242.124.121.253.23.38.346l.104.383c-.147-.095-.296-.185-.443-.281l-.241-.796zm46.345-.024c.161.01.323.022.483.03l-.104.376c-.267.136-.528.282-.806.398a2.69 2.69 0 0 1-.56.182c.042-.133.087-.265.128-.398.298-.175.578-.383.86-.588zm6.868-.01c-.243.796-.483 1.592-.724 2.39-.139.057-.275.116-.415.172.274-.847.546-1.695.816-2.542.107-.008.215-.012.323-.02zm-54.253-.042c.021.001.04.002.06.005l.016.047-.076-.052zm-3.2-.006c.121.092.248.184.372.276a3.03 3.03 0 0 0-.799 1.424c-.023-.066-.04-.136-.063-.202.14-.463.104-.85.299-1.378-.292.128-.444.347-.547.588-.024-.082-.061-.172-.08-.252-.017-.18-.066-.292-.032-.289-.048.004.038-.004.155-.065.2-.06.445-.078.695-.102zm60.366-.076c.248.307.434.656.584 1.022a57.12 57.12 0 0 1-1.921 1.17c.15-.4.296-.8.45-1.2.322-.3.614-.636.887-.992zm.022-.022c.222.024.449.053.666.074.316.034.606.052.852.126.116.061.203.07.154.065.036-.003-.015.11-.031.29l-.016.046-.112-.17-.128.083a.921.921 0 0 0-.372-.296c.064.171.08.314.11.463-.095.063-.19.124-.285.185a2.734 2.734 0 0 0-.849-.854.05.05 0 0 0 .01-.014zm-45.102-.09c.364.303.723.602 1.13.912-.512-.22-.992-.538-1.45-.898.107-.006.214-.007.32-.014zm39.62-.02c-.002.007-.002.014-.005.02l-.17-.008c.058-.002.117-.009.175-.013zm-19.8-.014c.195.854.436 1.716.755 2.594-.05-.866-.099-1.73-.161-2.59zm-17.836-.028c.163.27.375.514.706.682.658.24 1.337-.025 1.761-.42.092-.077.16-.173.244-.257l-1.315-.003c-.166.078-.329.116-.473.066-.056-.007-.104-.046-.157-.066zm-15.265-.016c.056.177.11.354.167.532-.222-.154-.446-.307-.664-.462.165-.02.33-.046.497-.07zm54.07-.02c.073.004.142-.003.214 0-.017.054-.036.11-.052.164l-.39-.019.043-.133c.062-.004.124-.01.186-.012zm-51.947 0c.133.006.27-.002.405 0l.05.184-.393.018-.062-.202zm53.437-.038l-.081.264-.307-.016c.023-.072.044-.144.068-.216.107-.006.213-.022.32-.03zm.961-.038c.159.026.315.044.474.068-.223.596-.455 1.188-.672 1.786-.147.13-.29.258-.467.394.139-.042.256-.11.384-.164-.128.352-.253.704-.379 1.057-.132.072-.266.141-.4.213l.31-.98c.049-.026.1-.05.148-.077-.047.02-.096.039-.143.06l.745-2.357zm-55.605-.034c.073.01.147.014.219.023l.108.336-.103.005a5.407 5.407 0 0 1-.143-.098 13.47 13.47 0 0 0-.081-.266zm33.21-.054c.36.096.722.158 1.085.233l-.432-.001c.172.742.292 1.49.224 2.238.261-.713.334-1.464.298-2.218.14.028.278.065.418.09.086.33.176.66.254.986.014.124.042.25.05.374.037.714.142 1.447-.208 1.844-.106.18-.387.228-.651.222-.276-.023-.63-.123-1.076-.07-1.612.228-3.293.398-4.937.27a98.899 98.899 0 0 0-2.183-.736 6.182 6.182 0 0 0 1.5-.243 11.26 11.26 0 0 1-3.561-.803c-.463-.19-.924-.296-1.342-.418-.025-.042-.062-.079-.081-.123-.197-.385-.203-.87-.184-1.359l.544.023c.01.087.016.175.041.259.08.274.263.53.519.634-.221-.164-.31-.429-.328-.674-.005-.07.005-.139.013-.208.26.01.52.025.782.033.045.177.094.355.181.532.03-.212.06-.361.092-.519.29.01.581.015.872.022-.027.133-.048.257-.087.421.103-.136.19-.279.279-.419.292.006.584.008.876.011-.068.481-.033.983.135 1.49a4.535 4.535 0 0 0 .625-1.487c.253-.002.507-.01.76-.014.028.751.105 1.508.305 2.291a17.89 17.89 0 0 0 .372-2.301c.322-.01.643-.022.964-.036l.026.186c.008-.065.013-.126.018-.189.446-.021.892-.047 1.339-.081.104.826.261 1.656.508 2.565.216-.876.272-1.74.232-2.596h-.284c.68-.06 1.36-.133 2.041-.23zm-17.377-.016c1.739.065 3.47.157 5.196.245-.134.561-.124 1.141.334 1.659.708.657 1.653.806 2.354 1.033.054.019.11.025.164.041.676.57 1.488.928 2.359 1.136 2.245.874 4.764.796 7.057.352.218-.058.534.027.93.023.174.005.35-.03.521-.09.199.005.4-.026.604-.167.512-.448.648-1.179.62-1.776-.005-.683-.147-1.336-.323-1.967.234.032.467.056.7.081.182.548.339 1.1.386 1.668.07.832-.12 1.74-.651 2.475.644-.645.983-1.565.984-2.484.001-.55-.113-1.081-.255-1.604.355.028.711.033 1.068.044.115.164.238.323.38.468.16.48.42.923.839 1.281.67.53 1.561.63 2.339.451a6.139 6.139 0 0 0 1.7-.667 6.942 6.942 0 0 0 2.63-.562 110.905 110.905 0 0 0-1.005 4.078c-2.373.482-4.781.764-7.183.768 2.383.232 4.755.11 7.08-.297-.046.21-.086.42-.132.628a54.512 54.512 0 0 1-5.098.697c.113-.014.229-.03.342-.046-4.99-.036-10.273.368-15.309-.112a16.64 16.64 0 0 0 1.93-.154c-2.029-.25-4.422-.397-6.422-.94-5.241-1.313-10.572-2.718-14.912-5.625.405-.01.81-.03 1.213-.047 5.782 3.542 12.476 5.428 19.262 5.107-6.575-.284-13.262-2.13-19.243-5.107a105.12 105.12 0 0 0 3.412-.202c.713-.012 1.43-.052 2.145-.09.898 1.054 2.12 1.838 3.535 1.975.07.005.14-.004.21-.003.322.056.651.075.995-.002.32-.102.579-.26.818-.435a4.34 4.34 0 0 0 1.453-1.243c.116-.112.205-.242.304-.366H32.86c-.547.672-1.298 1.185-2.126 1.342-.568-.042-1.18-.434-1.786-.817-.231-.159-.467-.35-.703-.533h-.205c.838-.062 1.68-.127 2.522-.216zm18.186-.118c2.041.156 4.084.258 6.133.18 1.613.154 3.22.251 4.82.296l-.136.084c-1.139.53-2.276 1.103-3.41 1.367-.44.104-.933.08-1.383-.085.342-.107.642-.314.897-.55-.423.232-.892.394-1.301.315-.343-.053-.639-.285-.866-.552-.064-.076-.106-.168-.164-.25.172 0 .343.006.514 0 .26.38.668.622 1.262.557.112.122-.084-.206-.34-.619.227-.016.454-.021.682-.044.165.137.336.267.524.38-.12-.123-.218-.261-.323-.393l.028-.003-.03-.003c-.082-.102-.174-.196-.249-.302h-.304c.099.097.204.188.31.278-.554-.056-.33-.028-.735-.068-.048-.078-.077-.13-.13-.213h-.911c.016.043.041.079.06.12a116.3 116.3 0 0 0-.594-.055c-.013-.024-.032-.044-.045-.068h-.679c-.773-.057-.649-.016-3.912-.325l.282-.047zm12.289-.112l-.044.156c-1.36-.006-2.71-.009-4.008-.02.103-.01.207-.026.31-.04 1.246.011 2.49-.017 3.742-.096zm2.107-.192l-.099.36c-.383-.002-.745-.005-1.128-.006l.076-.243c.383-.032.767-.067 1.15-.112zM8.898 22.34a2.38 2.38 0 0 0-.724.946c.015-.076.014-.172.038-.238.112-.309.308-.522.686-.708zm22.36-.002c-3.672-.03-6.521.185-11.044.016 5.087.8 9.978.44 15.083.117a79.576 79.576 0 0 0-4.039-.133zm31.974-.11l-.044.154c-.372.01-.76.021-1.112.024l.044-.14c.37-.008.741-.023 1.112-.038zm1.93-.088c-.08.258-.156.516-.234.774l-.943-.006.145-.492c.162-.022.322-.037.483-.062-.17.006-.303.005-.467.01l.05-.166c.321-.016.644-.039.966-.058zm1.951-.13c-.101.304-.2.61-.3.914-.305 0-.628-.004-.937-.005.09-.281.178-.564.27-.844.322-.023.643-.04.967-.065zm3.559-.016h.565c-.063.162-.12.325-.181.488-.187.014-.371.034-.555.057.056-.181.115-.363.17-.544zm-1.25 0h.287l-.201.664c-.106.017-.212.034-.318.053l.232-.716zm-1.33 0h.361l-.276.886c-.097.016-.195.032-.293.05-.035-.002-.074 0-.107 0 .105-.312.208-.624.315-.936zm-38.831 0h26.304c1.877.224 3.739.297 5.603.286-.012.044-.024.09-.038.134-2.704.001-4.93-.096-7.562-.076-1.131.01-2.374.05-3.734.122-2.292-.153-4.594-.297-6.901-.24-.759.02-1.516.063-2.273.134 2.502.014 4.981.248 7.457.445-.12.008-.239.021-.359.03-.317-.031-.292-.026-.674-.063.112.034.224.052.336.085-5.279.29-10.807-.15-16.164.047.248-.028.492-.04.74-.072-3.518.098-8.72.085-13.267.098-.087-.289-.177-.576-.265-.865 3.617.257 7.181.365 10.797-.064zm-12.27 0h.489l.3.933c-.175 0-.376.001-.547.003-.081-.312-.161-.624-.243-.935zm-1.407 0h.448c.073.273.144.548.218.821l-.437-.076-.23-.744zm-1.17 0h.199c.061.198.124.396.187.594-.071-.009-.143-.012-.214-.02-.058-.192-.113-.382-.172-.574zm-3.018 0h2.048c.048.157.098.313.148.47-.136-.01-.267-.037-.404-.042a10.31 10.31 0 0 0-1.578.05c.438.078.862.151 1.291.236-.324-.009-.645-.028-.976-.026-.31 0-.65.005-1.01.09-.217.023-.48.167-.678.48-.128.346-.093.64-.017.828.022.086.061.154.088.235-.111-.22-.231-.44-.339-.659.63 2.24 1.64 4.408 3.175 6.115.354.53.728 1.06 1.125 1.593.333.718.696 1.527 1.03 2.232-.515-.956-1.07-1.893-1.729-2.768 1.464 2.787 2.451 5.951 3.47 8.771a52.56 52.56 0 0 0 1.572 3.919 27.842 27.842 0 0 0 1.87 6.038c.838 3.035 1.795 7.133 2.724 11.069-.018-.042-.032-.083-.049-.124.185 2.586.515 4.926 1.323 7.32.018.309.052.683.098 1.111.234 5.442.935 10.539 1.828 16.07-.001-3.832-.292-7.472-.726-11.132.092.238.181.477.31.716.348-1.464.196-2.68-.333-4.082-.05.136-.067.266-.104.4-.133-5.02-.467-10.033-2.147-14.903.794 4.405 1.056 6.527 1.131 7.84-.421-2.569-.924-5.116-1.581-7.633-.44-3.516-.996-7.018-2.066-10.406l.272-.031a337.104 337.104 0 0 1 1.831 5.88 194.73 194.73 0 0 1 2.848 10.593s1.21 5.023 2.057 10.118c.847 5.09 1.315 10.242 1.326 10.242.096-.006-.232-4.936-.94-9.826-.707-4.89-1.779-9.72-1.779-9.72-.235-1.07-.504-2.13-.76-3.193.776 3.13 1.517 6.267 2.172 9.42 0 0 1.233 5.85 2.115 11.762.88 5.906 1.398 11.887 1.412 11.885.092-.006-.287-5.725-1.027-11.39-.74-5.668-1.83-11.282-1.83-11.282-1.6-8.286-3.674-16.496-5.965-24.656.086-.008.168-.021.254-.029a544.342 544.342 0 0 1 2.502 8.602c1.011 3.607 1.976 7.233 2.831 10.882 0 0 1.285 5.36 2.161 10.787.875 5.421 1.288 10.917 1.282 10.917.11-.005-.166-5.261-.896-10.47-.731-5.21-1.872-10.355-1.872-10.355-.872-3.999-1.876-7.972-2.94-11.918a553.838 553.838 0 0 0-2.382-8.494c.316-.027.634-.048.951-.07.541 1.946 1.083 3.891 1.612 5.84 0 0 3.96 14.675 4.04 14.655.13-.035-3.415-14.102-3.415-14.102-.548-2.147-1.105-4.294-1.666-6.438 10.517-.664 21.506.703 31.792.74-.104.423-.222.933-.336 1.407-10.424-.314-20.227-1.157-30.836-.99 10.534.434 20.29 1.3 30.828 1.023-.715 2.953-1.547 6.465-1.42 6.495.014.003 1.026-3.737 1.774-6.5l.255-.006c-.085-.002-.168-.008-.252-.01.163-.603.256-.932.388-1.419.396 0 .799.012 1.192.008-.43 1.713-.861 3.427-1.273 5.145 0 0-3.439 14.695-3.198 14.748-.01-.003 3.484-13.97 3.484-13.97a537.08 537.08 0 0 1 1.552-5.919c.292-.005.582-.014.872-.023-1.882 7.194-3.532 14.444-4.849 21.747 0 0-1.045 5.785-1.785 11.615-.742 5.83-1.182 11.694-1.1 11.701.03.003.562-5.583 1.341-11.128a279.915 279.915 0 0 1 1.81-11.052c1.43-7.7 3.23-15.337 5.294-22.907.224-.008.45-.013.672-.022-1.655 6.125-3.161 12.284-4.4 18.489 0 0-1.079 5.364-1.85 10.776-.771 5.41-1.23 10.867-1.143 10.875.026.003.577-5.192 1.382-10.336.808-5.146 1.868-10.247 1.868-10.247 1.355-6.579 3.015-13.101 4.844-19.586.182-.01.36-.026.542-.037-1.04 3.704-2.039 7.418-2.915 11.156 0 0-1.045 4.423-1.84 8.894-.796 4.47-1.327 8.99-1.243 9 .03.004.646-4.295 1.476-8.536a205.127 205.127 0 0 1 1.868-8.446c.987-4.06 2.124-8.09 3.31-12.109.202-.015.405-.027.606-.043-.484 1.88-.968 3.76-1.432 5.645 0 0-.746 3.11-1.432 5.98-.28.977-.506 1.957-.698 2.941-.744 3.15-1.414 6.039-1.367 6.049.033.008.427-1.421.912-3.233-.317 2.512-.436 5.045-.503 7.577-.038-.133-.054-.263-.105-.397-.53 1.4-.681 2.616-.333 4.08.129-.237.218-.478.31-.716-.434 3.66-.725 7.3-.726 11.132.894-5.531 1.594-10.628 1.828-16.07.046-.428.08-.802.098-1.112.808-2.392 1.138-4.733 1.323-7.32-.017.042-.03.083-.05.125.93-3.936 1.887-8.034 2.725-11.067.881-2.048 1.428-3.783 1.87-6.04a51.992 51.992 0 0 0 1.572-3.919c1.019-2.82 2.006-5.984 3.47-8.77-.659.874-1.214 1.811-1.73 2.767.335-.705.698-1.514 1.031-2.232a39.62 39.62 0 0 0 1.125-1.593c1.535-1.707 2.546-3.876 3.175-6.115-.108.22-.228.44-.339.66.027-.082.067-.15.09-.236.074-.189.109-.482-.019-.828-.199-.313-.46-.457-.677-.48-.359-.085-.7-.09-1.011-.09-.324-.003-.641.017-.96.026l.003-.002c.422-.084.841-.158 1.273-.235-.399-.044-.783-.039-1.167-.036l.174-.44h1.206c.07.021.16.048.224.07.58.186 1.268.615 1.804 1.265a2.382 2.382 0 0 0-.484-1.239c.215.037.372.095.534.15.598.745.692 1.742.549 2.527a13.32 13.32 0 0 1-.38 1.487 30.32 30.32 0 0 0 .388-1.915c-.676 1.934-1.42 4.108-2.23 6.172-2.346 3.91-3.947 7.923-5 12.318 1.765-3.547 3.065-6.675 4.337-10.176.17-.27.324-.548.477-.826a192.037 192.037 0 0 0-5.081 14.409c-1.223 3-2.483 5.637-3.066 8.926.424-.81.831-1.613 1.215-2.421a170.98 170.98 0 0 0-2.576 11.213c.084-1.11.165-2.215.279-3.37-1.04 3.886-1.442 7.734-1.675 11.605-.07.48-.135.962-.2 1.445.059-.837.087-1.69.041-2.633-.913 2.312-1.261 4.653-.75 7.087a42.58 42.58 0 0 0 .333-1.587 193.407 193.407 0 0 0-.643 6.185c.054-.645.076-1.008.143-1.77-1.443 4.5-1.753 9.049-1.25 13.672.46-3.849.657-6.27.865-8.935-.192 2.63-.347 5.3-.446 8.033-.05 1.45.111 2.844.418 4.203a26.337 26.337 0 0 1-.691-2.138c.039 1.625.457 3.227 1.267 4.602 1.026 3.272 3.089 6.164 4.924 8.995-.064-.178-.151-.37-.222-.553.588.903 1.18 1.805 1.79 2.724.524 1.14.512 2.426.072 3.336-.335.735-.951 1.436-1.734 1.967-.241.037-.476.081-.748.081h-.581a4.025 4.025 0 0 0 1.764-1.084c-1.925.798-4.712.412-6.988.58.524.196 1.087.37 1.663.504H57.55c-2.66-.257-5.282-.545-7.89-.485a22.903 22.903 0 0 0-4.29.485h-5.914a22.903 22.903 0 0 0-4.29-.485c-2.608-.06-5.23.228-7.89.485h-4.222a13.625 13.625 0 0 0 1.663-.503c-2.276-.169-5.063.217-6.988-.58.513.545 1.117.88 1.764 1.083h-.715c-.216 0-.397-.04-.593-.065-.793-.532-1.416-1.241-1.755-1.983-.46-.954-.469-2.325.138-3.505-.091.077-.17.167-.25.253a372.81 372.81 0 0 0 2.18-3.322c-.152.361-.305.724-.428 1.067 2.408-3.718 5.275-7.518 5.587-12.174-.039.126-.097.265-.141.395.258-1.257.386-2.545.338-3.883a199.404 199.404 0 0 0-1.666-19.765c-.212-4.459-.586-8.87-1.782-13.336.156 1.586.274 3.12.383 4.63-.84-4.502-1.848-8.91-3.023-13.26a56.764 56.764 0 0 0 1.558 3.209c-.627-3.538-2.028-6.287-3.334-9.582.01.125.032.245.044.37-1.909-6.187-4.165-12.31-6.77-18.5.126.154.252.31.39.458-.328-1.123-.708-2.156-.885-3.143-.145-.8-.048-1.825.585-2.573.16-.045.314-.092.516-.123a2.39 2.39 0 0 0-.502 1.26c.536-.652 1.224-1.08 1.804-1.266.064-.023.156-.05.224-.07zm56.409-3.35l.005.012c.007.027.019.056.024.083.008.025.007.05.014.073.034.17.045.36.038.558-.016.112-.022.226-.076.328a1.438 1.438 0 0 1-.202.314c.174-.43.242-.898.197-1.369zm-3.508-.312c.264.888.477 1.18 1.37 1.511.078-.859-.48-1.51-1.37-1.51zm-35.06-.72c-1.427.82-2.336 1.684-3.293 3.04 1.566-.478 2.692-1.517 3.293-3.04zm15.71-1.485c-.586.821-.406 1.597.213 2.292.437-.872.266-1.523-.214-2.292zm-13.68-.747c-.917.27-1.863.758-1.983 1.93.894-.448 1.684-.76 1.982-1.93zm2.38-.097c-1.557 1.312-1.24 1.353-2.58 2.779 1.515-.087 2.443-1.387 2.58-2.779zm-3.597-.159c-2.262 1.33-3.806 2.851-5.628 4.714 2.407-.974 4.15-2.636 5.628-4.714zm43.731-.12c-.06.042-.115.09-.176.128-.363.228-.764.42-1.185.571.381-.173.75-.379 1.093-.623.09-.026.181-.045.268-.076zm-45.252-.234c-2.03.957-3.385 2.328-4.867 3.953 2.116-.775 3.562-2.201 4.867-3.953zm-14.685-.323c.138.113.286.21.433.313.021.05.039.103.064.151-.164-.156-.335-.305-.497-.464zm22.338-.739c-2.076 1.672-2.86 4.051-4.005 6.286 2.076-1.716 2.848-4.056 4.005-6.286zm18.656-.674c.428 2.11.935 3.866 2.224 5.666-.244-2.082-.832-3.992-2.224-5.666zm-25.5-.19c-1.261.88-2.826 1.587-4.184 2.546-1.057.182-2.074.358-2.969 1.068-.38.284-.704.75-.727 1.308.031.685.466 1.13.932 1.444-.26-.503-.45-1.028-.32-1.387.062-.28.338-.513.607-.74.324-.253 1.232-.81 1.94-1.29-.753.606-1.417 1.311-1.872 2.225 1.968-1.834 4.915-2.68 6.593-5.175zm5.678-.302c-.927.261-1.371.896-1.471 1.825.952-.299 1.357-.861 1.47-1.825zm-13.94-.462c-1.495.542-3.219.82-4.362 2.284 1.543-.489 3.294-.74 4.362-2.284zm-9.586-.104c.17.144.352.275.531.411.159.247.33.483.51.712-.351-.372-.702-.741-1.04-1.123zm19.828-.048c-.825-.006-1.078.287-1.414.962.813.298 1.337-.195 1.414-.962zm1.62-.2c-1.638.924-3.018 1.74-4.256 3.295 1.768-.635 3.328-1.555 4.256-3.295zm21.968-.134c1.395 1.844 1.995 4.536 4.232 5.952-1.252-1.898-1.932-4.66-4.232-5.952zm.858-.147c1.201 1.03 2.496 2.592 3.577 3.641.195.19.407.375.615.563a6.18 6.18 0 0 0-1.396-.617c1.562 1.462 2.826 3.264 5.092 3.942-.702-.678-1.371-1.429-2.107-2.112.652.415 1.348.764 2.104.963-1.41-.892-2.595-2.197-3.75-3.312-1.166-1.139-2.515-2.364-4.135-3.068zm-18.923-.123c-.925.291-1.025 1.022-1.064 1.775.984-.24 1.083-.995 1.064-1.775zm29.948-.054c.932 1.566 2.644 2.128 4.355 2.125-1.6-1.141-2.638-1.35-4.355-2.125zm2.437-.2c.7 1.608 2.447 2.825 4.243 2.224-1.148-.35-3.121-1.53-4.243-2.224zm-26.186-.183c-.86 2.395-1.018 4.708-.79 7.245.828-2.45.992-4.689.79-7.245zm-26.932-.039c-.915-.042-1.523.603-2.123 1.128 1.168.366 1.872-.413 2.533-1.065a2.036 2.036 0 0 0-.41-.063zm36.793-.54c-.227 1.004.627 1.298 1.29 1.431-.02-.963-.675-1.141-1.29-1.432zm-12.697-.132c-1.114 2.856-2.066 5.25-2.798 8.248 1.279-2.654 2.299-5.288 2.798-8.248zm11.262-.016c.608 1.318 1.978 4.538 2.443 5.891.328-2.261-.655-4.465-2.443-5.89zm-15.689-.002c-1.623 1.342-3.247 2.534-4.259 4.562 1.726-1.249 3.402-2.456 4.259-4.562zm31.28-.459a.563.563 0 0 0-.213.01 1.695 1.695 0 0 0-.362.14c.088.685.492.806 1.011.403-.11-.346-.243-.518-.436-.552zm-47.5-.31c-1.1-.145-1.74.383-2.43 1.066 1.103.305 1.842-.273 2.43-1.065zm50.98-.049c1.892 1.294 3.957 1.635 6.183 1.623-2.042-1.05-3.948-1.335-6.183-1.623zm-27.71-.18c-.869.7-1.145 1.503-1.15 2.582.961-.616 1.281-1.49 1.15-2.582zM2.408 9.023c.547 2.381 1.701 4.6 3.445 6.27 1.21 1.751 2.732 3.206 4.298 4.698-.894-1.335-1.818-2.41-2.768-3.473l.041.028c-.07-.067-.135-.142-.204-.21-.461-.517-.933-1.05-1.41-1.597-1.367-1.728-2.509-3.721-3.402-5.716zm42.537-.21c-.824 1.973.68 3.81 1.432 5.374.196-2.075-1.189-3.655-1.432-5.373zm-17.325-.13c-2.335.762-4.595 1.276-6.692 2.838 2.41-.55 4.768-1.077 6.692-2.838zm-4.156 0c-3.192.604-5.38 2.862-8.063 4.31 3.215-.525 5.45-2.796 8.063-4.31zm-9.091-.344c-1.408.002-2.735.405-4.09.95 2.022.314 3.682-.134 5.53-.812a7.28 7.28 0 0 0-1.44-.138zm66.183-.034c-1.978 3.89-5.288 7.26-9.388 8.886 4.424-1.103 7.898-4.59 9.388-8.886zm-43.358-.226c-1.686.94-2.81 1.818-4.153 3.241 1.83-.465 3.27-1.56 4.153-3.241zm28.066-.055c2.614 1.764 5.332 3.953 8.716 3.75-1.332-.363-7.138-3.305-8.716-3.75zm-39.628-.157c-.528-.014-.948.24-1.31.764.83.3 1.419.1 1.878-.659a2.06 2.06 0 0 0-.568-.105zm26.262-.07c.362 1.65 1.839 2.344 3.152 2.938-.732-1.503-2.009-2.03-3.152-2.938zm11.548-.789a1.311 1.311 0 0 0-.622.2c.564.476 1.08 1.085 2.03.61-.36-.383-.825-.833-1.408-.81zM23.002 6.86c-1.585.839-3.472 1.224-5.137 1.739-1.727.526-3.627 1.141-5.255 2.214.627-.2 4.938-1.277 5.49-1.448 1.674-.512 3.544-1.196 4.902-2.505zm49.259-.357c1.627 1.344 3.603 1.48 5.575 1.417-1.864-1.017-3.588-1.079-5.575-1.417zM64.346 6.5c4.078 1.399 7.928 2.384 12.271 2.537C72.493 7.83 68.714 6.88 64.347 6.5zm-4.345-.09c.327 1.222 1.392 2.133 2.468 2.645 1.193.585 2.135.717 3.407 1.201-.874-.89-2.054-1.437-3.055-1.92-.968-.481-2.075-1.016-2.82-1.927zM10.12 6.313c-.267.04-.496.234-.747.49.59.62 1.11.295 1.468-.256a1.32 1.32 0 0 0-.44-.218.728.728 0 0 0-.281-.016zm20.797-.067c-1.052-.07-2.068.121-2.74 1.117 1.092-.026 1.985-.142 2.74-1.117zm-11.86 0c-2.797-.117-5.31.363-7.963 1.317 2.843.087 5.296-.366 7.963-1.317zm25.063-.105c-1.024.284-1.528 1.138-1.51 2.157.959-.568 1.266-1.11 1.51-2.157zm-4.828-.132c.016.005.014.026-.008.073-.024-.03-.043-.036-.066-.055.031-.012.062-.022.074-.018zm-32.794 0c.536 2.242 1.688 4.274 3.036 6.021 1.354 1.759 3.048 3.416 5.134 4.443-1.892-1.275-3.428-3.002-4.764-4.727-1.312-1.703-2.588-3.612-3.406-5.737zm14.714-.142c-.492-.057-.872.211-1.243.631.77.472 1.313.173 1.773-.456a1.623 1.623 0 0 0-.53-.175zm5.888-.132a14.274 14.274 0 0 0-3.579.56c2.448.334 4.761.463 7.148-.456-1.223-.078-2.396-.148-3.57-.104zm12.289-.278c-.579.116-.541.473-.568.744.083-.03.141-.06.21-.094v.003c-.074.41-.04.807.08 1.38.443-.335.697-.799.707-1.31.147-.094.03-.466-.429-.723zm24.952-.047a20.745 20.745 0 0 0-3.14.173c2.381.735 4.656.868 7.096.306-1.368-.29-2.65-.45-3.956-.479zm-19.895-.005c.112-.002.202.033.228.112.732.717.775 2.033 1.272 3.27.156.406.354.742.559 1.066.481 2.574.993 5.017 1.74 7.484-.099 1.228.175 2.398.63 3.522h-.174a36.7 36.7 0 0 0-.36-1.314c-.519-1.848-1.443-3.819-1.46-5.784-.508 2.01.157 4.19.692 6.005.099.356.221.727.341 1.093h-.65c-.24-1.917-.635-3.817-1.459-5.673.267 1.963.43 3.821.7 5.673h-.747a10.23 10.23 0 0 0-.382-1.08c-.032.38-.04.73-.047 1.08h-1.065c.074-3.109-.347-5.76-.18-9.176-.968 3.054-.754 6.112-.356 9.176h-.587a14.035 14.035 0 0 0-.203-1.65 15.03 15.03 0 0 0-.365 1.65h-1.456c.341-1.313.41-2.697.272-4.09-.539 1.577-.807 2.822-1.052 4.09h-.376c.12-.349.233-.82.325-1.724A9.394 9.394 0 0 0 39.1 20.86h-.48c.166-.396.338-.792.508-1.18.436-.998.881-1.996 1.281-3.033.255-.648.575-1.37.656-2.135.05-.496.004-.964-.017-1.453-.106.479-.172.95-.311 1.385-.205.66-.615 1.268-.948 1.924-.505.982-.981 1.975-1.38 3.016a15.61 15.61 0 0 0-.473 1.476h-.448c.116-.44.257-.878.453-1.296-.155.136-.279.298-.412.454.532-.935 1.127-1.839 1.516-2.934.625-1.777 1.504-4.538 2.135-6.317.412-1.157.838-2.337 1.382-3.459.179-.366.374-.725.606-1.062.285-.296.581-.559.91-.744a.872.872 0 0 1 .368-.098zm-31.474-.279a17.112 17.112 0 0 0-4.006.612c2.782.299 5.268.336 8.014-.407-1.364-.168-2.687-.254-4.008-.205zm6.552-.063c-.728.044-1.436.243-2.188.52 1.397.567 2.665.327 3.953-.3a4.954 4.954 0 0 0-1.028-.209 4.707 4.707 0 0 0-.737-.01zm4.622-.245a4.878 4.878 0 0 0-1.74.31c1.107.59 2.37.75 3.443-.102-.621-.115-1.159-.204-1.703-.208zm48.946-.08c-.938.141-1.879.253-2.795.104a98.384 98.384 0 0 1 2.795-.104zM39.89 4.687c.332-.023.6.35.652.69.19.847-.529 1.78-1.013 2.827-.479.956-1.167 2.075-1.281 3.24.128-.322.304-.628.494-.926-1.385 2.708-2.352 5.484-3.44 8.296.335-.892.634-1.815.672-2.766-.325 1.367-1.109 2.595-1.734 3.831a6.267 6.267 0 0 0-.359.981h-.743c.1-.314.196-.63.252-.96-.217.335-.444.647-.67.96h-1.402c.444-.656.803-1.38 1.112-2.132-.897.608-1.5 1.342-2.034 2.132h-1.883c1.533-1.22 2.679-2.78 3.51-4.616-1.687 1.503-2.857 2.928-4.137 4.616H24.05c-.682-.438-1.342-.933-1.881-1.574.24.417.535.802.86 1.158a10.878 10.878 0 0 1-1.099-.8c-.344-.312-.682-.649-.877-1.008-.036-.3-.001-.624.061-.905.1-.37.236-.728.415-1.037a8.978 8.978 0 0 1 1.039-.927c-.05.02-.1.05-.151.07.963-.63 2.164-.997 3.273-1.614a23.514 23.514 0 0 0 3.26-2.199c3.042-1.797 5.735-3.486 8.475-5.569.508-.39.825-.867 1.219-1.276.084-.088.176-.17.276-.245.329-.152.661-.266.972-.247zm9.704-.03c.244-.007.498.058.752.151.992.74 1.72 1.844 2.488 2.764.763.954 1.711 2.036 2.903 2.638 1.272 1.338 2.995 2.294 4.748 3.052.453.486 1.01.892 1.539 1.24.945.632 1.961 1.176 2.88 1.737.818.51 1.652 1.023 2.166 1.77.307.415.432.978.415 1.569-.137-.74-.717-1.452-1.27-1.866-.835-.689-1.76-1.053-2.777-1.46.687.826 1.558 1.491 2.268 2.078.61.56 1.46 1.121 1.643 1.958-.245.22-.545.402-.853.572h-2.048c-1.971-1.964-2.315-1.48-4.375-3.385.6 1.917 2.375 2.852 4.15 3.385h-2.629c-.572-.897-1.392-1.498-2.166-2.233.104.979.617 1.67 1.265 2.233h-1c-.779-1.142-1.584-2.374-2.055-3.304-.034 1.236.394 2.375 1.11 3.304h-.402c-.188-.205-.413-.373-.637-.718-.215.264-.263.502-.224.718h-.539c-.841-1.625-1.589-3.497-2.177-5.096-.08 1.818.372 3.647 1.4 5.096h-.427c-.57-.98-1.094-2.048-1.33-2.942-.314 1.03-.103 2.076.422 2.942h-.518a34.092 34.092 0 0 1-.644-2.385c-.431-1.9-.858-4.16-2.132-5.875.77 1.862.905 4.148 1.353 6.055.16.721.395 1.477.699 2.205H52.28c-.312-1.229-.554-2.496-.808-3.788-.11-.558-.222-1.149-.347-1.74-.213-2.54-.977-4.884-1.735-7.385-.002.135.004.264.004.399-.077-.359-.169-.73-.234-1.079-.09-.481-.17-.957-.186-1.427 0-.34-.012-.66.12-.896.058-.16.275-.278.5-.286zm-15.934-.27c-.292.053-.531.288-.712.49.634.245.916.183.838.267.015-.017.091-.276-.265.532.42.03 1.132-.02.917-.986a1.132 1.132 0 0 0-.469-.29.682.682 0 0 0-.31-.013zm54.088-.161c-1.752 2.896-2.264 5.318-3.802 8.25 1.972-2.42 2.751-5.352 3.802-8.25zm-7.388-.01c.354 1.087.269 2.56.073 3.74.792-1.1.917-2.708-.073-3.74zm-24.823-.042c.559 1.714 2.19 2.43 3.747 2.836-1.16-1.448-2.37-1.84-3.747-2.836zm29.128-.45c-.959 2.183-2.02 4.76-3.373 6.674 1.956-1.694 2.92-4.143 3.373-6.675zm-47.59-.004c-.447.27-.858.54-1.243.81-.004-.01 0-.02-.006-.028.004.01-.004.02 0 .03a13.354 13.354 0 0 0-2.073 1.806c-.23.125-.464.245-.688.408-.692.505-1.42 1.008-2.132 1.513.453-.384.89-.807 1.299-1.3-2.244 1.141-4.599 2.177-6.19 4.363 1.043-.628 2.088-1.17 3.086-1.782-2.388 1.64-4.883 3.216-7.456 4.635-1.098.561-2.043 1.123-3.12 1.595-.591.254-1.2.49-1.818.52a2.42 2.42 0 0 1-1.036-.176c-.154-.12-.309-.247-.466-.376l-.031-.028c.179.088.367.162.56.202.47.098.937.083 1.401.027.211.033.418.081.635.093-.09-.04-.183-.092-.273-.136a8.376 8.376 0 0 0 1.538-.462c2.038-.79 3.718-2.064 5.464-3.456-2.084.928-3.79 1.928-5.754 2.71-.744.288-1.5.582-2.254.67-1.962-1.163-3.832-2.902-5.352-4.59.042.098.095.192.139.291-.43-.628-.86-1.265-1.497-2.139-.496-.682-1.032-1.38-1.459-2.112-.232-.474-.613-.972-.377-1.442-.402.378-.238 1.141-.05 1.633.062.195.135.385.214.572a5.6 5.6 0 0 1-.422-1.063c-.102-.408-.161-.86.063-1.186a.841.841 0 0 1 .2-.219c.02-.015.037-.033.057-.048.066-.047.142-.085.219-.121a.957.957 0 0 1 .357-.104c.912-.103 3.976-.287 4.898-.386a90.5 90.5 0 0 0 2.865-.362c.31-.043.627-.095.945-.138 5.643.234 10.918.42 16.498.244.768-.024 1.628.076 2.468-.096.297-.069.509-.228.698-.336.034-.012.062-.022.094-.036zm.16-.052c.031-.008.049.004.07.011-.032.012-.07.023-.099.036.01-.016.02-.03.028-.047zm51.445-.016c-1.766 3.78-3.348 8.06-5.739 11.407 3.004-3.144 4.465-7.253 5.739-11.407zm-51.503-.344a.71.71 0 0 0-.364.102c-.244.102-.435.234-.601.242-.754.098-1.558-.065-2.396-.086-5.423-.152-10.888-.174-16.508.161-.323-.028-.644-.04-.954-.055a30.55 30.55 0 0 0-2.904.011c-1.617.079-3.301.203-4.937.66-.899.281-1.292 1.156-1.39 1.968.045-.116.107-.224.163-.336-.02.21-.013.421.024.62.254 1.568 1.202 2.932 2.099 4.12a25.728 25.728 0 0 0 3.761 4.036c.558.485 1.144.956 1.771 1.376.379.259.8.541 1.284.67.11.023.213.027.312.02.057.013.11.035.17.043.754.107 1.51-.074 2.163-.358.786-.339 1.456-.81 2.083-1.352 4.579-1.966 8.7-4.808 12.384-8.063.11-.097.237-.176.356-.263.995-.425 1.873-1.016 2.584-1.81-.003.02-.01.03-.013.05.697-.113 1.193-.492 1.35-1.157a.423.423 0 0 0 .047-.241c.005-.046.023-.078.024-.126-.021.007-.036.015-.057.022-.012-.038-.016-.072-.036-.11a.657.657 0 0 0-.415-.144zm16.748-.278c.888.065 1.784.25 2.688.426.955.191 1.933.391 2.924.574 2.383 1.04 5.197.865 7.75.948-.095-.035-.207-.062-.307-.094 1.04.04 2.08.014 3.12-.034.318.153.653.268 1 .344-.923-.019-1.835.128-2.707.596 2.487-.236 4.77.897 7.51.302-1.066-.212-2.217-.548-3.38-.745.723.019 1.446-.025 2.1-.064.842-.032 1.695-.09 2.5-.035.874.25 1.72.542 2.182 1.11.02.158.044.317.039.484-.031.462-.143.934-.276 1.41a6.04 6.04 0 0 0 .532-1.173l.005.092a14.613 14.613 0 0 1-1.308 2.73c-.86 1.075-1.69 2.117-2.612 2.994-1.18.91-2.415 1.741-3.679 2.179-.256.081-.51.164-.777.221a4.995 4.995 0 0 1-.624.092c-.553.067-1.12-.043-1.672-.268.059-.003.119.008.177 0-.138-.017-.268-.06-.398-.097-.776-.367-1.512-.972-2.131-1.714 1.161.667 2.507 1.114 3.847.9-1.671-.244-3.106-1.286-4.415-2.228-1.305-.96-2.792-2.125-4.503-2.64 1.222.812 2.886 2.451 4.032 3.286.248.185.526.354.799.524.127.286.27.564.441.828-.945-.63-1.862-1.327-2.756-2.014-.845-.65-1.714-1.337-2.565-2.028a14.648 14.648 0 0 0-1.533-1.286c-.292-.262-.58-.528-.842-.823.067.127.144.247.219.37-1.183-.826-2.401-1.587-3.465-2.602.141.283.31.537.481.79-.693-.477-1.396-.953-2.05-1.435-.363-.27-.722-.538-1.034-.839-.19-.219-.396-.372-.403-.532-.093-.02.063-.117.222-.205.453-.168.997-.168 1.549-.18a9.336 9.336 0 0 0-.68-.164zm.533-.706a7.655 7.655 0 0 0-.801.006c-.36.016-.76.073-1.13.257a1.007 1.007 0 0 0-.566.753c.053.314.216.411.29.4.023.015.046.027.07.043.065.333.25.604.419.784.316.387.682.713 1.052 1.007.905.722 1.902 1.304 2.958 1.786.186.086.384.151.576.23 1.019 1.008 2.255 1.777 3.484 2.526a20.778 20.778 0 0 0 2.73 2.484c.958.73 1.996 1.395 3.122 1.91.244.114.519.214.788.317.834.865 1.939 1.432 3.222 1.356.194-.017.38-.057.565-.096.89.115 1.824-.07 2.639-.461 1.158-.55 2.136-1.407 2.945-2.359a13.796 13.796 0 0 0 1.796-2.701c.792-.707 1.448-1.546 1.721-2.638.175-.706-.005-1.502-.561-2.024-.032-.025-.068-.037-.1-.062a1.242 1.242 0 0 0-.364-.583c-1.392-1.017-3.213-.928-4.756-.724-.04.004-.083.013-.124.019-3.497-.872-6.98-.234-10.484-.328-1.69-.274-3.461-.508-4.904-.874a27.179 27.179 0 0 0-1.284-.4l.005.006c-.328-.094-.653-.194-.986-.27-.746-.177-1.524-.328-2.322-.364zm-13.752-.036c-.476.622.011 1.298.5 1.64-.001-.82-.296-.973-.5-1.64zm48.156-.162a2.4 2.4 0 0 1 .766.112c.086.03.144.056.218.084-2.574 7.79-6.057 15.441-12.142 21.49a3.465 3.465 0 0 0-.038-.712 36.663 36.663 0 0 0 4.918-6.538 62.678 62.678 0 0 1-5.063 6.046 2.265 2.265 0 0 0-.45-.716c.093-.088.19-.17.28-.26-.046.076-.1.16-.147.236.105-.132.202-.27.306-.404a24.681 24.681 0 0 0 2.435-2.89c-.175.184-.37.352-.55.532a9.76 9.76 0 0 0 .751-1.162c1.926-2.748 3.608-5.657 4.662-8.914-.84 1.821-1.894 3.65-2.998 5.47a203.536 203.536 0 0 1-2.26 3.642 15.661 15.661 0 0 1-1.485 1.422A38.76 38.76 0 0 0 81.81 14.5c1.898-3.06 3.436-6.377 4.76-9.797-.122.22-.253.45-.377.67.327-.933.54-1.908.63-2.92.298.014.546-.069.727-.138.198-.078.342-.128.416-.135.311-.032.615-.056.896-.053zm-37.781-.35c-.797.7-1.6 1.351-2.45 1.806-.811.433-1.837.71-2.842.484.939.525 2.13.43 3.063-.072.941-.506 1.66-1.3 2.229-2.219zm8.62-.004c2.443 1.283 5.27 1.612 7.899 1.648 2.11.032 5.938-.213 8.161-.142-2.71-.395-5.543-.287-8.153-.324-2.584-.039-5.371-.187-7.907-1.182zm-17.145-.034c.213 1.348 1.737 1.296 2.621 1.008-1.128-.903-1.555-.518-2.621-1.008zm-.407-.276c-1.844.83.076 2.862 1.104 2.602-.719-.5-1.344-1.845-1.104-2.602zm6.53-.294c-.26.238-.489.522-.66.846.098-.019.163-.044.253-.064a7.001 7.001 0 0 0-2.016.9c.001-.035.016-.056.016-.094-.542.446-1.982.48-2.912.298.045.078.124.153.197.23-.235-.024-.484-.069-.695-.22-.048.571.54 1.022 1.071 1.05.404.033.692-.072 1.008-.194.464.051.89-.078 1.13-.45.307-.004.6-.064.877-.172-.098.101-.196.18-.294.297 1.334-.115 2.552-.676 3.232-1.94-.642.204-1.192.4-1.696.672.115-.145.242-.28.334-.443.62-.168 1.113-.42 1.584-.71l.221.028a.352.352 0 0 0 .039.002S70.126 2.382 77.586 2.52c-3.546-.01-7.258.03-10.429-.317 5.193 1.18 10.364.752 15.632.43a76.86 76.86 0 0 0-3.072-.086c2.55-.032 3.733-.242 4.393-.419l.187-.05c.456.154.857.334 1.081.657.139.15.15.425.112.694-.017.1-.061.202-.089.303-.07.24-.16.473-.239.71-.069.167-.137.33-.212.503.026-.026.044-.054.068-.08-1.778 5.047-5.332 9.527-8.101 14.207 3.296-4.452 7.021-8.981 8.323-14.473.266-.319.505-.658.641-1.07a1.188 1.188 0 0 0-.136-1.08c-.22-.262-.484-.409-.763-.517.207-.005.462.024.954.125-.016-.004.049.027.174.118.108.078.286.196.534.252-.838 2.11-3.054 6.77-3.724 8.466.154-.186.301-.382.45-.573-2.177 3.745-4.505 7.476-7.112 10.781-.045.04-.097.092-.145.138-.345-.143-.75-.234-1.19-.294.407-.57.758-1.185.991-1.873-.274.356-.908 1.108-1.513 1.833-.21-.013-.392-.044-.621-.044h-.667c3.656-2.792 6.29-6.589 8.752-10.536-2.824 3.502-5.653 7.451-8.921 10.536h-4.767c.39-.365.755-.758 1.016-1.233.177-.312.307-.701.203-1.065-.119-.376-.468-.588-.812-.704.321.168.62.424.661.737.056.305-.11.613-.29.888-.209.31-.466.579-.74.836.338-.475.522-1.068.413-1.696-.212-1.05-1.007-1.821-1.963-2.156.117.143.221.29.325.437-.482-.549-1.076-.988-1.666-1.345-.982-.608-1.998-1.063-3.019-1.552-.15-.073-.301-.156-.453-.23-2.383-1.815-5.299-3.363-7.123-5.57-.595-1.092-1.463-1.937-2.61-2.544-.545-.481-1.146-.901-1.833-1.117a2.141 2.141 0 0 0-.656-.27 1.03 1.03 0 0 0-.995.372c-.26.367-.34.806-.355 1.182-.038.538.014 1.07.098 1.574.222 1.351.664 2.642 1.255 3.894.281 1.712.772 3.361 1.295 5.062.004.256-.002.511.013.78.064 1.26.227 2.5.53 3.72h-.937c-.601-1.3-1.253-2.629-1.366-4.017-.103 1.376.374 2.74.896 4.017h-.607a15.338 15.338 0 0 0-.321-1.744c-.443-3.004-1.042-5.906-2.058-8.778-.202-.634-.44-1.294-.533-1.73-.233-1.15-.299-2.618-1.357-3.625a1.19 1.19 0 0 0-.771-.243 1.167 1.167 0 0 0-.687.272c-.656.548-1.01 1.266-1.338 2-.032.048-.068.096-.099.146-.688 1.073-1.235 2.23-1.724 3.37-.89 2.07-1.581 4.198-2.243 6.318-.386 1.264-1.132 2.305-1.642 3.678-.042.11-.075.224-.11.336h-1.797c.007-.046.016-.093.019-.14 2.364-3.697 3.54-7.765 5.098-11.857.074-.107.16-.21.23-.32.609-.883 1.406-1.993 1.166-3.315-.148-.66-.728-1.176-1.433-1.146-.643.084-1.163.434-1.577.838-.151.144-.279.312-.42.47-.252.218-.499.425-.763.574a51.201 51.201 0 0 0-5.91 4.055c.109-.11.226-.21.335-.323-2.056 1.403-4.142 2.71-6.214 3.826-1.146.613-2.584 1.077-3.664 2.094a2.76 2.76 0 0 0-.659 1.075c-.36.332-.637.745-.737 1.292-.088.956.521 1.775 1.172 2.276.278.23.57.423.868.601h-.782c-.225-.189-.456-.376-.653-.585-.783-.83-1.365-2.016-1.303-3.287-.364 1.263.075 2.658.962 3.607.09.097.196.179.296.265h-4.734c-2.946-2.553-6.128-5.358-8.573-8.398 2.073 3.506 5.085 6.185 8.47 8.398h-1.009a90.198 90.198 0 0 1-4.198-3.35c.748.541 1.53 1.033 2.325 1.473-2.95-2.31-6.09-5.01-7.307-8.527.096.54.25 1.054.438 1.551-1.324-2.196-2.431-4.516-3.214-6.912.899 6.1 4.491 11.499 9.627 14.896a38.29 38.29 0 0 1-3.09-3.3 48.435 48.435 0 0 0 4.257 4.17h-2.886c-.193 0-.346.029-.525.04C2.042 13.475 1.182 5.298 1.121 4.52c.48-.314.883-.518 1.125-.522.298-.005.6.13 1.104.18a.593.593 0 0 0 .138-.005c.652-.108.98-.33 1.42-.39.602-.086 1.514-.034 2.298-.124 10.634-1.214 22.48-.604 33.667-1.838.34-.038.607-.167.839-.268.217-.096.39-.159.497-.178l1.43.172a.53.53 0 0 0 .245-.026c1.241-.447 2.672-.256 4.13-.263a.436.436 0 0 0 .072-.005l.595-.086zm.634-1.166c-.013.001-.027.002-.039.005l-1.297.184c-1.281.003-2.772-.176-4.257.295L42.242.303a.525.525 0 0 0-.129 0c-.336.043-.601.172-.83.273-.231.102-.427.175-.527.186-11.067 1.221-22.908.61-33.67 1.838-.625.072-1.542.015-2.328.126-.637.09-.97.298-1.382.38-.29-.043-.628-.183-1.148-.175-.556.01-1.206.239-2.019.867a.533.533 0 0 0-.208.456s.608 8.834 9.036 16.822c-.2.056-.39.124-.565.204-.639.291-1.108.78-1.326 1.38-.436 1.198-.024 2.64.711 4.364 9.07 21.304 13.97 41.648 14.865 66.704.222 6.215-3.582 11.54-7.62 17.664-1.022 1.509-1.128 3.198-.42 4.495.708 1.296 2.198 2.15 4.098 2.15h47.134c1.9 0 3.388-.854 4.096-2.15.71-1.297.604-2.986-.418-4.495-4.038-6.125-7.842-11.449-7.62-17.664.894-25.056 5.793-45.4 14.865-66.704.257-.605.453-1.165.61-1.702l.054.182c6.928-6.417 10.73-14.776 13.468-23.125a.79.79 0 0 0-.115-.659.933.933 0 0 0-.344-.278c-.217-.116-.426-.172-.53-.21-.742-.258-1.487-.18-2.12-.116-.306.031-.53.14-.695.203-.167.064-.26.083-.3.079.03.002-.016-.006-.13-.09-.114-.082-.289-.236-.583-.296-1.234-.256-1.654-.093-2.318.086-.665.178-1.809.413-5.034.393C72.366 1.45 50.525.147 50.469.144l-.01-.002-1.04-.136c-.034-.006-.07-.007-.105-.006v.002" fill="#100f0d"/></svg>