<svg xmlns="http://www.w3.org/2000/svg" width="240.7" height="303.2" viewBox="0 0 240.7 303.2"><style>.st0{fill:#fff}</style><path d="M203.6 274.5c-5.4 4.3-10.8 8.8-16.4 13-6.6 5-14.2 7.9-21.8 11-9.5 3.8-19.4 4.6-29.4 4.7-8.1.1-16.1-.6-23.9-2.7-.3-.1-.7-.1-1.1-.2-7.6-3-15.3-5.9-22.9-8.9-2.6-1-5.2-2.2-7.7-3.5-4.5-2.4-9-5-13.4-7.5-9.5-5.4-18.5-11.7-26.6-19.2-2.7-2.5-5.7-4.8-8.5-7.3-2.7-2.4-5.1-5.1-6.9-8.3-2.1-3.6-4.5-7.1-7.2-10.3-5.2-6.3-9.1-13.3-11.5-21.1-4-13-6.7-26.3-6.4-40 .1-5.8 1-11.5 2.4-17.1 3-12.2 8.1-23.6 13.8-34.8 3.4-6.5 7-12.9 11.9-18.4 4.8-5.4 9.7-10.6 15.2-15.4 7-6.1 13.3-12.9 20.1-19.2 3.5-3.3 7.4-6.1 11-9.3 7.7-6.8 16.8-11.6 24.8-18s16-12.7 22.8-20.4c4-4.6 8.5-8.8 12.8-13.2 3.9-4.1 9.1-5.7 14.4-7 4.9-1.2 9.7-1.7 14.5.4 1.1.5 2.9.1 4.1-.5C172-1 176 .6 179.8 2.4c2.5 1.2 3.6 3.9 4.4 6.4.7 2 1.9 3.3 3.7 4.2 5.2 2.7 8.7 6.9 11 12.3 1.8 4.2 4.1 8.1 6.4 12.1 4.6 8 7.8 16.5 10.8 25.2 2.2 6.4 4.6 12.6 7 18.9 3.9 10.4 7.2 20.9 9.2 31.9.3 1.4.7 2.8 1 4.2 1.6 6.3 3 12.6 4.8 18.9 2.1 7.7 2.3 15.7 2.4 23.6.2 9.5.1 18.9-.5 28.4-.4 6.1-1.9 12.1-3.1 18.1-2.3 11.3-6.3 22-11.1 32.4-3.6 7.7-6.9 15.6-12 22.6-1.6 2.1-2.6 4.7-4.2 6.7-1.9 2.3-4.3 4.2-6.4 6.3.2-.3.3-.2.4-.1zM35.8 254c.2 0 .5 0 .7.1l5.4 4.8c1.7 1.5 3.3 3.1 5.4 5.1-.4-2.3-.6-3.8-.9-5.4-3.1.5-2.8-1.8-2.9-4-.6 1-1 1.6-1.5 2.3-2.3-1.4-.7-3.5-1.5-5.1-2-1.2-4.1-2.5-6.2-3.6-2.1-1.1-3.6-3.5-7-3.7 2.6 4 5.6 6.7 8.5 9.5zM152 269.8c.1 2.5.1 5 .2 7.5.1 2.6-.7 5.7.4 7.8 1.4 2.7-.8 4.8-.2 7.1.2.6.2 1.2.3 1.7l.9 4.2c.1.3.3.6.4 1.1.8-.3 1.6-.5 2.4-.7 0-3.6-.1-7.1-.1-10.6 0-3.9.3-7.9.1-11.8-.1-2.1-1-4.1-1.5-6.2.5-.7 1-1.5 1.4-2.2.2 0 .5.1.7.1.3 1.2.7 2.5.8 3.7.2 5.4.4 10.8.5 16.2 0 3.3.2 6.6 1.4 10.2 1.6-.7 3-1.3 4.1-1.8-.3-2.7-.7-5.2-.9-7.7-.1-2.4.1-4.8 0-7.2-.1-2.5-.4-5-.3-7.6 0-2.3-1.4-4.7.2-7.1.7.7 1.3 1.5 1.3 2.4.3 2.8.3 5.5.5 8.3.2 2.9-.2 6 .8 8.5.7 1.9 1.1 3.5 1.1 5.4 0 1.3.1 2.5.2 3.8 2.9-.4 3.6-2.1 3.5-4.4-.3-6.5-.5-13-.7-19.5-.1-1.4-.1-2.7-.1-4.2 2.1.1 1.9 1.4 1.9 2.4.3 5.6.5 11.3.8 16.9.1 2 .4 3.9.6 5.9 2.6-.4 3.6-1.3 3.5-3.7-.4-7.1.1-14.2-1.2-21.2-.1-.6.1-1.3.3-2.4.8.7 1.4.9 1.6 1.4.4 1.4.8 2.8.9 4.2.2 4.8.3 9.6.5 14.4.1 1.4.4 2.7.7 4.8 4-2.6 7.4-4.9 10.9-7.2-.4-1-.9-1.6-.9-2.3-.5-5.4-.9-10.8-1.2-16.2 0-.5.6-1 1.3-1.9 2.6 6.1.5 12.4 2.6 18.1 3.3-1.6 3.3-1.6 3.1-4.6-.3-4.7-.6-9.4-.9-14-.1-.9.1-1.7.1-2.8 2.1.7 2 2.2 2 3.3.2 3 .3 6 .4 9 .1 1.5-.3 3.2 1.4 4.2 3.1-3 6.1-5.9 9-8.7-1.3-2.9-2-14.2-1.2-19.3.6.5 1.4.8 1.5 1.2.4 1.1.5 2.4.6 3.5.3 3.1.6 6.3 1 9.7 2.1-1 2.6-2.1 2.5-4-.4-5.5-.4-11.1-.5-16.6 0-.6.5-1.2 1.1-2.4 2.4 5.7.7 11.1 2.1 16.1.6-.7 1.2-1.4 1.2-2.1.1-3.7 0-7.4 0-11.2 0-2-.2-4.1-.3-6.1 0-.9 0-1.8 1.6-1.5 2.1 4.5.2 9.7 1.6 14.8 1.7-3.4 3.2-6.4 4.6-9.4.4-.9.7-2.1.6-3.1-.7-5.4-1.5-10.7-2.3-16-.1-.7.2-1.4.5-2.8 1.9 2.8 1.8 5.4 2.2 7.8.5 2.5.1 5.2 1.4 7.8 1.3-1.5 1.5-2.7 1.1-4.2-.4-1.4-.7-2.8-.7-4.3 0-5.1-.4-10.1-2.1-14.9-.1-.2.1-.5.2-.8 1.5-.2 2.1-1.1 1.9-2.7-.2-1.3-.2-2.6-.3-4v.1l1-4c1.1.8 1.8 1.1 2.1 1.6 2.7 3.9 2.7 8.6 3.9 13.3 1.5-1.9 1.3-3.6 1.2-5.4-.4-5.2-1.3-10.3-3.9-14.9-1-1.8-1.8-3.6-2.6-5.5-.2-.5-.3-1.6 0-1.9.9-.8 1.5.1 2 .8.3.5.6 1 .9 1.6 1.6 3.1 3.2 6.3 5 9.9-.1-4.2-.8-7.7-2.4-10.9-1.6-3.1-3.4-6.1-5.1-9.1-.5-.9-1.6-1.7-.3-2.9 2.4 2 5.4 3.4 6.3 6.8.7 2.6 1.6 5 2.5 7.5.3.9.7 1.8 1.3 3.4.2-1.3.4-1.6.3-1.9-1-9.4-4.3-18.1-9-26.3-.5-.8-1.5-1.6-.5-2.5 1.1-.9 2.1-.2 2.6.9 1 1.9 2.1 3.8 2.9 5.8 1.7 4.3 3.1 8.6 4.7 13-.4-11-4.4-20.7-10.8-29.6 1.7-1.4 2.8-.3 3.5.9 1.8 2.8 3.5 5.7 5.1 8.7.8 1.4 1.2 3 1.8 4.5.3-.1.6-.2.9-.4-.7-9.4-5.9-17-11.2-24.6 2.6-.4 2.9-.1 5.8 4.3 1.4 2.1 2.7 4.2 4.2 6.5-.1-.5-.1-.9-.2-1.2-1.6-6-4.6-11.3-8.5-16.2-.9-1.1-1.9-2.1-.8-4.3 3.5 3 5.6 6.9 8.5 10.1-.5-2.1-.9-4.3-2.1-6-2.4-3.6-5.1-6.9-7.8-10.3-.6-.8-1.4-1.4-.4-2.8 3.6 1.2 5.1 4.8 7.8 7.1-.4-2-.9-4.1-2-5.7-4-5.7-8.2-11.3-12.2-16.9-.3-.5-.3-1.2-.5-2 .7 0 1.2-.2 1.3 0 3.3 3.9 6.6 7.9 9.9 11.9-.2-2.4-.5-4.7-1.8-6.8-2.1-3.2-4.3-6.4-6.7-9.4-2.1-2.6-4.6-4.8-6.8-7.3-.4-.5-.3-1.4-.4-2.2.7 0 1.5-.2 1.9.1 1.6 1.3 3.1 2.6 4.4 4.2 2 2.4 3.9 5 5.8 7.5-2.2-8.9-8-15.3-13.5-21.2H209c2.3 2.2 4.3 4.8 4.1 8.3-.2.1-.5.3-.7.4-1-1.3-2.1-2.7-3.2-4.1-1 1.6.1 2.2.9 3.2 1.3 1.6 3.3 2.9 2.3 5.8-1-.6-1.9-1.2-2.8-1.7 1.1 3.2 4.7 5.1 3.4 9.5-1.2-1.2-2-2.1-2.8-2.9-.2.1-.4.3-.6.4l1.2 1.8c1.4 2.1 2.7 4.2 4 6.3.2.3-.3 1-.4 1.5-.5-.2-1.2-.2-1.5-.5-.7-.8-1.2-1.7-1.8-2.5-.2.1-.5.2-.7.3.4 1.2.6 2.4 1.1 3.5.8 1.5 1.8 2.8 2.7 4.3.5.9 1.3 1.9-.2 2.9-.9-.7-1.8-1.5-3-2.4.3 3.2 3.6 4.9 2.7 8.5-1.1-.6-1.9-1.1-3-1.7.1 3.6 3.4 6.2 3.1 10.6-1.4-1.4-2.3-2.4-3.5-3.7.1 4.3 3.8 6.5 4.2 10.1-2.3 1.3-2.1-2-4-1.8-.1 3.6 3.9 5.5 4.2 9.2-2.4.3-2.9-2.2-4.5-2.7-1.1 4 2.8 5.9 3.8 9.7-1.7-.6-2.9-1.1-4.1-1.5.3 3.2 3.8 4.7 3.7 7.7-.3.2-.5.4-.8.6-1.1-.9-2.3-1.8-3.4-2.7 1.2 3.4 3.5 6.3 4.2 10.2-3.8 0-2.9-4.2-5.3-5-1 1.3.2 2 .7 2.9 1.4 2.1 2.8 4.2 4 6.4.3.5 0 1.4 0 2.1-.2.1-.5.1-.7.2-1.5-2.1-3-4.2-4.9-6.8-.4 1.7-.8 3-1 4 2.7 3 4.3 6.1 5.3 10-2 0-2.3-1.4-3-2.3-.7-.9-1.2-1.9-1.8-2.9-.6 3.3 3 5.3 2.1 9.4-1.3-1.5-2.2-2.6-3.2-3.8-1.1 1.8-.9 3.3.1 4.9 1 1.5 1.7 3.2 2.3 4.9.2.5-.1 1.2-.2 1.8-.2.1-.5.2-.7.2-.9-1.4-1.9-2.8-3-4.3-1.3 1.8-1.5 3.2-.3 4.8.8 1.1 1.4 2.5 1.9 3.9.2.5-.2 1.2-.4 2.2-1.3-1.3-2.2-2.3-3.2-3.3-1.8 1.6-1.2 3.1-.5 4.7 1 2.2 1.7 4.6 1.6 7-.2.1-.5.2-.7.3-1-1.7-2-3.5-3.2-5.5-1.1 2.5.4 4.2.6 6 .2 1.7 1.8 3.4-.2 5.6-.9-1.8-1.6-3.4-2.4-4.9-2 1.6-1.8 3.2-1.2 5.1.7 2.2 1.6 4.4 1.5 7.4-2.6-1.7-2.4-4.5-4-6.3-2.3 2-.6 4-.4 5.8.3 1.9 1 3.8 1.7 6.4-3.5-1.6-2.6-5.1-4.4-6.7-1.5.8-1.8 2-1.4 3.5.4 1.6.9 3.3 1.2 4.9.2 1 .2 1.9.3 3.4-3.2-1.5-2-4.7-3.9-6.3-1.5.6-1.6 1.8-1.3 3.3.4 1.8.8 3.5 1.1 5.3.1.7-.2 1.4-.3 2.1-.3 0-.6.1-.8.1-.8-2-1.5-4.1-2.3-6.2-2.2 1-2.8 2.3-2 4.4.4 1.1 1.4 2.4-.2 4-.9-1.3-1.7-2.5-2.5-3.7-4.2 1.3-.8 4.8-1.8 6.9-.4 0-.6.1-.6 0-.8-.8-1.6-1.6-2.5-2.6-1.1 1-2.2 2.1-3.3 3.2-.6 1.6 1.5 3.2-.3 5.3-.8-1.4-1.5-2.5-2.1-3.6-1.6.4-1.4 1.5-1.3 2.6.1 1 .2 2 .2 3-2 .4-2-2.7-4.1-1.4-.1.8-.1 1.7-.2 2.5-1.3-.2-2.6-.9-3.3-.5-4.6 2.5-9.2 5.2-13.7 7.9-8.1 4.9-16.8 8.3-26.2 9.8-2.1.3-4.2.7-6.3 1 .8 6.7.9 13.2.5 19.7-2.4-2.9-1.4-6.3-1.8-9.5-.4-3.4-.3-6.9-1.4-10.1-1.7-.3-1.7.8-1.6 1.8.1 3.5.2 7 .2 10.5 0 .7-.4 1.4-.6 2.1-.2 0-.5 0-.7-.1-.1-.9-.3-1.7-.4-2.6-.2-3.4-.4-6.7-.6-10.1-.1-1.2-.4-2.2-2.4-1.5 0 3.7.1 7.6.1 11.5-.7-.2-1-.1-1.1-.3-1.9-3.7-.4-7.8-1.4-11.9-1.4-.1-2.8-.3-4.5-.4.2 1.6.3 2.9.4 4.2.1 1.2.9 2.5-.7 3.8-2-2.6-1-6.3-3.4-8.7-2.2 2.4 1.1 5.6-1.6 7.7-2.1-2.6-.3-6.1-3-8.2-.3 1.5-.2 2.8-.1 4.2.1 1.2-.6 1.4-1.5 1.5-1.1-2 0-4.7-1.9-6.6-1.6 1.4 1.1 3.8-1.8 4.9-.4-1.8-.8-3.5-1.2-5.2 0-.1-.2-.1-.4-.2-.4.7-.7 1.5-1.5 2.9-.8-1.9-1.3-3.2-1.9-4.5-4.6-1.5-9.3-3-14-4.5 2.2 4.3 5 7.9 8.5 10.9 5.7 4.8 11.1 9.9 16.6 14.9 5.2 4.8 11.4 7.9 17.8 10.6 3.1 1.3 6.3 3.1 10 .3.6 3 2.7 3.4 4.8 3.5 6 .2 12 .4 18 .4 3.3 0 6.6-.4 9.8-.7-.1-4.2-.2-7.9-.3-11.6-.1-3.7-.3-7.4-.3-11.2.1-3.6-1.1-7.2-.6-11.1 2.8.5 2.2 2.4 2.9 3.5zm-47-11c1 2.8 1.8 5.2 2.6 7.6 2.4-.1 4.4-.2 6.3-.3.7-2.6-1.3-5.2 1.6-7.1.6 2.4 1 4.4 1.6 6.7 2.1-.3 3.8-.6 5.4-.9.6-2.5-1.3-4.7.3-6.8.4.1.7.1.8.3.3.4.5.8.6 1.2 1.4 5.2 1.4 5.2 6.1 2.7.2-.1.3-.4.3-.5.6-2.1-1.7-4.1.3-6.8 1 2.2 1.7 3.9 2.5 5.6 2.1-1.1 3.9-2.1 5.6-3 .2-2.1-2-3.6-.6-6.2 1.2 1.8 2.2 3.4 3.3 5.1 1.9-1.2 3.6-2.2 5-3.1.2-2.1-2.2-3.7-.1-5.8 1.1 1.6 2.1 2.9 3.2 4.3 1.5-.7 2.8-1.2 3.8-1.7.1-1.9-2.6-3.1-.1-4.8 1 1.1 1.9 2.2 2.8 3.2 2.4.2 3.3-1.8 4.4-2.7.8-1.7-1.6-3.1.5-4.8.8 1 1.6 2 2.7 3.2 1.6-1.4 3.1-2.7 4.6-4-.8-1.6-1.5-2.9-2.1-4.2.2-.2.4-.3.6-.5 1.3.8 2.6 1.7 3.9 2.5 1.6-1.6 3.1-3 4.6-4.5-1-1.4-1.9-2.7-2.8-4l.6-.6c1.4.8 2.7 1.6 4.3 2.5 1.5-1.4 3-2.9 4.3-4.2-.6-2.6-3.8-3.4-3.6-7 2.1 1.7 3.6 3 5.5 4.6 1.2-1.7 2.2-3.1 3.2-4.4-1.4-2.4-4.2-3.7-3.8-7.3 2 1.7 3.7 3.2 5.5 4.7 1-1.9 1.8-3.3 2.5-4.6-1.7-2.3-4.9-2.8-5.5-5.9 3.2-.6 4.2 3.3 7.1 3 1.5-2.8 1.5-2.8-.7-4.7-.7-.6-1.3-1.2-2.2-2 2.4-1.1 3.7 1 5.8.7.7-1.6 1.4-3.3 2.1-4.9-5.8-4.1-5.8-4.1-5.9-5.7 2.3.9 4.5 1.8 6.6 2.6 2.5-4.7 2.4-5.1-1.4-7.8-.7-.5-1.2-1.2-2.1-2.1 2.6-1.1 4.1 1.6 6.5.8.3-1.9.7-3.9 1.1-6-6.5-1.4-7.4-1.8-7.9-4.4.9.2 1.7.4 2.4.5 1.4.3 2.8.6 4.2.7.6 0 1.2-.5 1.7-.8-.4-.5-.7-1.2-1.2-1.5-1.4-.7-2.9-1.2-4.3-1.9-.6-.3-.9-1-1.4-1.6.1-.2.3-.4.4-.6 2.2.5 4.3.9 6.7 1.4.1-1.3.2-2.3.2-3.3-2.1-1.3-4.8-1.6-5.5-4.6 2.1.7 4 1.2 5.8 1.8 1-3.9 1-3.9-1.9-4.9-1.2-.4-2.5-.8-3.7-1.4-.6-.3-.9-1.1-1.8-2.3 3.5.8 6.1 1.4 8.7 2 1.2-4.6 1.1-4.6-2.6-6.2-.7-.3-1.4-.5-2-.9-.4-.3-.7-.9-1.5-2.1 2.9.5 4.9.9 7.4 1.4.1-2.2.2-4 .3-5.7-2.1-1.2-3.8-2.1-5.8-3.2 1.9-2.5 3.5.5 5.5-.6.2-1.3.5-2.8.7-4.2-2.4-2.1-5.4.4-7.6-2 2.4-1.6 5-1.1 7.6-1.5V132c-2.1-1.3-4.9.4-6.5-2.5 2.4-.2 4.5-.4 6.7-.7.1-1.7.3-3.2.4-4.5-2.9-1.8-6.3-1.4-8.2-4.4 2.5.3 5 .7 7.4 1 1.3-4.5 1.9-6.5-3.6-6.1-1 .1-2.2-.3-3.2-.6-.5-.1-.8-.7-1.7-1.7 3.5-.1 6.3-.1 9-.2.5-4.8.5-4.8-3.4-6-.8-.2-1.5-.8-2.2-1.1.1-.2.1-.5.2-.7 1.5-.1 3-.1 4.9-.2-.1-1.9-.2-3.8-.3-5.8-1.6-.1-2.9-.1-4.2-.1-1.3 0-2.9.7-3.1-1.7 2.4-.4 4.6-.7 7.1-1-.1-2.8-.2-5.4-.3-8.3-2.2.5-3.9 1.1-5.7 1.4-1.6.2-3.5 1.1-5-1.2 3.6-1.2 7.5-1 10.4-3.6-.1-2.2-.3-4.4-.4-6.6-8.5.7-7.4.6-7.8-1.6 2.5-.4 5.1-.9 7.8-1.4-.1-1.4-.1-2.6-.2-3.6-2.6-1-5.1.2-7.3-1.2.8-1.6 2.1-1.2 3.2-1.4 1.3-.2 2.6-.3 4.1-.5-.2-1.6-.3-2.8-.5-4.3-1.6.1-2.9.2-4.2.1-1.2-.1-2.9.9-3.6-1.5 2.5-.4 4.9-.8 7.4-1.2v-4.3c-1.9.1-3.5.2-5.2.4-3.3.3-3.3.4-4.3-1.5 2.9-.5 5.8-1 8.9-1.6-.2-1.5-.4-2.6-.6-3.9-1.9-.1-3.6 0-5.3-.3-1.5-.3-3.6.8-4.8-1.7 3.2-.3 6.2-.6 9.4-.8-.3-1.4-.6-2.4-.8-3.3-2.6-.9-5.4 0-8-1.5 2.4-2 5-.6 7.5-1.6-.4-1.3-.7-2.7-1.1-3.9-3.6-.2-6.8-1.5-9.9.5-1.5-2.9-1.4-3.3 1-3.6 2.3-.4 4.6-.8 7.2-1.3-.4-1.5-.7-2.7-1-3.6-2.6-.5-4.2 2.5-6.7 1.2 0-.4 0-.7.1-.8.6-.4 1.2-.8 1.8-1.1 3.4-2.1 3.4-4.4-.1-6.8-1.9.4-2.3 3.3-5.3 3.3 1.4-2.3 2.5-4.2 3.8-6.4-1.1-.7-2.1-1.3-3.4-2.1-1.8 2.6-3.5 4.9-5.2 7.3-.3-.1-.6-.3-.8-.4.2-3 2.7-5.2 3-8.4-.9-.4-1.7-.7-2.5-1-1.6 1.8-3.1 3.4-4.5 4.9-.2-.2-.5-.3-.7-.5.6-1.8 1.2-3.7 1.9-5.7-1.2-.5-2.2-1-3-1.3-2.5 1.2-1.9 4.7-5.4 5.4.9-2.9 1.6-5.1 2.4-7.6-1.4-.6-2.5-1-3.9-1.6-.5 2-.8 3.7-1.4 5.2-.5 1.5 0 3.4-2 4.8-.7-4.2 1-7.6 1.7-11.2-.7-.3-1.5-.6-2.3-.9-1.2 3.2-.4 6.8-3.1 10.1-.2-1.5-.4-2.2-.4-3 .1-1.9.4-3.8.6-5.8.2-2.5-.1-2.9-2.6-3.4-.7-.2-1.4-.3-2.3-.5-.1 2.2-.1 3.9-.4 5.5-.3 1.6 1.1 3.5-.7 5.2-2.4-3.1-1.1-6.7-1.8-10.1-2.2.5-4.3 1-6.6 1.5.7 3 1.2 5.5 1.9 8.7-3.9-1.8-2.7-5.9-5.1-7.8-1.8.8-3.8.9-4.6 3 .8 2.1 1.5 4.2 2.3 6.2-.2.1-.5.3-.7.4-1.4-1.5-2.9-3-4.7-4.9-1.7 1.8-3.1 3.3-4.4 4.8 1.2 2.6 2.3 4.9 3.4 7.2l-.9.6c-1.5-1.7-3-3.4-4.8-5.4-1.1 1.1-2.1 2.2-2.9 3.1.4 2.9 3.7 3.7 3.4 6.5-1.6.7-2.2-.6-3.1-1.3-.9-.8-1.7-1.6-2.5-2.4-1.2 1.1-2.1 2-2.9 2.8.7 2.5 3.6 3.8 3.1 7.2-1.9-1.8-3.5-3.2-4.9-4.6-3.7 1.9-3.7 2-1.7 5 .7 1.1 2.1 2 1.2 4.2-1.9-1.7-3.5-3.2-5.2-4.8-1.4 1.4-2.7 2.6-3.8 3.6 0 2.1 2.5 2.9 1.7 5.5-1.4-1.5-2.6-2.7-4-4.1-1.3 1.1-2.3 2-3.2 2.8.9 2.3 2.9 3.6 2.9 5.9-.5.1-.9.2-1 .1-1-.9-1.9-1.8-2.8-2.7-1.4-1.4-2-1.3-4.1.1-1.3.9-2.3 1.8-1.2 3.5.6.9 1.4 1.9 1 3.6-1.7-1.3-3.1-2.3-4.6-3.3-1.8 1.2-3.5 2.3-5.3 3.6.9 1.6 1.7 3 2.5 4.4-.2.2-.4.4-.7.6-1.5-1.1-2.9-2.1-4.6-3.4-1.6 1-3.3 2.1-5.1 3.3 1.1 2 2.1 3.7 3 5.4-.2.2-.4.3-.6.5-1.4-1.3-2.9-2.5-4.5-3.9-2 1.6-3.7 2.9-5.1 4 .2 2.3 2.6 3.2 1.7 5.8-1.5-1.3-2.7-2.3-4.2-3.6-1.2.9-2.4 1.8-3.7 2.8 1 1.5 1.9 2.8 2.8 4.1-.2.2-.4.4-.6.7-1.5-.8-2.9-1.7-4.4-2.5-1.7 1.6-3.2 3.1-4.6 4.4.7 1.6 2.9 2.3 1.8 4.6-1.5-.9-2.7-1.8-4.1-2.6-1 1-1.8 1.7-2.5 2.5-.8.8-1.7 1.6-2.5 2.4.7 1.5 3.2 1.9 2.2 4.1-1.8-.6-3.5-1.8-5-1.5-1.5.4-2.6 2.2-3.4 3-.1 3 3.8 2.6 3.3 5.9-2.1-1.1-4-2-6.2-3.1-1.5 1.3-3.5 2.3-4.1 4.3.8 1.8 3.4 1.7 3.5 4.6-2.2-.9-4-1.6-6.3-2.6-1.9 2.1-3.9 4.3-5.7 6.3.9 2.1 3.8 2.1 3.7 4.8-.5 0-.9.1-1.2 0-5.2-2.4-5.2-2.4-8.4 2.2-.1.1 0 .2 0 .6 1.1 2.2 4.8 1.7 5.8 5.3-2.9-1-5.3-1.7-7.8-2.6-.9 1.3-1.7 2.5-2.5 3.6 1.2 2.4 4.5 1.7 5.4 5-2.7-.8-4.9-1.3-7.2-2-1.3 2.4-3.2 4.6-3.5 7.6 4.8 3 4.8 3 5 4.5-.9-.2-1.7-.4-2.4-.7-4.3-1.6-4.6-1.5-6.3 2.8-.3.7-.4 1.6-.5 2.3 4.7 1.9 4.7 1.9 5.5 4-2.4-.5-4.6-.9-7.1-1.4-.7 1.8-1.4 3.6-2 5.2 2.1 1.6 4.9.7 6.5 3.1-2 .7-3.8 0-5.5.2-.9.1-2.3.5-2.7 1.2-.9 2-2.1 4.1-1.8 6.4 2 1.2 4.8-.7 6.4 2.5-1.5.1-2.6.3-3.8.3-1.2.1-2.3.1-3.8.1-.6 2.9-1.1 5.5-1.7 8 2.7 1.8 6-.9 8.8 2.2-3.5.5-6.3 1-9.3 1.5-.1 2.9-.2 5.6-.2 8.2 2.5.7 5-.9 7.7 1.2-2.9.9-5.2 1.6-7.6 2.4 0 3-.4 5.8.9 8.3 2.3.8 4.7-2 7 1-1.8.5-3.2 1-4.7 1.4-1.1.3-2.1.9-1.9 2.3.4 2.1.3 4.3 2 6.4 1.1-.3 2.1-.6 3.1-1 1-.3 1.9-1.2 2.9-.1-1.1 1.8-1.1 1.8-3 2.8-3.2 1.7-3.3 2-1.3 5.6 1-.4 1.9-.8 2.9-1.1.9-.3 1.9-.4 2.9-.6.1.2.2.4.3.7-1.9 1.5-3.8 3-5.9 4.6.8 2.3 1.6 4.4 2.4 6.6 1.9-.9 3.2-1.7 4.7-2.2 1.4-.5 2.6-1.8 4.7-.8-2.9 2.1-5.4 3.9-8 5.8 1.2 2.9 1.8 5.6 4.2 7.2 3.1.1 4.6-4.3 8.5-2.4-2.5 1.9-4.6 3.6-7 5.4 1.2 1.4 2.1 2.6 3.1 3.8 1 1.1 2.1 1 3.1.1.9-.8 1.7-1.7 2.7-2.4.7-.5 1.5-.8 2.3-1.1.2.2.4.5.6.7-1.5 2-3.1 4-4.7 6.1 1.3 1 2.3 1.7 3.2 2.3 2.4-1.6 2.6-5.1 6.4-5.5-1.3 2.6-2.4 4.8-3.6 7.4 1.7 1.2 3.3 2.3 4.8 3.4 1.9-1.4 1.4-4.6 4.8-4.5-.5 1.6-1 2.9-1.2 4.3-.1.8 0 2.2.6 2.5 2.4 1.5 4.7 3.2 7.6 3.6 2.1-5.7 2.1-5.7 4.1-5.7-.3 2.3-.6 4.7-1 7.2 1.6.4 2.9.8 4 1.1 1.6-1.6.7-4.5 3.9-4.8-.3 1.8-.5 3.4-.8 5.2 1.8.3 3.2.5 4.4.7 1.2-1.4.6-4 3.5-3.8-.2 1.7-.5 3.3-.7 5 2.1.9 4 1.6 5.8 2.4 1.3-2.4-.4-5.6 2.8-7.4.9 3-.8 6.1 1.2 8.8 1.7.5 3.4 1 5.2 1.5.4-2 .8-3.7 1.3-6.1 2.5 2.4.6 5 2.1 7.2 1 .3 2.4.6 4.3 1.2-.2-1.5-.4-2.4-.3-3.4 0-.9.4-1.7.6-2.5.3 0 .6 0 .9-.1.2.8.6 1.6.7 2.4.6 4.1.6 4.2 4.7 5 .8.1 1.6.1 2.5.2.2-2.5-.5-5 1.4-7.1 1.7 1 .5 2.6 1 3.7.6 1.4 1.4 2.8 2.4 3.8.5.5 1.9.1 2.7.1 1.2-2.6-.7-4.8 1.6-7.1zM222 86.1c.2-.2.4-.3.6-.5-4-6.3-7.1-13.1-13.4-18.4 1 2 1.8 3.5 2.5 5.1.1.2-.1.6-.2 1.2-1.1-.5-1.9-.8-3.5-1.5.8 1.8 1.3 2.9 1.8 4.1 2-2 3-.6 4 .6 2.8 3.2 5.5 6.3 8.2 9.4zm6.4 138.2c1.7-2 2.3-4.1 1.9-6.6-.7-4.6-.6-9.3-2.9-13.5-.5 6.7 0 13.4 1 20.1zM208.4 59c-.3.1-.6.3-.8.4.3 1.2.3 2.7 1.1 3.5 2.3 2.7 4.8 5.1 7.3 7.7.2-.2.4-.3.6-.5-2.2-4.2-5-7.8-8.2-11.1zM59.6 272.5h.9c.3-4.8.3-9.5-1.5-14.1l.6 14.1zm-2.9-14.2h-1c0 3.8-.1 7.6-.1 11.4 0 .3.7.7 1.7 1.5-.3-4.8-.5-8.9-.6-12.9zm-7.2 6.1c-.1.3-.3.5-.4.8 1.3.9 2.5 1.8 4.3 3.1 0-2-.1-3.4-.1-5.3-.8.7-1.1 1.1-1.5 1.2-.7.2-1.5.2-2.3.2zm20.8 7.4c-.3 5.2.1 6.5 2.1 8-.7-2.8-1.4-5.4-2.1-8zm-20.4-10c.4-1.9 1.2-3.9-.2-6.3-1.2 2.4-.9 4.4.2 6.3zm13.8 4.5c-1.2 3.7-1.2 4 .7 6.5-.2-2.5-.4-4.5-.7-6.5zM209.8 56c-.9-1.7-1.6-3-2.5-4.7-.2 2.7-.2 2.7 2.5 4.7zM82.4 283.3c0 1-.4 2.3 1.7 2.1-.7-.8-1.2-1.4-1.7-2.1z"/><path class="st0" d="M105 258.8c-2.3 2.2-.4 4.5-1.2 6.9-.8 0-2.2.4-2.7-.1-1.1-1-1.8-2.4-2.4-3.8-.5-1.1.7-2.6-1-3.7-1.9 2-1.2 4.5-1.4 7.1-.9-.1-1.7-.1-2.5-.2-4.2-.8-4.1-.8-4.7-5-.1-.8-.5-1.6-.7-2.4-.3 0-.6 0-.9.1-.2.8-.5 1.7-.6 2.5 0 .9.2 1.9.3 3.4-2-.5-3.3-.9-4.3-1.2-1.4-2.2.5-4.8-2.1-7.2-.5 2.4-.9 4.1-1.3 6.1-1.8-.5-3.6-1-5.2-1.5-2-2.7-.4-5.8-1.2-8.8-3.2 1.8-1.5 4.9-2.8 7.4-1.8-.7-3.7-1.5-5.8-2.4.2-1.7.5-3.3.7-5-2.9-.2-2.3 2.4-3.5 3.8-1.2-.2-2.6-.4-4.4-.7.3-1.8.5-3.3.8-5.2-3.1.3-2.2 3.2-3.9 4.8-1-.3-2.3-.6-4-1.1.3-2.6.7-4.9 1-7.2-2 0-2 0-4.1 5.7-2.9-.4-5.3-2.1-7.6-3.6-.5-.3-.7-1.7-.6-2.5.2-1.4.7-2.7 1.2-4.3-3.4-.2-2.9 3-4.8 4.5-1.5-1-3.1-2.2-4.8-3.4 1.3-2.6 2.3-4.8 3.6-7.4-3.8.4-4 3.9-6.4 5.5-.8-.6-1.8-1.4-3.2-2.3 1.6-2.1 3.2-4.1 4.7-6.1-.2-.2-.4-.5-.6-.7-.8.4-1.6.6-2.3 1.1-1 .7-1.8 1.6-2.7 2.4-1.1 1-2.1 1.1-3.1-.1-1-1.2-1.9-2.4-3.1-3.8 2.4-1.9 4.6-3.5 7-5.4-3.9-1.9-5.4 2.5-8.5 2.4-2.3-1.5-3-4.3-4.2-7.2 2.6-1.9 5.1-3.7 8-5.8-2.1-1-3.4.3-4.7.8-1.5.5-2.8 1.3-4.7 2.2-.8-2.2-1.5-4.2-2.4-6.6 2-1.6 3.9-3.1 5.9-4.6-.1-.2-.2-.4-.3-.7-1 .2-2 .3-2.9.6-1 .3-2 .8-2.9 1.1-2-3.5-1.9-3.9 1.3-5.6 1.8-.9 1.9-1 3-2.8-1-1.1-1.9-.2-2.9.1-1 .3-2 .6-3.1 1-1.6-2.1-1.6-4.3-2-6.4-.2-1.3.7-1.9 1.9-2.3 1.5-.4 2.9-.9 4.7-1.4-2.2-3-4.6-.2-7-1-1.3-2.5-.9-5.3-.9-8.3 2.4-.8 4.8-1.5 7.6-2.4-2.7-2.1-5.2-.5-7.7-1.2.1-2.6.2-5.3.2-8.2 3-.5 5.8-.9 9.3-1.5-2.8-3.1-6.1-.3-8.8-2.2.5-2.5 1.1-5.1 1.7-8 1.4 0 2.6-.1 3.8-.1 1.1-.1 2.3-.2 3.8-.3-1.6-3.2-4.4-1.3-6.4-2.5-.3-2.3.9-4.3 1.8-6.4.3-.7 1.7-1.1 2.7-1.2 1.7-.2 3.5.6 5.5-.2-1.6-2.4-4.4-1.5-6.5-3.1.6-1.6 1.3-3.3 2-5.2 2.5.5 4.6.9 7.1 1.4-.9-2.1-.9-2.1-5.5-4 .2-.7.2-1.6.5-2.3 1.8-4.3 2-4.4 6.3-2.8.8.3 1.6.4 2.4.7-.2-1.5-.2-1.5-5-4.5.3-2.9 2.2-5.1 3.5-7.6 2.3.6 4.4 1.2 7.2 2-.9-3.3-4.2-2.6-5.4-5 .7-1 1.6-2.3 2.5-3.6 2.6.8 4.9 1.6 7.8 2.6-1-3.7-4.8-3.1-5.8-5.3v-.6c3.1-4.5 3.1-4.5 8.4-2.2.3.1.7 0 1.2 0 .1-2.6-2.8-2.7-3.7-4.8l5.7-6.3c2.3.9 4.1 1.7 6.3 2.6 0-2.9-2.7-2.8-3.5-4.6.6-2.1 2.6-3 4.1-4.3 2.2 1.1 4 2.1 6.2 3.1.5-3.3-3.4-2.9-3.3-5.9.8-.8 1.9-2.7 3.4-3 1.4-.3 3.2.9 5 1.5 1.1-2.3-1.5-2.6-2.2-4.1.8-.8 1.6-1.6 2.5-2.4.8-.7 1.6-1.5 2.5-2.5 1.3.9 2.6 1.7 4.1 2.6 1.1-2.2-1-3-1.8-4.6 1.4-1.4 2.9-2.8 4.6-4.4 1.4.8 2.9 1.6 4.4 2.5.2-.2.4-.4.6-.7-.9-1.3-1.7-2.6-2.8-4.1 1.3-1 2.5-1.9 3.7-2.8 1.5 1.3 2.7 2.3 4.2 3.6.9-2.6-1.5-3.5-1.7-5.8 1.4-1.1 3.1-2.5 5.1-4 1.6 1.4 3 2.7 4.5 3.9.2-.2.4-.3.6-.5-.9-1.7-1.9-3.4-3-5.4 1.8-1.1 3.4-2.2 5.1-3.3 1.7 1.2 3.2 2.3 4.6 3.4.2-.2.4-.4.7-.6-.8-1.4-1.6-2.8-2.5-4.4 1.8-1.2 3.5-2.3 5.3-3.6 1.4 1 2.8 2.1 4.6 3.3.3-1.8-.5-2.7-1-3.6-1.1-1.7-.1-2.6 1.2-3.5 2.1-1.5 2.6-1.5 4.1-.1.9.9 1.8 1.9 2.8 2.7.1.1.4 0 1-.1 0-2.3-2.1-3.6-2.9-5.9.9-.8 1.9-1.7 3.2-2.8 1.4 1.4 2.6 2.7 4 4.1.8-2.6-1.7-3.4-1.7-5.5 1.1-1.1 2.3-2.3 3.8-3.6 1.7 1.5 3.3 3 5.2 4.8.9-2.2-.6-3.2-1.2-4.2-1.9-3-1.9-3.2 1.7-5 1.5 1.4 3 2.8 4.9 4.6.5-3.5-2.4-4.7-3.1-7.2.8-.8 1.7-1.7 2.9-2.8.8.8 1.7 1.6 2.5 2.4.8.7 1.5 2 3.1 1.3.3-2.8-3-3.6-3.4-6.5.8-.8 1.8-1.9 2.9-3.1 1.7 2 3.3 3.7 4.8 5.4l.9-.6c-1.1-2.3-2.2-4.6-3.4-7.2 1.3-1.5 2.8-3 4.4-4.8 1.8 1.9 3.3 3.4 4.7 4.9.2-.1.5-.3.7-.4-.8-2-1.5-4.1-2.3-6.2.8-2.1 2.9-2.2 4.6-3 2.4 1.9 1.2 6 5.1 7.8-.7-3.2-1.3-5.8-1.9-8.7 2.3-.5 4.4-1 6.6-1.5.8 3.4-.5 7 1.8 10.1 1.7-1.7.4-3.6.7-5.2.3-1.6.3-3.3.4-5.5 1 .2 1.7.3 2.3.5 2.5.6 2.8 1 2.6 3.4-.2 1.9-.5 3.8-.6 5.8-.1.7.2 1.5.4 3 2.7-3.3 1.9-6.9 3.1-10.1.8.3 1.6.6 2.3.9-.7 3.6-2.3 7-1.2 11.1 2-1.4 1.5-3.3 2-4.8.6-1.6.9-3.2 1.4-5.2 1.3.5 2.5 1 3.9 1.6-.8 2.5-1.5 4.7-2.4 7.6 3.4-.8 2.8-4.3 5.4-5.4.7.3 1.8.8 3 1.3l-1.9 5.7c.2.2.5.3.7.5 1.5-1.6 2.9-3.2 4.5-4.9.8.3 1.6.7 2.5 1-.4 3.2-2.9 5.4-3 8.4.3.2.6.3.8.4 1.7-2.3 3.3-4.7 5.2-7.3 1.3.8 2.3 1.4 3.4 2.1-1.3 2.2-2.4 4.1-3.8 6.4 3 .1 3.4-2.8 5.3-3.3 3.5 2.4 3.5 4.7.1 6.8-.6.4-1.2.7-1.8 1.1-.1.1-.1.4-.1.8 2.4 1.3 4.1-1.7 6.7-1.2.3 1 .6 2.1 1 3.6-2.5.5-4.8.9-7.2 1.3-2.4.4-2.5.7-1 3.6 3-1.9 6.3-.7 9.9-.5.3 1.2.7 2.6 1.1 3.9-2.5 1-5.1-.4-7.5 1.6 2.6 1.5 5.4.7 8 1.5.2.9.5 1.9.8 3.3-3.2.3-6.1.6-9.4.8 1.2 2.5 3.3 1.4 4.8 1.7 1.6.3 3.3.2 5.3.3.2 1.3.4 2.5.6 3.9-3 .5-5.9 1.1-8.9 1.6 1 1.9 1 1.9 4.3 1.5 1.6-.2 3.3-.3 5.2-.4v4.3c-2.5.4-4.9.8-7.4 1.2.7 2.4 2.4 1.4 3.6 1.5 1.3.1 2.6-.1 4.2-.1.2 1.4.3 2.7.5 4.3-1.6.2-2.9.2-4.1.5-1.1.2-2.5-.2-3.2 1.4 2.2 1.4 4.8.3 7.3 1.2 0 1 .1 2.1.2 3.6-2.7.5-5.3.9-7.8 1.4.4 2.2-.7 2.3 7.8 1.6.1 2.2.3 4.4.4 6.6-3 2.6-6.8 2.4-10.4 3.6 1.5 2.3 3.4 1.5 5 1.2 1.8-.3 3.5-.8 5.7-1.4.1 2.9.2 5.5.3 8.3-2.4.4-4.7.7-7.1 1 .2 2.4 1.9 1.7 3.1 1.7 1.3 0 2.6.1 4.2.1.1 2 .2 3.9.3 5.8-1.9.1-3.4.1-4.9.2-.1.2-.1.5-.2.7.7.4 1.4.9 2.2 1.1 3.9 1.2 3.9 1.2 3.4 6-2.7.1-5.5.1-9 .2.9 1 1.2 1.6 1.7 1.7 1 .3 2.1.7 3.2.6 5.5-.4 4.9 1.7 3.6 6.1-2.4-.3-4.9-.7-7.4-1 1.9 3.1 5.2 2.6 8.2 4.4-.1 1.3-.2 2.8-.4 4.5-2.2.2-4.3.4-6.7.7 1.7 2.9 4.5 1.3 6.5 2.5v3.3c-2.6.4-5.2-.1-7.6 1.5 2.2 2.4 5.2-.1 7.6 2-.2 1.3-.5 2.9-.7 4.2-2 1.1-3.6-1.9-5.5.6 1.9 1.1 3.6 2 5.8 3.2-.1 1.7-.2 3.5-.3 5.7-2.5-.5-4.5-.9-7.4-1.4.8 1.1 1 1.7 1.5 2.1.6.4 1.3.6 2 .9 3.7 1.6 3.8 1.7 2.6 6.2-2.6-.6-5.2-1.2-8.7-2 .9 1.2 1.2 2 1.8 2.3 1.2.6 2.4 1 3.7 1.4 2.9 1 2.9 1 1.9 4.9-1.9-.6-3.7-1.2-5.8-1.8.7 3.1 3.5 3.3 5.5 4.6-.1 1-.1 2-.2 3.3-2.4-.5-4.6-1-6.7-1.4-.1.2-.3.4-.4.6.4.5.8 1.3 1.4 1.6 1.4.7 2.9 1.2 4.3 1.9.5.3.8 1 1.2 1.5-.6.3-1.2.9-1.7.8-1.4-.1-2.8-.5-4.2-.7-.8-.2-1.5-.3-2.4-.5.5 2.5 1.4 3 7.9 4.4-.4 2-.7 4.1-1.1 6-2.4.7-3.9-2-6.5-.8.8.9 1.4 1.6 2.1 2.1 3.8 2.7 3.9 3.1 1.4 7.8-2.1-.8-4.2-1.7-6.6-2.6.1 1.7.1 1.7 5.9 5.7-.7 1.6-1.4 3.3-2.1 4.9-2 .3-3.4-1.9-5.8-.7.9.8 1.5 1.4 2.2 2 2.2 1.9 2.2 1.9.7 4.7-2.8.4-3.9-3.6-7.1-3 .7 3.1 3.8 3.6 5.5 5.9-.7 1.3-1.5 2.8-2.5 4.6-1.8-1.6-3.5-3-5.5-4.7-.4 3.6 2.4 4.9 3.8 7.3-1 1.4-2 2.8-3.2 4.4-1.9-1.6-3.5-2.9-5.5-4.6-.2 3.6 2.9 4.4 3.6 7-1.4 1.3-2.9 2.8-4.3 4.2-1.6-.9-3-1.7-4.3-2.5l-.6.6c.9 1.3 1.8 2.6 2.8 4-1.5 1.5-3 2.9-4.6 4.5-1.3-.8-2.6-1.6-3.9-2.5-.2.2-.4.3-.6.5.7 1.3 1.3 2.6 2.1 4.2-1.5 1.3-3 2.6-4.6 4-1.1-1.3-1.9-2.2-2.7-3.2-2 1.7.3 3.1-.5 4.8-1.1.9-2 2.9-4.4 2.7-.9-1-1.8-2-2.8-3.2-2.5 1.7.2 3 .1 4.8-1 .5-2.3 1-3.8 1.7-1.1-1.5-2-2.7-3.2-4.3-2 2.1.3 3.7.1 5.8-1.4.9-3.1 1.9-5 3.1-1.1-1.8-2.1-3.3-3.3-5.1-1.5 2.6.7 4.1.6 6.2-1.7.9-3.5 1.9-5.6 3-.7-1.7-1.5-3.4-2.5-5.6-2 2.7.2 4.7-.3 6.8-.1.1-.1.4-.3.5-4.7 2.5-4.7 2.5-6.1-2.7-.1-.4-.4-.9-.6-1.2-.1-.2-.4-.2-.8-.3-1.6 2.1.3 4.4-.3 6.8-1.6.3-3.3.6-5.4.9-.5-2.3-1-4.3-1.6-6.7-2.9 1.9-.9 4.5-1.6 7.1-1.9.1-3.9.2-6.3.3-1.7-2.1-2.5-4.4-3.5-7.3zM82.8 74.5c2.6-.9 4.9-2.2 6.7-5.1-3.1 1-5 2.7-6.7 4.7-.8.5-1.7.9-2.4 1.4-4.2 3.4-8.4 6.8-12.4 10.4-4.1 3.6-8.1 7.4-12.2 11.2-.7.6-1.2 1.5-1.7 2.3-.2.5-.1 1.1-.3 2.5 2.2-2.6 3.7-4.8 5.6-6.6 4.5-4.2 9.1-8.2 13.7-12.3.4-.4 1-.7 1.4-1.1 2.8-2.4 5.6-4.9 8.3-7.4zm-25.5 42.3c-.7.7-1.5 1.3-2 2-3.2 5.1-6.6 10.1-9.4 15.4-4.9 9.2-8.2 19-10.8 29-.9 3.4-1.1 7.1-1.4 10.7-.2 2.5.4 5.1 0 7.6-1.2 8.2 1.3 15.7 4.2 23.2 2.2 5.7 5.4 10.7 10.5 14.3 2 1.5 3.8 3.3 5.9 4.8 2.6 1.8 5.3 3.3 8 4.8.5.3 1.4-.1 2.8-.2-1.1-.9-1.4-1.4-1.9-1.6-3.7-1.5-6.8-4-9.8-6.6-3.5-3.1-7.5-5.7-9.9-9.8-1.2-2.1-2.5-4.1-3.5-6.3-2.7-6-4.9-12.2-4.8-19 .1-3.8 0-7.7.2-11.5.1-2.6.1-5.3.8-7.9 1.1-4.5 2.8-8.9 4.1-13.4 2.2-7.4 5.4-14.4 9.2-21.1 2.7-4.8 5.7-9.4 8.5-14.2 2.8-3.2 5.5-6.3 8.3-9.5 4-4.4 7.9-8.7 13.1-11.7 1.5-.9 2.8-2 4.2-3-.1-.2-.3-.4-.4-.7-.5.2-1 .3-1.5.5-6.2 3.4-11.2 8.3-15.9 13.4-3.3 3.3-5.7 7.2-8.5 10.8zm-3.1-5.2c-.7.8-1.6 1.5-2.1 2.5-6.9 11.7-13.7 23.5-17.1 36.8-.6 2.2-1.5 4.3-2.3 6.5-3.4 9.5-5.2 19.3-4.4 29.4.3 3.3 1 6.7 1.5 10 1 6.5 3.3 12.6 6.8 18.1 2.9 4.5 6.2 8.9 9.9 12.8 5.8 6 12.2 11.3 21 12.4.8.1 1.6.5 2.4.7 7.3 1.7 14.5 3.4 21.8 4.9 2.1.4 4.3.2 6.5.1 1 0 1.8-.6 1.3-1.8-2.9-.3-5.8-.3-8.6-.8-6.5-1.2-12.9-2.8-19.4-4.1-10.5-2-19-7.3-25.9-15.3-5.6-6.5-10-13.8-12.7-22-.8-2.4-1.3-4.9-1.8-7.3-.3-1.5-.5-3.1-.7-4.6-.3-2.9-.9-5.7-.7-8.6.6-9 1.9-17.9 5.6-26.3.7-1.5 1.3-3.1 1.7-4.8 2.9-11.9 8.7-22.6 15-33 1.1-1.7 1.9-3.6 2.9-5.4 2.1-2.5 4.2-5 6.8-8.1-3.2 1.3-5.3 3.7-7.5 7.9zm119.4 39.1c-.5 0-.9.1-1.4.1-.2-2.2-.5-4.5-.5-6.7-.1-6.5-1.1-12.9-3.1-19.2-.7-2.4-1.5-4.8-2.1-7.3-2.5-10.9-7.3-20.9-13.8-30-2.8-3.9-6.1-7.2-11.4-8.1-3.6-.6-7.2-.7-10.7-.6-4.4.1-9 .6-13.1 1.9-8 2.6-15.8 5.7-23.2 9.9-12.6 7.1-22.4 17-30.7 28.5-5.5 7.6-10.2 15.7-15 23.8-3.3 5.6-6.4 11.3-7.8 17.8-.8 3.9-1.4 7.8-2.2 11.7-1 4.9-.8 9.9 0 14.7.6 3.8 1.4 7.7 3.1 11.1 2.9 5.9 6.6 11.3 11.5 15.9 4.4 4.2 9.1 7.4 14.9 9 3.9 1.1 7.9 2.3 11.8 3.4 1 .3 2.2.5 3.3 2.1-3.2-.6-5.7-1-8.4-1.5 1 2 1 2 2.6 2.3 6.1 1.2 12.3 2.4 18.4 3.5 2.1.4 4.3.7 6.4.7 7 .1 14-1 20.7-2.8 10-2.5 19.3-6.9 27.2-13.6 3.3-2.8 6.5-5.8 9-9.3 4.9-6.7 8.5-14.3 10.3-22.5 1.6-7.1 3.4-14.3 4.4-21.5.9-6.9.9-13.9 1.2-20.9.1-2.1-.2-4.3-.4-6.5-.1-.5-.6-1-.8-1.4.1 5.3-.1 10.4-.2 15.5zm22.4-24.2c-.3 0-.5-.1-.8-.1-.3.5-.8.9-.8 1.4 0 3 .1 6 .2 9 .4 10.2-.7 20.2-2.9 30.1-1.7 7.5-4.1 14.8-6.2 22.2-4.1 14.9-11.8 27.8-22.3 39.1-2 2.1-4 4.3-6.4 5.8-5.8 3.5-11.6 6.7-17.7 9.6-3.9 1.8-8.1 2.8-12.2 4.2-1.7.6-3.4 1.3-5.1 1.7-8.7 2.2-17.5 1.4-26.2 1-12.2-.6-23.6-4.4-34.8-8.8-10.5-4.2-18.9-10.9-25.3-20.2-6.7-9.7-10.6-20.4-11.5-32.2-.7-9.4 0-18.8 1.5-28 2-12.4 6.2-23.9 13.1-34.5.6-1 1.1-2 2-3.5-.9.4-1.2.4-1.3.5-.4.4-.8.9-1.2 1.4-4.8 7.8-9 15.9-11.5 24.8-2.6 9.2-3.4 18.7-4.2 28.1-.9 10.5.3 20.8 4 30.5 6.1 16.1 16.9 28.2 33.2 34.7 7.6 3 15.5 5.2 23.3 7.6 2.1.7 4.4 1 6.7 1.2 5.8.4 11.5.7 17.3.9 3 .1 6-.1 9-.4 7.6-.7 14.6-3.8 21.8-6.1 5-1.6 9.6-4.3 14.3-6.9 4.2-2.3 8.2-5.1 11.3-8.9 1.2-1.4 2.3-2.8 3.5-4.1 6.3-7 12-14.5 15.2-23.5 1.7-4.6 3.6-9.2 5.2-13.8 2.8-7.9 5-16.1 6.6-24.4 2.4-12.3 2.6-24.6 2.4-37 0-.3-.1-.8-.2-1.4zM70.9 77.9c-.3-.2-.6-.4-.8-.6-2.7 2.3-5.7 4.5-8.1 7.1-4.2 4.4-8.3 9-12.1 13.8-3.8 4.9-7.7 9.9-10.6 15.4-5.6 10.5-11.4 20.9-14.5 32.5-1.7 6.1-3.9 12.1-4.6 18.5-.7 6.1-1.6 12.1-2.5 18.2-1.2 8.5-.6 16.8 2 24.9 2.2 7 6 13.1 10.3 18.9 2.2 3 5.1 5.4 7.7 8 .3.3 1.2.1 1.9.2-.2-.6-.2-1.4-.5-1.8-1.2-1.3-2.7-2.3-3.9-3.7-4.9-5.5-8.7-11.8-11.8-18.4-3.6-7.5-4.5-15.4-4.1-23.5.2-4.4.8-8.9 1.3-13.3 1-8.8 2.4-17.6 5-26.2 2.2-7.1 4.9-14 8.3-20.7 4.6-9.3 9.2-18.4 15.9-26.5 6.2-7.4 12-15 19.9-20.8.4-.4.7-1.3 1.2-2zm27.5-13.6c1.3 0 1.9.2 2.2 0 5.4-4.1 11.6-6.1 17.9-8.4 4-1.4 7.9-3 11.8-4.5 8.6-3.4 17.2-6.8 25.9-10.1 1.2-.5 2.6-.7 3.9-.9 2.8-.3 5 .5 7.1 2.6 3.9 3.9 6.9 8.3 10.2 12.6 4 5.2 6.2 11.1 7.9 17.3 1.6 5.9 2.8 11.9 4 17.9.9 4.4 1.5 8.8 2.3 13.2.2 1.1-.1 2.5 1.6 2.9.1-.4.3-.8.3-1.1l-3.6-19.5c-.7-3.8-1.8-7.5-2.5-11.3-.9-5.1-2.5-10.1-5.1-14.5-3-5.2-6.6-10-10-15-4.5-6.6-10.2-8.2-17.6-5.2-8.6 3.5-17.2 6.9-25.8 10.3-7.8 3.1-15.7 6-23.6 9.1-2.4.8-4.7 1.9-6.9 4.6zm80.9 99.9c.5-.3.8-.4.9-.5.2-.7.4-1.4.5-2.1 2.3-13.3 1.7-26.6.3-39.9-.5-4.7-1.5-9.3-2-13.9-1.4-11.5-4.1-22.7-9.1-33.2-1.8-3.8-4.1-7.3-7.3-10.2-2-1.7-2.9-1.7-4.8-.5 1.6.9 3.5 1.6 4.8 2.9 1.9 2.1 3.8 4.5 5 7 2.3 5.1 4.7 10.4 5.9 15.8 2.3 9.9 4.2 20 5.4 30.1 1.8 14 2.4 28 .1 42.1-.1.8.2 1.6.3 2.4zm-64.4 80.3c.1.3.2.6.3.8 2.3-.2 4.6-.5 6.8-1.4 6.7-2.9 13.5-5.6 20.1-8.8 4.4-2.2 8.8-4.7 12.6-7.7 7.1-5.7 12.6-12.9 17.4-20.6 6.8-10.9 11.2-22.8 15.2-35 .4-1.3.4-2.6.6-4-.3-.1-.5-.1-.8-.2-.3.6-.7 1.1-.9 1.7-.4 1.4-.5 2.8-1 4.2-3.5 10.6-7.6 21.1-13.4 30.7-3.5 5.7-7.9 10.8-12 16.2-2.9 3.8-6.5 6.7-10.7 9-4.3 2.3-8.8 4.3-13.1 6.7-6 3.4-12.4 5.8-19.1 7.4-.8.1-1.4.6-2 1zm62-165.4c1.1 2.7 2.2 4.7 2.9 6.8 3.7 11.7 7.1 23.5 6.2 36-.1.8 0 1.7.1 2.5.5 10.9.9 21.9 0 32.8-.1 1.3-.2 2.5-.3 4 1.8-.2 2.2-1.2 2.3-2.5.2-3.2.5-6.5.5-9.7-.1-10.3-.4-20.6-.5-31-.1-5.8-.6-11.5-2.2-17.1-.2-.6-.2-1.2-.3-1.8-1.7-5.7-3.4-11.5-5.2-17.2-.5-1.1-1.1-2.3-3.5-2.8zm-2.4 47.6h1c.1-.8.4-1.6.3-2.3-1.3-10.1-2.7-20.2-6.6-29.8-3.6-9-9.6-15.9-16.8-22.1-1.1-.9-2.4-1.6-3.8-2.1-2.8-1-6.9 0-9.4 2.5 1.2-.2 2-.2 2.7-.4 3.5-1.1 6.8-.7 9.4 1.9 3.2 3.3 6.2 6.7 9.2 10.1 1.6 1.8 3.2 3.6 4.4 5.6 4.6 8.1 6.7 16.9 8.1 26 .6 3.5 1 7.1 1.5 10.6zM73.8 92c.4.2.6.3.6.2 1.5-1.3 3-2.7 4.6-4 9.6-7.5 19.7-14.1 30.7-19.4 12.7-6.2 25.7-11.4 38.8-16.5 2.8-1.1 5.7-1.9 8.8-1 .3.1.8-.3 1.4-.5-1.3-1.7-2.9-1.8-4.4-1.5-2.4.4-4.7 1-6.9 1.8-7.8 3.1-15.6 6.2-23.4 9.6-7.4 3.2-14.8 6.4-21.8 10.3-9.4 5.2-18.3 11.5-26.8 18.1-.9.7-2.1 1.3-1.6 2.9zm18-29.2c.2.3.5.6.7.8 1-.8 2-1.5 2.9-2.3 4-3.7 8.3-6.9 13-9.6 4-2.2 7.9-4.6 11.8-6.9 14.2-8.4 28.3-16.8 44.7-20.3 1.3-.3 1.4-1.1 1.1-2.5-1.5.3-3 .5-4.5 1-10.9 3.6-21.3 8.3-31.2 14-5 2.9-9.8 6.1-14.9 8.8-8.1 4.2-15.5 9.5-22.5 15.5-.3.4-.6 1-1.1 1.5zm20.4 176.7c.1.3.1.7.2 1 1.8.5 3.7.1 5.4-.5 5.3-1.9 10.5-4 15.8-5.9 13.5-5 23.6-14.2 31.1-26.3 3.9-6.4 7-13.4 10.5-20.1.6-1.2 1.2-2.4.3-4.2-.5.9-.9 1.5-1.2 2.1-3.9 7.6-7.3 15.5-11.7 22.7-5.5 9-12.6 16.6-22.6 21-8.6 3.8-16.9 8.2-26.3 9.5-.5.1-1 .5-1.5.7zm81.2-163c.3 0 .6 0 .8-.1 1-2 .8-4 .1-6-2.4-6.8-3.5-14.2-7.4-20.5-1.6-2.6-3-5.5-4.7-8-1-1.5-2.6-2.6-4.8-3.2 0 2.5 1.4 3.9 2.6 5.2 2.4 2.7 4.6 5.5 5.7 9.1 2 6.5 4.1 13 6.2 19.5.4 1.4 1 2.7 1.5 4zm-69.8-28.6c.6.2.8.2.9.2.4-.2.9-.4 1.3-.6 11.7-7 23.9-12.7 37.1-16.2 4.1-1.1 7.8-.8 10.7 2.9.7.9 1.6 1.5 2.5 2.3 1.2-1.7.4-2.6-.3-3.6-3-3.8-6.9-4.8-11.6-3.9-6.2 1.3-11.8 3.9-17.6 6.4-6.8 3-13.6 6.1-19.9 10-1 .6-1.9 1.5-3.1 2.5zM99.9 83.5c1.5-.8 2.6-1.2 3.6-1.8 4.3-2.6 8.3-5.8 12.9-7.9 10.6-4.9 21.4-9.4 32.9-11.7.6-.1 1.1-.6 1.9-1.2-9.5-1.2-45.9 14.9-51.3 22.6zm77-10.1c1.8-1.7 1.3-3 .6-4.4-1-1.9-2.3-3.8-2.8-5.8-1-4.3-4-7.2-6.7-10.4-.6-.7-1.5-1-2.2-1.5-1.1 1.3-.5 1.9.2 2.6 2.6 2.9 5.1 5.9 6.3 9.9.9 3.3 2.9 6.2 4.6 9.6zM96.7 240.2c.1-.3.2-.5.3-.8-1-.5-1.9-1.1-3-1.3-6.9-1.7-13.9-2.8-19.9-6.8-.7-.4-1.6-.5-2.8-.8 2.2 4.7 19.3 10.9 25.4 9.7zm85.9-205.4c-.1-.6 0-1-.2-1.2-2-3.4-5.2-5.5-8.6-7.4-1-.5-2.3-.5-2.9.7 2.2 1.3 4.2 2.6 6.2 3.8 1.9 1.1 2.5 4.1 5.5 4.1zm9.1 75.5c-.4 4 .9 8.7 3 10.4-.9-3.9-1.5-7.3-3-10.4zm-140.5-5.2c-1.6 1.9-3.3 3.2-4.2 4.9-.9 1.7-3.2 2.7-3.1 5.4 3.1-2.9 6.8-8 7.3-10.3zm81.8-33c-2.7-1.5-6.9-.3-9.4 2.9 3.2-.9 6.4-1.9 9.4-2.9zm-29.6 171.3c1.3 2.3 3 2 4.4 1.9 1 0 2.5.5 2.9-1.8-2.4-.1-4.6-.1-7.3-.1zM84.5 67c-2.5-1-3.5 1-4.8 1.9-1.4 1-2.7 2.2-4 3.4.2.3.4.5.6.8 2.6-2 5.2-3.9 8.2-6.1zM107 241.1c-2.3-2.6-2.9-2.7-5.3-.3 2 .1 3.4.2 5.3.3zm72.1-69.9c-1.9 1.9-1.9 1.9-.6 4.7 1.4-1.2.8-2.7.6-4.7z"/><path class="st0" d="M88 273.3c.9-.1 1.6-.3 1.5-1.5-.2-1.4-.2-2.7.1-4.2 2.7 2 .9 5.6 3 8.2 2.7-2.1-.6-5.3 1.6-7.7 2.4 2.4 1.4 6.1 3.4 8.7 1.5-1.2.7-2.6.7-3.8-.1-1.3-.3-2.6-.4-4.2 1.7.2 3 .3 4.5.4 1 4.1-.5 8.2 1.4 11.9.1.1.4.1 1.1.3 0-3.9-.1-7.8-.1-11.5 2-.7 2.3.2 2.4 1.5.2 3.4.4 6.7.6 10.1.1.9.2 1.7.4 2.6.2 0 .5 0 .7.1.2-.7.6-1.4.6-2.1 0-3.5-.1-7-.2-10.5 0-1-.1-2.1 1.6-1.8 1.1 3.3 1 6.7 1.4 10.1.4 3.2-.5 6.6 1.8 9.5.4-6.5.3-13-.5-19.7 2.1-.3 4.2-.7 6.3-1 9.4-1.5 18.1-4.8 26.2-9.8 4.5-2.7 9.1-5.4 13.7-7.9.7-.4 2.1.3 3.3.5.1-.8.1-1.7.2-2.5 2.1-1.3 2.1 1.8 4.1 1.4-.1-1-.1-2-.2-3-.1-1.1-.4-2.2 1.3-2.6.7 1.1 1.3 2.2 2.1 3.6 1.8-2.1-.2-3.7.3-5.3 1.1-1.1 2.2-2.1 3.3-3.2.9.9 1.7 1.7 2.5 2.6.1.1.2 0 .6 0 1.1-2.1-2.3-5.5 1.8-6.9.8 1.2 1.6 2.4 2.5 3.7 1.6-1.6.7-2.9.2-4-.8-2.1-.2-3.5 2-4.4.8 2.1 1.5 4.1 2.3 6.2.3 0 .6-.1.8-.1.1-.7.4-1.5.3-2.1-.3-1.8-.7-3.5-1.1-5.3-.3-1.4-.2-2.6 1.3-3.3 1.9 1.5.8 4.8 3.9 6.3-.1-1.4-.1-2.4-.3-3.4-.3-1.7-.8-3.3-1.2-4.9-.3-1.4-.1-2.6 1.4-3.5 1.8 1.7.9 5.1 4.4 6.7-.7-2.6-1.4-4.4-1.7-6.4-.3-1.8-2-3.8.4-5.8 1.5 1.8 1.3 4.7 4 6.3.1-3-.8-5.2-1.5-7.4-.6-1.9-.7-3.5 1.2-5.1.8 1.6 1.5 3.1 2.4 4.9 1.9-2.1.3-3.9.2-5.6-.2-1.8-1.7-3.5-.6-6 1.2 2.1 2.2 3.8 3.2 5.5.2-.1.5-.2.7-.3.1-2.4-.6-4.8-1.6-7-.7-1.6-1.3-3.1.5-4.7 1 1 1.9 2 3.2 3.3.2-1 .6-1.7.4-2.2-.5-1.3-1-2.7-1.9-3.9-1.2-1.7-1-3 .3-4.8 1.1 1.6 2 3 3 4.3.2-.1.5-.2.7-.2.1-.6.4-1.3.2-1.8-.7-1.7-1.3-3.4-2.3-4.9-1.1-1.6-1.2-3-.1-4.9 1 1.2 1.9 2.3 3.2 3.8.9-4.1-2.6-6.1-2.1-9.4.6 1 1.1 2 1.8 2.9.7.9 1 2.2 3 2.3-1-3.9-2.6-7-5.3-10 .3-1 .6-2.2 1-4 1.9 2.6 3.4 4.7 4.9 6.8.2-.1.5-.1.7-.2 0-.7.3-1.5 0-2.1-1.3-2.2-2.7-4.3-4-6.4-.5-.8-1.7-1.5-.7-2.9 2.4.8 1.5 5 5.3 5-.8-3.8-3.1-6.7-4.2-10.2 1.1.9 2.3 1.8 3.4 2.7.3-.2.5-.4.8-.6.1-3.1-3.4-4.6-3.7-7.7 1.2.4 2.3.9 4.1 1.5-.9-3.8-4.9-5.7-3.8-9.7 1.7.5 2.1 3 4.5 2.7-.3-3.6-4.3-5.5-4.2-9.2 1.9-.2 1.6 3.1 4 1.8-.3-3.6-4.1-5.8-4.2-10.1 1.3 1.3 2.2 2.2 3.5 3.7.3-4.4-3-6.9-3.1-10.6 1 .6 1.9 1.1 3 1.7.9-3.6-2.5-5.3-2.7-8.5 1.2.9 2.1 1.7 3 2.4 1.5-1 .7-2.1.2-2.9-.8-1.5-1.9-2.8-2.7-4.3-.6-1.1-.8-2.3-1.1-3.5.2-.1.5-.2.7-.3.6.9 1.1 1.8 1.8 2.5.3.3 1 .4 1.5.5.2-.5.6-1.2.4-1.5-1.3-2.2-2.6-4.2-4-6.3l-1.2-1.8c.2-.1.4-.3.6-.4.8.9 1.7 1.7 2.8 2.9 1.3-4.4-2.3-6.4-3.4-9.5.9.5 1.7 1.1 2.8 1.7 1.1-2.9-1-4.2-2.3-5.8-.8-.9-1.8-1.6-.9-3.2 1.1 1.4 2.2 2.8 3.2 4.1.2-.1.5-.3.7-.4.1-3.5-1.9-6.1-4.1-8.3h4.2c5.5 5.8 11.3 12.3 13.5 21.2-1.9-2.5-3.8-5.1-5.8-7.5-1.3-1.5-2.9-2.9-4.4-4.2-.4-.3-1.3-.1-1.9-.1.1.7 0 1.7.4 2.2 2.2 2.5 4.7 4.7 6.8 7.3 2.4 3 4.6 6.2 6.7 9.4 1.4 2 1.6 4.4 1.8 6.8-3.4-4.1-6.6-8-9.9-11.9-.1-.2-.7 0-1.3 0 .2.8.1 1.5.5 2 4.1 5.7 8.3 11.2 12.2 16.9 1.1 1.6 1.6 3.6 2 5.7-2.7-2.3-4.2-5.9-7.8-7.1-1 1.4-.3 2 .4 2.8 2.7 3.4 5.4 6.8 7.8 10.3 1.1 1.7 1.6 3.9 2.1 6-3-3.2-5-7.1-8.5-10.1-1.1 2.2 0 3.2.8 4.3 3.8 4.9 6.8 10.2 8.5 16.2.1.3.1.7.2 1.2-1.5-2.3-2.8-4.4-4.2-6.5-2.9-4.4-3.3-4.7-5.8-4.3 5.3 7.6 10.5 15.2 11.2 24.6-.3.1-.6.2-.9.4-.6-1.5-1-3.1-1.8-4.5-1.6-2.9-3.3-5.8-5.1-8.7-.8-1.2-1.8-2.3-3.5-.9 6.4 8.9 10.4 18.6 10.8 29.6-1.6-4.3-3-8.7-4.7-13-.8-2-1.9-3.9-2.9-5.8-.6-1-1.5-1.8-2.6-.9-1 .8 0 1.6.5 2.5 4.7 8.2 8 16.9 9 26.3 0 .3-.1.7-.3 1.9-.6-1.6-1-2.5-1.3-3.4-.9-2.5-1.8-5-2.5-7.5-.9-3.5-3.9-4.8-6.3-6.8-1.3 1.3-.2 2.1.3 2.9 1.7 3 3.6 6 5.1 9.1 1.6 3.2 2.4 6.8 2.4 10.9-1.8-3.6-3.4-6.8-5-9.9-.3-.5-.5-1.1-.9-1.6-.5-.7-1.1-1.6-2-.8-.3.3-.2 1.3 0 1.9.8 1.9 1.6 3.7 2.6 5.5 2.6 4.6 3.5 9.7 3.9 14.9.1 1.8.3 3.5-1.2 5.4-1.2-4.7-1.2-9.4-3.9-13.3-.4-.5-1.1-.8-2.1-1.6l-1 4c-.3-.4-.6-.9-1-1-.5-.1-1.1-.1-1.5.2-.3.2-.4 1-.2 1.2.3.4 1 .8 1.4.7.5-.1.8-.8 1.3-1.2.1 1.3.1 2.6.3 4 .2 1.6-.5 2.5-1.9 2.7-.1.4-.2.7-.2.8 1.7 4.8 2.1 9.8 2.1 14.9 0 1.4.3 2.9.7 4.3.4 1.5.2 2.8-1.1 4.2-1.3-2.7-.9-5.3-1.4-7.8-.4-2.4-.3-5-2.2-7.8-.3 1.4-.6 2.1-.5 2.8.7 5.4 1.6 10.7 2.3 16 .1 1-.1 2.1-.6 3.1-1.4 3.1-3 6-4.6 9.4-1.4-5 .5-10.2-1.6-14.8-1.6-.3-1.6.6-1.6 1.5.1 2 .3 4.1.3 6.1.1 3.7.1 7.4 0 11.2 0 .7-.6 1.4-1.2 2.1-1.5-5 .2-10.4-2.1-16.1-.6 1.2-1.1 1.8-1.1 2.4.1 5.5.2 11.1.5 16.6.1 1.9-.4 3-2.5 4-.3-3.4-.6-6.5-1-9.7-.1-1.2-.2-2.4-.6-3.5-.1-.5-.9-.7-1.5-1.2-.7 5.2 0 16.4 1.2 19.3-2.9 2.8-5.9 5.7-9 8.7-1.7-1-1.3-2.7-1.4-4.2-.2-3-.2-6-.4-9-.1-1.2.1-2.7-2-3.3-.1 1.1-.2 2-.1 2.8.3 4.7.6 9.4.9 14 .2 3 .2 3-3.1 4.6-2.1-5.7 0-12-2.6-18.1-.6.9-1.3 1.4-1.3 1.9.3 5.4.7 10.8 1.2 16.2.1.7.5 1.3.9 2.3-3.5 2.3-6.9 4.6-10.9 7.2-.3-2.1-.7-3.4-.7-4.8-.2-4.8-.2-9.6-.5-14.4-.1-1.4-.5-2.8-.9-4.2-.1-.4-.8-.7-1.6-1.4-.1 1.1-.4 1.8-.3 2.4 1.4 7 .8 14.1 1.2 21.2.1 2.4-.8 3.3-3.5 3.7-.2-2-.5-3.9-.6-5.9-.3-5.6-.5-11.3-.8-16.9 0-1 .2-2.3-1.9-2.4 0 1.4 0 2.8.1 4.2.2 6.5.5 13 .7 19.5.1 2.3-.6 4-3.5 4.4-.1-1.3-.2-2.5-.2-3.8 0-1.9-.4-3.6-1.1-5.4-1-2.6-.6-5.7-.8-8.5-.2-2.8-.3-5.5-.5-8.3-.1-.8-.6-1.6-1.3-2.4-1.5 2.4-.2 4.8-.2 7.1 0 2.5.3 5 .3 7.6.1 2.4-.1 4.8 0 7.2.1 2.5.5 5 .9 7.7-1.1.5-2.5 1.1-4.1 1.8-1.2-3.5-1.3-6.8-1.4-10.2-.1-5.4-.3-10.8-.5-16.2-.1-1.2-.5-2.5-.8-3.7-.2 0-.5-.1-.7-.1-.5.7-1 1.5-1.4 2.2h.1c-1-1.3-2.1-1.7-3.1-.1h.1c-.7-1.1-.1-3-2.4-3.7-.5 3.9.7 7.5.6 11.1-.1 3.7.2 7.4.3 11.2.1 3.7.2 7.4.3 11.6-3.1.2-6.4.7-9.8.7-6 0-12-.2-18-.4-2-.1-4.2-.4-4.8-3.5-3.6 2.8-6.8 1.1-10-.3-6.4-2.7-12.6-5.9-17.8-10.6-5.5-5-10.9-10.1-16.6-14.9-3.5-3-6.3-6.5-8.5-10.9 4.7 1.5 9.4 3 14 4.5.6 1.3 1.1 2.6 1.9 4.5.7-1.4 1.1-2.2 1.5-2.9.3.1.4.1.4.2.4 1.7.8 3.4 1.2 5.2 3-1.1.3-3.5 1.8-4.9 1.3 2.1.2 4.8 1.4 6.8-.3 0-.5.1-.7.1-1 .3-1.4.9-.8 1.8.3.4.9.6 1.4.9.3-.7.6-1.3.7-2 0-.2-.4-.5-.6-.8zm54.6 26.3c0-2.2 0-3.7-.1-5.1-.3-4.5-.8-9.1-.9-13.6-.1-4 0-7.9.1-11.9 0-1 .1-2.1-1.2-2.1-.4 0-1 1.2-1 1.9v17.7c0 1.9-.2 3.7-.3 5.9 2.8 1 .1 4.9 3.4 7.2zm4.3-1c1.6-1 1.3-2.4 1.1-3.8-.4-3.2-.8-6.4-1-9.7-.3-5.5-.5-11-.8-16.6 0-.7-.5-1.4-.7-2.2-1.7 1-1.2 2.3-1.2 3.5 0 1.6.3 3.1.3 4.7.3 6.6.5 13.2.8 19.8 0 1.5-.2 3.2 1.5 4.3zm-13.2-32.7c-.1 1.3-.1 2.3-.1 3.4 0 2.8.1 5.5.2 8.3.1 4.8.1 9.6.3 14.4 0 1.1.2 2.2.5 3.2.2.5 1 .8 1.5 1.2l.9-1.8c.1-.2 0-.5-.1-.7-1.6-3.1-.9-6.4-1-9.6-.1-4.7-.1-9.4-.3-14.1 0-1.4.4-3.2-1.9-4.3zm-5.8 3c-.1 1.2-.1 1.8-.1 2.3.1 6.2.2 12.5.5 18.7.1 2.2.4 4.3.7 6.4.1.5.9.8 1.4 1.3.2-.6.7-1.2.7-1.7-.2-3.7-.5-7.4-.7-11.1-.1-3.6 0-7.2-.2-10.8-.1-1.6.1-3.6-2.3-5.1zm-7.2 1.8c.4 3.8.8 7.3 1 10.7.2 3.1 0 6.2.1 9.3 0 1.1.2 2.2.5 3.2.4 1.2 1.3 1.3 2.2.3-.2-1.4-.6-2.8-.6-4.2-.1-3.8 0-7.7-.2-11.5-.1-2.3-.5-4.5-.9-6.7-.2-1.3-.9-1.9-2.1-1.1zm-2.3 22c.3 0 .6-.1.9-.1.2-.5.4-1.1.4-1.6-.1-3.6-1.5-7.3.3-10.9.1-.3 0-.8-.2-1-1.6-1.9-1.2-4.3-1.6-6.5-.2-.9 0-2-1.9-1.9-.2 6.5.8 13 1.1 19.5 0 .8.7 1.6 1 2.5zm65.5-8.2c.5-.8.9-1.2.9-1.5-.4-6.2-.8-12.4-1.3-18.6 0-.4-.6-.7-1-1.1-.2.1-.5.1-.7.2 0 1.2 0 2.5.1 3.7.1 3.4 1.2 7 .2 10-1.2 3.3.7 4.7 1.8 7.3zm34.6-60.5l-.9.6c.3 2 .7 3.9.9 5.9.2 1.9.2 3.8.4 5.7.2 1.9-.6 3.9.8 5.7.5-.4.8-.5.8-.6.7-5 .8-10-.3-15-.2-.9-1.1-1.6-1.7-2.3zm-16.6 46.6c1.6-2.5 1.8-5.7.7-12.2-.3-1.6.1-3.7-1.9-4.6-.3.3-.7.4-.7.5.3 4.9.7 9.8 1 14.7.1.4.5.7.9 1.6zm17.6-140.4c-1 .1-1.7.1-2.2.4-.3.2-.5 1.4-.3 1.4.5.3 1.4.6 1.8.4.4-.3.4-1.2.7-2.2zm-4.6 73.2c-.3-1.8-.2-2.5-.5-2.9-.2-.3-1-.1-1.5-.1 0 .7-.2 1.5.1 2.2.1.3.9.4 1.9.8zm-4.2 30.8c.2.9.1 1.7.5 2.1.2.2 1 0 1.5 0 0-.6 0-1.3-.2-1.8-.2-.3-1-.3-1.8-.3zm10.8-82.8c-1.6 1.6-1.8 2.5-.8 3.2.2.2.8-.1 1.2-.1-.1-.8-.2-1.6-.4-3.1zm-3.9 26.4c0-1 .2-1.8-.1-2.3-.1-.3-.9-.3-1.4-.4-.1.6-.3 1.3-.2 1.8.1.4.8.5 1.7.9zm-13.7 47.6c0-.9.1-1.8-.1-1.9-.5-.2-1.3-.3-1.8-.1-.2.1-.3 1.3-.1 1.5.4.3 1.1.3 2 .5zm-10.7 24.1c-.4.8-1.1 1.6.1 2.3.3.2 1.3-.1 1.4-.4.5-1.2-.2-1.7-1.5-1.9zm32.1-132.7c-.8.2-1.5.3-1.7.6-.3.4-.1 1-.1 1.6.6-.1 1.3 0 1.8-.3.3-.2.1-1.1 0-1.9zm-48 136.2c-.1-.3-.1-.7-.2-1-.4.2-1 .4-1.2.7-.3.5-.3 1.2-.3 1.8 0 .1 1.1.3 1.1.2.3-.5.4-1.1.6-1.7zm-73.6 37c-.9.1-1.6 0-1.9.3-.2.3-.1 1 .1 1.4.1.1 1 .1 1.2-.1.3-.2.4-.8.6-1.6zm46.6-27c-.9.1-1.4 0-1.9.2-.2.1-.3 1-.1 1.2.4.3 1 .3 1.5.5.1-.6.2-1.1.5-1.9zm68.5-165.6c-.3-1-.5-1.6-.8-2.1-.1-.1-1.1 0-1.1.2-.1.6-.2 1.3.1 1.8 0 .1.9 0 1.8.1z"/><path class="st0" d="M155 269.9c.5 2.1 1.4 4.1 1.5 6.2.2 3.9-.1 7.9-.1 11.8 0 3.5.1 6.9.1 10.6-.8.2-1.5.5-2.4.7-.2-.4-.4-.7-.4-1.1l-.9-4.2c-.1-.6-.2-1.2-.3-1.7-.6-2.3 1.5-4.4.2-7.1-1.1-2.1-.3-5.2-.4-7.8-.1-2.5-.1-5-.2-7.5h-.1c1.5 2 1.5 2 3 .1zM35.8 254c-2.9-2.8-5.9-5.5-8.4-9.4 3.4.2 4.9 2.6 7 3.7 2.1 1.1 4.1 2.4 6.2 3.6.8 1.6-.8 3.7 1.5 5.1.4-.7.8-1.3 1.5-2.3.1 2.2-.2 4.5 2.9 4 .3 1.6.5 3.1.9 5.4-2.1-2-3.7-3.6-5.4-5.1l-5.4-4.8c1.3-.3 1.8-1.1 1.3-2.3-.1-.2-.8-.5-.8-.5-.5.7-1 1.3-1.4 2-.2.1 0 .4.1.6zM222 86.1c-2.7-3.1-5.4-6.2-8.1-9.4-1-1.2-2-2.6-4-.6-.5-1.3-1-2.4-1.8-4.1 1.6.7 2.5 1.1 3.5 1.5.1-.6.3-.9.2-1.2-.7-1.6-1.5-3.2-2.5-5.1 6.2 5.3 9.4 12.1 13.4 18.4-.3.2-.5.4-.7.5zm6.4 138.2c-1.1-6.7-1.6-13.4-1.1-20.1 2.4 4.3 2.3 9 2.9 13.5.5 2.5-.1 4.6-1.8 6.6zM208.4 59c3.2 3.4 6 7 8.1 11.1-.2.2-.4.3-.6.5-2.5-2.5-5-5-7.3-7.7-.7-.9-.7-2.3-1.1-3.5.3-.2.6-.3.9-.4zM59.6 272.5l-.6-14.1c1.8 4.6 1.8 9.4 1.5 14.1h-.9zm-2.9-14.2c.2 4 .4 8.1.6 12.8-.9-.8-1.7-1.1-1.7-1.5 0-3.8 0-7.6.1-11.4.3.1.6.1 1 .1zm-7.2 6.1c.8 0 1.6 0 2.3-.1.4-.1.7-.5 1.5-1.2 0 1.9.1 3.2.1 5.3-1.8-1.3-3.1-2.2-4.3-3.1.2-.3.3-.6.4-.9zm20.8 7.4c.7 2.6 1.4 5.1 2.1 8-2-1.5-2.4-2.8-2.1-8zm-20.4-10c-1.1-2-1.4-3.9-.2-6.3 1.4 2.4.6 4.4.2 6.3zm13.8 4.5c.2 2 .4 4 .7 6.5-1.8-2.6-1.9-2.8-.7-6.5zM209.8 56c-2.7-2-2.7-2-2.5-4.7.9 1.7 1.6 3 2.5 4.7zM82.4 283.3c.5.6 1 1.3 1.7 2.1-2.1.3-1.7-1.1-1.7-2.1z"/><path d="M173.6 150.7c.2-5.1.3-10.2.4-15.3.2.3.8.8.8 1.4.2 2.1.5 4.3.4 6.5-.3 7-.3 14-1.2 20.9-1 7.2-2.8 14.4-4.4 21.5-1.9 8.2-5.4 15.7-10.3 22.5-2.5 3.5-5.7 6.5-9 9.3-8 6.7-17.2 11.1-27.2 13.6-6.7 1.7-13.7 2.9-20.7 2.8-2.1 0-4.3-.3-6.4-.7-6.1-1.1-12.3-2.3-18.4-3.5-1.6-.3-1.6-.4-2.6-2.3 2.8.5 5.3 1 8.4 1.5-1.1-1.6-2.3-1.8-3.3-2.1-3.9-1.1-7.8-2.3-11.8-3.4-5.8-1.6-10.5-4.8-14.9-9-4.9-4.7-8.6-10.1-11.5-15.9-1.7-3.4-2.4-7.3-3.1-11.1-.8-4.9-1-9.8 0-14.7.8-3.9 1.4-7.8 2.2-11.7 1.3-6.5 4.4-12.2 7.8-17.8 4.8-8 9.5-16.2 15-23.8 8.3-11.5 18.1-21.4 30.7-28.5 7.4-4.2 15.2-7.3 23.2-9.9 4.2-1.3 8.7-1.8 13.1-1.9 3.5-.1 7.1 0 10.7.6 5.3.9 8.6 4.2 11.4 8.1 6.5 9.1 11.2 19 13.8 30 .6 2.5 1.3 4.9 2.1 7.3 1.9 6.2 3 12.6 3.1 19.2 0 2.2.3 4.5.5 6.7.3-.3.7-.3 1.2-.3zM42.7 174.3l.6-3.9 2.1-11.4c-.8.1-1.1.3-1.2.6-.7 4.1-1.5 8.2-2.1 12.4-.1.7.4 1.5.6 2.3-2.6 2.6-1.2 5.3.1 8 0-2.6 0-5.3-.1-8zm105.9 21.3c-.9 1.1-1.8 2.2-2.7 3.4-2 2.4-3.8 5-6 7.2-2.8 2.8-5.8 5.3-8.8 7.9-2.1 1.8-4.4 3.6-6.6 5.3.6.1 1.2.1 1.6-.2 4.1-3.1 8.4-6 12.2-9.4 4.4-3.9 7.9-8.6 10.3-14 .6-.9 1.2-1.9 1.9-2.8-.3-.1-.5-.3-.8-.4-.3.9-.7 2-1.1 3zm7.9-40.7c-.5 1.5-1.3 2.9-1.3 4.4.1 6.5-1.5 12.6-3.7 18.6-1.7 4.4-3.5 8.7-5.1 13.1-.9 2.6-1.6 5.2-2.4 7.8 1.3-1.3 2.5-2.7 3.3-4.3 1.4-2.7 2.6-5.4 3.8-8.2.6-1.5 1-3.1 3.1-2.3 2.1-6.6 2.3-13.2 2.5-19.8.1-3.1 0-6.2 0-9.3.2-1.1.4-2.3.7-3.4-.3 0-.6 0-.9-.1-.1 1.2-.1 2.3 0 3.5zm-84.1 1.5h.5c-.2 1.4-.2 2.9-.5 4.3-2 10.3-2 20.6 1.3 30.7.8 2.4 1.8 4.8 2.7 7.1.3-.1.6-.1.9-.2-6-16.3-5.8-32.4 1.2-48.2-2.3 13-5.7 25.9-1.5 39.1.2-.6.3-1.1.3-1.7-.4-6.2 0-12.3 1.3-18.3 1.3-5.9 2.5-11.8 4.1-17.6 3.3-11.8 7.9-23 14.4-33.3 8.4-13.3 19.3-24.3 30.8-34.8.6-.5 1-1.1 1.7-1.9-3.6-.1-10.8 1.3-13.7 2.6-.9.4-1.8.8-2.4 1.5-5.8 6.9-11.5 13.9-17.3 20.8-.5.6-1.2 1.1-1.9 1.7-.2-.2-.3-.4-.5-.6 4.3-8.2 11.6-14.1 17.1-21.5-3.8 1.3-7.4 2.8-10.9 4.6-7.9 3.9-14.8 8.9-19.5 16.6-.9 1.5-2 3-3.1 4.4-6.3 8.5-11.2 17.7-14.8 27.6-1.6 4.5-3 9.2-4 13.8-.8 3.6-.9 7.3-1.4 11.2.8-.3 1-.4 1.2-.5.2-.3.5-.6.5-.9-.2-4.6 1.5-8.9 2.4-13.4.9-4.6 2.4-9.1 3.6-13.6.1-.2.5-.4.9-.6.1.5.2.9.2 1.2l-.6 2.4c-2.2 7.5-4.5 15-3.6 23 .5 4.4.4 8.9 1.6 13 .5-6.3 1.1-12.6 1.6-18.9 0-.6.1-1.4-.3-1.6-1.5-1.1-1.2-2.7-.8-4 1.9-6.8 3.3-13.9 6.2-20.3 5.7-12.4 14.5-22.9 23.6-33.1.3-.3.8-.4 1.9-.9-1 2.4-2.1 3.9-3.3 5.4-3 3.6-6 7.1-8.9 10.8-7.2 9.2-13 19.1-15.8 30.5-.1.6-.2 1.1-.3 1.8.7 0 1.1-.1 1.7-.1-3.7 12.4-5.7 24.8-2.2 37.5-1-11.7.1-23.1 3.4-34.4 3.4-11.3 8.4-21.8 15.9-31-4.2 7.9-8.8 15.6-11.6 24.2-2.8 8.5-5.5 17-4.9 26.2.6-.8.9-1.6 1.1-2.5.6-2.7 1.1-5.4 1.7-8.1zm20.3 28c.5-1.8 1-3.7 1.5-5.5 4.2-15.5 10.2-30.3 18.4-44.1 2-3.4 4.5-6.5 6.7-9.8.2 0 .5.1.7.1-1 1.8-1.8 3.6-2.9 5.3-9.9 15.7-17 32.5-21.2 50.5-.8 3.2-1.2 6.5-1.7 9.7.3.1.6.1.9.2.4-1.4.8-2.9 1.1-4.3 2.6-12.2 7.5-23.5 13-34.6.2 0 .4 0 .6.1-.9 2.1-1.7 4.2-2.6 6.3-.4 1.1-.9 2.2-1.3 3.3-.6 1.9-.9 3.9-1.5 5.8-1.8 5.5-3.7 10.9-5.5 16.4-.3.8-.2 1.6-.3 2.5 2.1-4.6 3.9-9.2 5.6-13.8 1.8-4.6 2.6-9.6 5.4-13.8-1 5.5-3.2 10.7-5.1 15.9-2 5.5-3.8 11-5.7 16.5 5.2-7.5 6.9-16.3 10.3-24.4 3.4-8.1 6.8-16.2 10.1-24.3-.6 7.2-3.8 13.4-6.3 19.8-2.4 6.4-4.6 12.9-6.8 19.4-2.2 6.5-5.8 12.4-7.3 19.1 5.8-12.1 11.5-24.3 17.1-36.6.1-.3.4-.6.6-.9.1-.1.2-.1.3 0 .1 0 .2.1.6.4-1.3 5.9-4.5 11.1-7 16.7s-4.8 11.3-7.1 16.9c1.8-2.2 3.2-4.5 4.6-6.9 6-10.3 12-20.5 16.7-31.5.5-1.2 1.1-2.3 2.6-2.7.7-.2 1.4-1.2 1.8-2 2.6-6.1 5.4-12.1 7.6-18.3 4.9-13.8 8.6-28 11.8-42.3.1-.6.6-1.1.9-1.6.4 1.3.3 2.5.1 3.7-1.2 5.5-2.2 11.1-3.6 16.6-3.9 15.2-8.6 30.1-15.3 44.3-4.9 10.3-10.8 20.1-16.8 29.8-1.6 2.7-3 5.4-4.5 8.2-1.1 1.3-2.1 2.6-3.2 3.8.2.1.4.3.6.4.8-1.4 1.7-2.8 2.5-4.3.9-1 1.8-1.9 2.5-3 1.9-2.9 4.1-5.8 5.4-8.9 1.4-3.5 5.1-4.9 6.4-8.2l2.7 1.8c-.8 2.4-1.7 4.8-2.6 7.2 1.1.1 1.8-.2 2.1-.6 1.1-1.9 2.1-3.8 3-5.8 1.5-3.5 2.3-7.5 4.4-10.6 2.2-3.2 2.6-6.6 3.2-10.1.1-.8.4-1.6.8-2.3.5-1.1 1.2-2 1.5-3.2 1.2-4.8 2.3-9.6 3.5-14.4.2-.6.6-1.2.9-2 .6.5 1 .9 1.5 1.4 1-5.4 1.9-10.6 2.9-15.8 1-5.2 1.4-10.5 3.1-15.6.1 3.8.1 7.7-.5 11.4-1.9 11.9-3.9 23.7-6.2 35.5-1.2 6.1-2.3 12.5-4.9 18.1-4.3 9.5-8.6 19.1-16 26.8-4.3 4.5-8.1 9.5-12.3 14.2-1.5 1.7-3.2 3.1-4.8 4.6 2.2-1.7 4.1-3.7 6.2-5.5 6.5-5.6 12.4-11.7 16.9-19.1.4-.7.9-1.6 1.6-1.9 2.7-1 3.8-3.3 4.7-5.6 1.7-4.1 3.1-8.3 4.6-12.5.2-.6.6-1.1 1-1.8.6.8.9 1.3 1.3 1.9 1-2.8 2.2-5.3 2.9-7.9.7-2.5 1-5.2 1.7-7.7s-.7-5.3 1.2-8.3c.3 1.2.5 1.7.6 2.3.4 5.1-.3 10-2.2 14.8-.8 2.1-1 4.4-1.7 6.6-.9 3-1.1 6.4-4.9 7.7-.5.2-.8 1.1-1.2 1.7-.7 1.2-1.4 2.5-2 3.8-1.3 2.5-2.6 5.1-4 7.9 2.2-.8 2.3-3.7 5.3-4.2-1.9 4.9-5.3 8.2-7.7 12-2.4 3.9-5.4 7.4-7 9.6 5.8-5.3 11.1-13.1 16.2-21.1.7-1.2 1.8-2.2 2.6-3.3.6-.7 1.2-1.5 1.5-2.4 3.5-9.8 6.3-19.7 6.1-30.3 0-1.6 0-3.2 1.2-4.6 2.1 8.7.3 17.2-1.9 25.6-2.2 8.7-6.3 16.6-10.5 24.5-4.1 7.9-10.7 13.5-16.7 19.8 1.4-.4 2.7-.8 3.8-1.5 5.6-3.8 10.1-8.7 13.4-14.4 3.5-6.1 5.9-12.9 8.9-19.3 5.6-12 6-24.6 5-37.4 0-.5-.2-.9-.4-1.4-1.9-3.7-2.3-8.8-1-12.6 2.2 2.4 2.3 2.4 2.5 6 .2 3.7 1.2 7.2 2.9 10.5-.4-8-.8-16.1-1.1-24.1.3 0 .6-.1.9-.1.4 1.7 1.1 3.3 1.3 5 .5 5.9 1.3 11.8 1.3 17.6 0 9.1-.5 18.3-.9 27.4-.5 9.7-3.8 18.6-8.8 26.8-.4.6-.6 1.2-.9 1.7 1.1 1.1 1.7.6 2.1-.3 1.1-2.2 2-4.4 3.2-6.5 2-3.6 3.8-7.3 4.4-11.4.6-4 1.2-8.1 1.7-12.1.2-1.3-.2-2.9 1.8-3.8.4 18.2-7 33-18.1 46.4 3.1-3.3 6.2-6.6 8.8-10.2 8-11 11.5-23.7 13-37 .1-1 0-2.3-.6-3-1-1.2-1-2.4-.7-3.7.7-4 .1-7.9-.7-11.8-.8-3.5-1.2-7.1-1.7-10.7-.2-1.2-.5-2.5 1.1-4 1 5.5 1.8 10.5 2.7 15.4.3 0 .6-.1.8-.1-.2-4.8 0-9.7-.8-14.4-1-6-2.6-12-4.5-17.8-2.5-7.5-5.2-15-8.4-22.3-2.5-5.6-5.6-11.1-13-11.4-.7 0-1.4-.5-2.1-.6-3.4-.5-6.4-.6-9.1 2.5-4.8 5.5-10.2 10.5-15.2 15.9-6.2 6.7-11.6 14.1-16.4 21.9-6.9 11.3-10.7 23.8-14.3 36.5-4.5 16-4.1 31.8.6 47.7.7 2.2.6 2.2 2.1 3.6 0-.4-.1-.7-.1-1.1-1.5-8.9-3.8-17.7-3.5-26.8.2-5.5.5-11 .9-16.6 0-.8.4-1.9.9-2.1 1.4-.7 1.4-1.9 1.6-3 1.2-10.9 5.2-21 9.8-30.8.3-.6.8-1 1.4-1.8.1 2.3.1 2.3-1.2 5-3.6 7.7-6.5 15.5-8.2 23.8-1.1 5.7-1.3 11.4-3.5 17.1-1.5 4-.6 8.9.2 13.4 2.1-13.8 5.1-27.3 11.9-39.7-2.4 9.1-6.3 17.7-7.5 27.2.8-.5 1.4-.9 2.6-1.7-1.5 6.5-2.5 12.4-2 18.4.5-.7.7-1.5.8-2.3l1.2-11.1c1.3-9.8 4.3-19 8.9-27.7.6-1.2 1-2.6 3-2.8-.4 1-.5 1.7-.8 2.3-3.2 6.5-5.9 13.2-7.3 20.3-.9 4.8-1.4 9.7-2 14.6-.2.8-.4 1.6-.5 2.4h.6c.3-.8.4-1.7.4-2.5zm-31 22c-2.5-3.5-4.6-7-6-11.1-2.3-7-3.6-14.2-4.5-21.5-.4-3.3-1.3-7.2 1.8-10.1.2-.2.2-.7.2-1 .6-9.9 4.1-19 6.5-28.4.3-1.1.8-2.1 1.2-3.2.3.1.5.2.8.2-.4 2-.9 4.1-1.3 6.1 4.1-9.7 9.4-18.8 15.2-27.7-3.2 3.3-6.2 6.8-8.9 10.4-5.7 7.8-11.1 15.7-15.5 24.4-1.1 2.2-3.1 4.1-2.1 6.9.2.5-.6 1.2-.8 1.9-2.2 5.8-3.2 11.6-1.9 17.8 1.4-4.3 1-9 3.5-13.1.4.9.4 1.8.3 2.6-.4 4.8-1.2 9.6-1.2 14.3.1 7 1.7 13.8 4.5 20.3 1.8 4.4 4.9 7.9 8.2 11.2zm68.7-26.1c9.1-11.4 10-25.5 13.1-39-3.8 13.2-7.1 26.5-13.1 39zm-48.2 33.2c.3-.2.5-.4.8-.6-2.1-3.5-4.5-7-6.4-10.6-1.9-3.7-3.3-7.6-5.1-11.7 0 1-.1 1.7-.1 2.5.2 4.3 3.3 7.6 4.5 11.7 1 3.2 4.1 5.8 6.3 8.7zm32.6 4.2c6.5-2.1 19.6-15.6 20.9-22.1-5.9 9-12.8 15.9-20.9 22.1zm-6.6-1.3c4.7-1 7.8-4.3 11-7.5 6.6-6.6 7.9-8.2 8.2-11-6.3 6.6-11.4 14-19.2 18.5zm7.8-20l-17.4 19.5c7.8-4.8 12.4-12.4 17.4-19.5zm-38.6 17.2c-6.7-6.9-11.7-14-15.5-21.9 2.8 8.6 7 16.3 15.5 21.9zm12.4 15.5c6.6 3 14.2 3.5 18 1.7-6-.5-12-1.1-18-1.7zm-3.2-43.2c-.5 7.6-1.1 15.2 1.8 22.5-.5-7.5-1.2-15-1.8-22.5zm40 36.3c3.9-.6 7.4-2 10.9-5.2-4.1 1.9-7.5 3.6-10.9 5.2zm-81.3-42.8c-.3.1-.5.1-.8.2.8 2.8.4 6 2.2 8.5.3-.1.5-.1.8-.2-.7-2.8-1.4-5.6-2.2-8.5zm73.9 7.3c-.1-.1-.2-.1-.3-.2-1.1 1.7-2.3 3.5-3.4 5.2.2.1.3.2.5.3 1.1-1.8 2.2-3.6 3.2-5.3zm-2.6 0c.1.1.3.2.4.2.8-1.5 1.7-3 2.5-4.5-.1-.1-.2-.1-.3-.2-.9 1.6-1.7 3.1-2.6 4.5zm-10.9 17.6c.1 0 .2.1.3.1 1.3-1.7 2.7-3.5 4-5.2-.1-.1-.2-.1-.2-.2-1.4 1.8-2.8 3.6-4.1 5.3zm5.2-9.1c.1.1.2.2.3.2.5-.9 1.1-1.9 1.6-2.8-.1-.1-.2-.1-.3-.2-.5 1-1 1.9-1.6 2.8zm2.6 14.9c0-.1 0-.1 0 0-.3.3-.7.6-1 .9.3-.3.6-.6 1-.9zm25.4 2.7v.6c.2-.1.5-.2.6-.3.1-.1 0-.3 0-.5-.2.1-.4.1-.6.2zm-84-51.8h.4v-1.7c-.4.3-.6.6-.6.9-.1.2.1.5.2.8z"/><path d="M196 126.5c.1.6.3 1.1.3 1.7.2 12.4 0 24.8-2.4 37-1.6 8.3-3.8 16.4-6.6 24.4-1.6 4.6-3.6 9.2-5.2 13.8-3.3 9-8.9 16.4-15.2 23.5-1.2 1.3-2.4 2.7-3.5 4.1-3.1 3.8-7.1 6.5-11.3 8.9-4.6 2.6-9.3 5.3-14.3 6.9-7.2 2.3-14.2 5.4-21.8 6.1-3 .3-6 .5-9 .4-5.8-.2-11.5-.5-17.3-.9-2.2-.2-4.5-.5-6.7-1.2-7.8-2.4-15.7-4.6-23.3-7.6-16.2-6.5-27.1-18.6-33.2-34.7-3.7-9.7-4.9-20-4-30.5.9-9.5 1.7-18.9 4.2-28.1 2.5-8.9 6.7-17 11.5-24.8.3-.5.7-.9 1.2-1.4.1-.2.4-.2 1.3-.5-.8 1.5-1.3 2.6-2 3.5-6.9 10.5-11.1 22.1-13.1 34.5-1.5 9.3-2.2 18.6-1.5 28 .9 11.8 4.8 22.5 11.5 32.2 6.4 9.2 14.8 16 25.3 20.2 11.2 4.4 22.7 8.3 34.8 8.8 8.7.4 17.6 1.2 26.2-1 1.7-.4 3.4-1.2 5.1-1.7 4.1-1.4 8.4-2.4 12.2-4.2 6.1-2.9 12-6.2 17.7-9.6 2.4-1.5 4.4-3.7 6.4-5.8 10.5-11.3 18.1-24.2 22.3-39.1 2.1-7.4 4.5-14.7 6.2-22.2 2.2-9.9 3.2-19.9 2.9-30.1-.1-3-.2-6-.2-9 0-.5.5-.9.8-1.4.2-.3.4-.3.7-.2z"/><path d="M54.9 111.7c-1 1.8-1.8 3.7-2.9 5.4-6.4 10.4-12.1 21-15 33-.4 1.6-1 3.2-1.7 4.8-3.7 8.4-5 17.3-5.6 26.3-.2 2.8.4 5.7.7 8.6.2 1.5.3 3.1.7 4.6.5 2.5 1.1 4.9 1.8 7.3 2.7 8.2 7.1 15.5 12.7 22 6.8 8 15.4 13.3 25.9 15.3 6.5 1.3 12.9 2.8 19.4 4.1 2.8.5 5.7.6 8.6.8.5 1.2-.3 1.8-1.3 1.8-2.2.1-4.4.4-6.5-.1-7.3-1.5-14.5-3.3-21.8-4.9-.8-.2-1.6-.6-2.4-.7-8.8-1.2-15.2-6.4-21-12.4-3.7-3.9-7-8.2-9.9-12.8-3.5-5.5-5.9-11.6-6.8-18.1-.5-3.3-1.2-6.6-1.5-10-.8-10.1 1-19.9 4.4-29.4.8-2.2 1.7-4.3 2.3-6.5 3.4-13.4 10.2-25.1 17.1-36.8.5-.9 1.4-1.6 2.1-2.5.2.1.5.2.7.2z"/><path d="M70.9 77.9c-.5.7-.8 1.6-1.5 2.1-7.9 5.8-13.7 13.4-19.9 20.8-6.7 8-11.2 17.2-15.9 26.5-3.3 6.7-6.1 13.6-8.3 20.7-2.6 8.5-4 17.3-5 26.2-.5 4.4-1 8.8-1.3 13.3-.4 8.1.5 16 4.1 23.5 3.2 6.7 7 12.9 11.8 18.4 1.2 1.3 2.7 2.4 3.9 3.7.4.4.4 1.2.5 1.8-.6 0-1.5.2-1.9-.2-2.7-2.6-5.6-5.1-7.7-8-4.2-5.8-8.1-11.9-10.3-18.9-2.5-8.2-3.1-16.5-2-24.9.8-6.1 1.8-12.1 2.5-18.2.7-6.4 3-12.4 4.6-18.5 3.1-11.6 8.9-22 14.5-32.5 2.9-5.5 6.8-10.5 10.6-15.4 3.8-4.8 7.9-9.4 12.1-13.8 2.5-2.6 5.4-4.7 8.1-7.1.5.1.8.3 1.1.5zm27.5-13.6c2.2-2.7 4.5-3.8 6.9-4.7 7.8-3.1 15.7-6 23.6-9.1 8.6-3.4 17.2-6.8 25.8-10.3 7.4-3 13-1.4 17.6 5.2 3.4 5 7 9.8 10 15 2.6 4.5 4.2 9.4 5.1 14.5.7 3.8 1.8 7.5 2.5 11.3 1.3 6.5 2.5 13 3.6 19.5.1.3-.2.7-.3 1.1-1.7-.4-1.4-1.8-1.6-2.9-.8-4.4-1.4-8.8-2.3-13.2-1.2-6-2.4-12-4-17.9-1.7-6.1-3.9-12.1-7.9-17.3-3.3-4.3-6.4-8.7-10.2-12.6-2.1-2.1-4.4-2.9-7.1-2.6-1.3.1-2.6.4-3.9.9-8.6 3.3-17.2 6.7-25.9 10.1-3.9 1.5-7.8 3.1-11.8 4.5-6.2 2.2-12.5 4.3-17.9 8.4-.2.4-.9.1-2.2.1z"/><path d="M57.8 116.8c-2.8 4.7-5.8 9.4-8.5 14.2-3.8 6.7-7 13.7-9.2 21.1-1.3 4.5-3 8.9-4.1 13.4-.6 2.5-.7 5.2-.8 7.9-.2 3.8-.1 7.7-.2 11.5-.2 6.8 2 13 4.8 19 1 2.2 2.3 4.2 3.5 6.3 2.4 4.2 6.5 6.7 9.9 9.8 3 2.6 6.1 5.1 9.8 6.6.5.2.9.7 1.9 1.6-1.4.1-2.3.5-2.8.2-2.7-1.5-5.4-3-8-4.8-2.1-1.4-3.8-3.3-5.9-4.8-5.1-3.6-8.3-8.6-10.5-14.3-2.8-7.4-5.3-15-4.2-23.2.4-2.5-.2-5.1 0-7.6.3-3.6.5-7.2 1.4-10.7 2.6-10 6-19.8 10.8-29 2.8-5.3 6.2-10.3 9.4-15.4.5-.8 1.3-1.4 2-2 .4.2.5.2.7.2zm121.5 47.4c-.1-.9-.4-1.6-.3-2.3 2.3-14 1.7-28.1-.1-42.1-1.3-10.1-3.2-20.2-5.4-30.1-1.2-5.4-3.6-10.7-5.9-15.8-1.1-2.6-3-4.9-5-7-1.2-1.3-3.2-2-4.8-2.9 1.9-1.2 2.8-1.2 4.8.5 3.2 2.8 5.5 6.3 7.3 10.2 5 10.5 7.6 21.7 9.1 33.2.6 4.6 1.5 9.2 2 13.9 1.4 13.3 2 26.6-.3 39.9-.1.7-.3 1.4-.5 2.1-.1 0-.4.1-.9.4zm-64.4 80.3c.6-.4 1.2-.9 1.8-1.1 6.7-1.6 13.1-4 19.1-7.4 4.3-2.4 8.8-4.4 13.1-6.7 4.2-2.2 7.8-5.2 10.7-9 4.1-5.4 8.5-10.5 12-16.2 5.8-9.6 9.9-20 13.4-30.7.5-1.4.6-2.8 1-4.2.2-.6.6-1.1.9-1.7.3.1.5.1.8.2-.2 1.3-.2 2.7-.6 4-3.9 12.2-8.4 24.1-15.2 35-4.8 7.7-10.3 14.9-17.4 20.6-3.8 3.1-8.2 5.6-12.6 7.7-6.6 3.2-13.4 6-20.1 8.8-2.2.9-4.5 1.3-6.8 1.4.1-.1 0-.4-.1-.7zm62-165.4c2.4.4 3.1 1.7 3.4 2.9 1.8 5.7 3.5 11.5 5.2 17.2.2.6.2 1.2.3 1.8 1.6 5.6 2.1 11.3 2.2 17.1.1 10.3.4 20.6.5 31 0 3.2-.3 6.5-.5 9.7-.1 1.3-.5 2.3-2.3 2.5.1-1.5.2-2.7.3-4 .9-10.9.5-21.9 0-32.8 0-.8-.1-1.7-.1-2.5.9-12.5-2.5-24.3-6.2-36-.6-2.2-1.7-4.2-2.8-6.9z"/><path d="M174.5 126.7c-.5-3.5-.9-7-1.5-10.6-1.4-9.1-3.5-17.9-8.1-26-1.2-2-2.8-3.8-4.4-5.6-3-3.4-6-6.8-9.2-10.1-2.6-2.7-5.9-3-9.4-1.9-.7.2-1.5.2-2.7.4 2.5-2.5 6.6-3.5 9.4-2.5 1.3.5 2.7 1.1 3.8 2.1 7.1 6.2 13.1 13.1 16.8 22.1 3.9 9.6 5.3 19.6 6.6 29.8.1.8-.2 1.6-.3 2.3h-1zM73.8 92c-.4-1.6.7-2.2 1.6-2.9 8.5-6.6 17.4-12.9 26.8-18.1 7-3.9 14.5-7.1 21.8-10.3 7.7-3.4 15.5-6.5 23.4-9.6 2.2-.9 4.6-1.4 6.9-1.8 1.5-.3 3.1-.2 4.4 1.5-.6.3-1.1.6-1.4.5-3.1-.8-6 0-8.8 1-13.1 5-26.2 10.3-38.8 16.5-11 5.4-21.1 12-30.7 19.4-1.6 1.2-3.1 2.6-4.6 4 0 .1-.2 0-.6-.2zm18-29.2c.4-.5.8-1.2 1.3-1.6 6.9-5.9 14.3-11.2 22.5-15.5 5.1-2.7 9.9-5.9 14.9-8.8 9.9-5.7 20.3-10.4 31.2-14 1.4-.5 3-.7 4.5-1 .3 1.5.1 2.3-1.1 2.5-16.4 3.5-30.6 11.9-44.7 20.3-3.9 2.3-7.8 4.7-11.8 6.9-4.8 2.6-9 5.9-13 9.6-.9.8-1.9 1.6-2.9 2.3-.4-.1-.6-.4-.9-.7zm20.4 176.7c.5-.2.9-.6 1.4-.7 9.4-1.3 17.8-5.7 26.3-9.5 10-4.4 17.1-12 22.6-21 4.4-7.3 7.8-15.1 11.7-22.7.3-.6.7-1.2 1.2-2.1.9 1.7.3 3-.3 4.2-3.4 6.7-6.5 13.7-10.5 20.1-7.4 12.1-17.5 21.3-31.1 26.3-5.3 2-10.5 4-15.8 5.9-1.7.6-3.6 1-5.4.5.1-.3 0-.6-.1-1zm81.2-163c-.5-1.3-1.1-2.6-1.5-4-2.1-6.5-4.2-12.9-6.2-19.5-1.1-3.6-3.2-6.4-5.7-9.1-1.3-1.4-2.6-2.7-2.6-5.2 2.2.5 3.8 1.7 4.8 3.2 1.8 2.6 3.1 5.4 4.7 8 3.9 6.3 5 13.6 7.4 20.5.7 2 .9 4.1-.1 6-.3 0-.6 0-.8.1z"/><path d="M123.6 47.9c1.2-1 2.2-1.8 3.2-2.5 6.3-3.9 13.1-7 19.9-10 5.7-2.5 11.4-5.1 17.6-6.4 4.6-1 8.6 0 11.6 3.9.7.9 1.5 1.9.3 3.6-.9-.8-1.8-1.4-2.5-2.3-2.9-3.6-6.6-4-10.7-2.9-13.2 3.5-25.5 9.2-37.1 16.2-.4.2-.8.4-1.3.6-.2 0-.4-.1-1-.2zM99.9 83.5c5.4-7.7 41.9-23.7 51.2-22.6-.8.5-1.3 1.1-1.9 1.2-11.5 2.3-22.3 6.8-32.9 11.7-4.5 2.1-8.6 5.3-12.9 7.9-.9.6-2 1-3.5 1.8zm77-10.1c-1.7-3.4-3.7-6.3-4.7-9.5-1.2-4-3.7-7-6.3-9.9-.7-.8-1.3-1.4-.2-2.6.7.5 1.6.8 2.2 1.5 2.7 3.1 5.7 6 6.7 10.4.5 2 1.8 3.9 2.8 5.8.7 1.2 1.3 2.5-.5 4.3zM96.7 240.2c-6.1 1.1-23.2-5.1-25.4-9.7 1.2.3 2.1.3 2.8.8 6.1 4 13.1 5.1 19.9 6.8 1 .3 2 .9 3 1.3-.1.3-.2.6-.3.8zM82.8 74.5c-2.7 2.5-5.5 5-8.2 7.5-.4.4-1 .7-1.4 1.1-4.6 4.1-9.2 8.1-13.7 12.3-1.9 1.8-3.4 4-5.6 6.6.1-1.4 0-2 .3-2.5.4-.8 1-1.7 1.7-2.3 4-3.8 8-7.5 12.2-11.2 4.1-3.6 8.2-7 12.4-10.4.7-.6 1.6-1 2.4-1.4-.1 0-.1.1-.1.3zm-25.5 42.3c2.7-3.6 5.2-7.5 8.3-10.8 4.7-5.1 9.7-10 15.9-13.4.5-.2 1-.4 1.5-.5.1.2.3.4.4.7-1.4 1-2.7 2.1-4.2 3-5.2 3-9.1 7.4-13.1 11.7-2.8 3.1-5.5 6.3-8.3 9.5-.2-.2-.3-.2-.5-.2zm125.3-82c-3 0-3.5-2.9-5.4-4.1-2-1.2-4-2.5-6.2-3.8.6-1.2 1.9-1.2 2.9-.7 3.3 1.9 6.6 3.9 8.6 7.4.1.2 0 .6.1 1.2zm9.1 75.5c1.4 3.2 2 6.5 3 10.4-2.1-1.7-3.4-6.4-3-10.4zm-140.5-5.2c-.5 2.3-4.2 7.4-7.3 10.2-.1-2.7 2.2-3.7 3.1-5.4 1-1.6 2.6-2.9 4.2-4.8zm81.8-33c-3 .9-6.2 1.9-9.4 2.9 2.5-3.1 6.8-4.3 9.4-2.9zm-29.6 171.3c2.7 0 4.9 0 7.3.1-.3 2.3-1.9 1.8-2.9 1.8-1.4 0-3.1.4-4.4-1.9zM84.5 67c-3 2.2-5.6 4.1-8.2 6-.2-.3-.4-.5-.6-.8 1.3-1.1 2.6-2.4 4-3.4C81 67.9 82 66 84.5 67zm-30.3 44.6c2.2-4.2 4.4-6.6 7.5-8.1-2.6 3.1-4.7 5.6-6.8 8.1-.2.1-.5 0-.7 0zM107 241.1c-1.9-.1-3.4-.2-5.3-.3 2.5-2.4 3.1-2.3 5.3.3zm72.1-69.9c.3 2 .8 3.4-.6 4.7-1.3-2.8-1.3-2.8.6-4.7z"/><path d="M82.8 74.1c1.7-2 3.7-3.7 6.7-4.7-1.8 2.9-4.1 4.2-6.7 5.1v-.4zm59.8 225.5c-3.3-2.2-.7-6.2-3.5-7.3.1-2.2.3-4 .3-5.9 0-5.9-.1-11.8 0-17.7 0-.7.7-1.8 1-1.9 1.3 0 1.2 1.1 1.2 2.1-.1 4-.2 7.9-.1 11.9.2 4.6.7 9.1.9 13.6.3 1.5.2 3 .2 5.2zm4.3-1c-1.7-1.1-1.5-2.8-1.5-4.2-.3-6.6-.5-13.2-.8-19.8-.1-1.6-.3-3.1-.3-4.7 0-1.1-.5-2.4 1.2-3.5.3.8.7 1.5.7 2.2.3 5.5.5 11.1.8 16.6.2 3.2.6 6.4 1 9.7.2 1.3.5 2.6-1.1 3.7zm-13.2-32.7c2.2 1.1 1.9 2.9 1.9 4.3.2 4.7.1 9.4.3 14.1.1 3.2-.6 6.5 1 9.6.1.2.2.5.1.7l-.9 1.8c-.5-.4-1.3-.7-1.5-1.2-.4-1-.5-2.1-.5-3.2l-.3-14.4c-.1-2.8-.1-5.5-.2-8.3 0-1.1.1-2.1.1-3.4zm-5.8 3c2.4 1.5 2.2 3.4 2.3 5.1.2 3.6 0 7.2.2 10.8.1 3.7.5 7.4.7 11.1 0 .6-.4 1.2-.7 1.7-.5-.4-1.3-.8-1.4-1.3-.4-2.1-.7-4.3-.7-6.4-.2-6.2-.3-12.5-.5-18.7 0-.5 0-1.1.1-2.3zm-7.2 1.8c1.2-.8 2-.2 2.2 1.1.4 2.2.8 4.5.9 6.7.2 3.8 0 7.7.2 11.5 0 1.4.4 2.8.6 4.2-.9.9-1.8.9-2.2-.3-.4-1-.5-2.1-.5-3.2-.1-3.1 0-6.2-.1-9.3-.3-3.4-.8-6.8-1.1-10.7zm-2.3 22c-.3-.8-1-1.6-1-2.5-.3-6.5-1.3-13-1.1-19.5 1.9-.1 1.8 1 1.9 1.9.4 2.2 0 4.6 1.6 6.5.2.2.3.8.2 1-1.8 3.6-.4 7.2-.3 10.9 0 .5-.3 1.1-.4 1.6-.3 0-.6 0-.9.1zm65.5-8.2c-1.1-2.6-3-4-1.9-7.3 1-3 0-6.6-.2-10 0-1.2-.1-2.5-.1-3.7.2-.1.5-.1.7-.2.3.4 1 .7 1 1.1.5 6.2.9 12.4 1.3 18.6.2.3-.3.7-.8 1.5zm34.6-60.5c.6.8 1.5 1.4 1.7 2.3 1.1 4.9 1 10 .3 15 0 .2-.3.3-.8.6-1.4-1.8-.7-3.8-.8-5.7-.2-1.9-.1-3.8-.4-5.7-.2-2-.6-3.9-.9-5.9l.9-.6zm-16.6 46.6c-.4-.8-.8-1.2-.8-1.6-.4-4.9-.7-9.8-1-14.7 0-.1.3-.3.7-.5 2 .9 1.6 3 1.9 4.6 1 6.5.8 9.7-.8 12.2zm17.6-140.4c-.3 1.1-.3 2-.7 2.2-.4.2-1.3-.1-1.8-.4-.2-.1 0-1.2.3-1.4.5-.4 1.2-.3 2.2-.4zM88 273.3c.2.3.6.6.5.9-.1.7-.5 1.3-.7 2-.5-.3-1.1-.5-1.4-.9-.5-.9-.2-1.5.8-1.8.3-.1.5-.2.8-.2zm126.9-69.9c-1-.4-1.8-.5-2-.9-.3-.6-.1-1.4-.1-2.2.5 0 1.3-.1 1.5.1.4.5.3 1.2.6 3zm-4.2 30.8c.8.1 1.7 0 1.8.2.2.5.2 1.2.2 1.8-.5 0-1.3.3-1.5 0-.4-.4-.4-1.1-.5-2zm10.8-82.8c.2 1.5.3 2.3.4 3.1-.4.1-1 .3-1.2.1-1-.8-.8-1.6.8-3.2zm-3.9 26.4c-.8-.4-1.6-.5-1.7-.9-.2-.5.1-1.2.2-1.8.5.1 1.3.1 1.4.4.2.5.1 1.2.1 2.3zm7.7 24.3c-.4.4-.8 1-1.3 1.2-.4.1-1.1-.3-1.4-.7-.2-.2-.1-1.1.2-1.2.4-.3 1.1-.3 1.5-.2.4 0 .6.6 1 .9zm-21.4 23.3c-.9-.2-1.6-.2-2.1-.5-.2-.2-.1-1.4.1-1.5.6-.2 1.3-.2 1.8.1.3.1.2 1 .2 1.9zm-10.7 24.1c1.3.2 2 .7 1.5 1.9-.1.3-1.1.6-1.4.4-1.2-.7-.5-1.5-.1-2.3zm-38.1 20.4c-1.5 1.9-1.6 1.9-3.1-.1 1-1.6 2-1.2 3.1.1zm70.2-153.1c0 .8.2 1.7 0 1.8-.5.3-1.2.2-1.8.3 0-.5-.2-1.2.1-1.6.3-.2 1-.3 1.7-.5zm-48 136.2c-.2.6-.3 1.2-.5 1.7-.1.1-1.1-.1-1.1-.2 0-.6 0-1.3.3-1.8.2-.3.8-.5 1.2-.7-.1.4 0 .7.1 1zm-73.6 37c-.3.8-.3 1.4-.6 1.7-.2.2-1.1.2-1.2.1-.2-.5-.3-1.2-.1-1.4.3-.4 1-.3 1.9-.4zm46.6-27c-.2.8-.4 1.3-.5 1.8-.5-.2-1.1-.2-1.5-.5-.2-.1-.1-1.1.1-1.2.4-.2 1-.1 1.9-.1zm68.5-165.6c-.9-.1-1.7.1-1.9-.2-.2-.5-.2-1.2-.1-1.8 0-.1 1-.3 1.1-.2.4.6.5 1.2.9 2.2zM35.8 254c-.1-.2-.3-.5-.2-.6.4-.7.9-1.4 1.4-2 0 0 .7.2.8.5.5 1.2-.1 2-1.3 2.3-.3-.2-.5-.2-.7-.2z"/><path class="st0" d="M119.4 125c-2.3 3.3-4.7 6.4-6.7 9.8-8.3 13.8-14.3 28.6-18.4 44.1-.5 1.8-1 3.7-1.5 5.5h-.2c.7-4.9 1.1-9.8 2-14.6 1.4-7.1 4-13.8 7.3-20.3.3-.6.5-1.3.8-2.3-2 .2-2.4 1.6-3 2.8-4.5 8.7-7.6 17.9-8.9 27.7-.5 3.7-.8 7.4-1.2 11.1-.1.8-.3 1.6-.8 2.3-.5-6 .6-11.9 2-18.4-1.2.8-1.8 1.2-2.6 1.7 1.2-9.5 5.1-18.1 7.5-27.2-6.8 12.4-9.8 25.8-11.9 39.7-.8-4.5-1.8-9.4-.2-13.4 2.2-5.6 2.4-11.4 3.5-17.1 1.6-8.3 4.6-16.2 8.2-23.8 1.2-2.7 1.3-2.6 1.2-5-.6.8-1.1 1.3-1.4 1.8-4.6 9.9-8.6 19.9-9.8 30.8-.1 1.1-.1 2.4-1.6 3-.5.3-.9 1.4-.9 2.1-.4 5.5-.7 11-.9 16.6-.4 9.1 2 17.9 3.5 26.8.1.3.1.7.1 1.1-1.5-1.4-1.5-1.4-2.1-3.6-4.7-15.8-5.1-31.7-.6-47.7 3.5-12.7 7.4-25.2 14.3-36.5 4.7-7.8 10.2-15.2 16.4-21.9 5-5.4 10.4-10.4 15.2-15.9 2.7-3.1 5.7-3 9.1-2.5.7.1 1.4.6 2.1.6 7.4.3 10.5 5.8 13 11.4 3.2 7.2 6 14.7 8.4 22.3 1.9 5.8 3.5 11.8 4.5 17.8.8 4.7.6 9.6.8 14.4-.3 0-.6.1-.8.1-.9-5-1.7-9.9-2.7-15.4-1.6 1.5-1.3 2.8-1.1 4 .5 3.6 1 7.2 1.7 10.7.9 3.9 1.4 7.8.7 11.8-.2 1.3-.3 2.5.7 3.7.6.7.7 2 .6 3-1.6 13.3-5 26-13 37-2.6 3.6-5.7 6.9-8.8 10.2C155 200 162.4 185.2 162 167c-2 .9-1.6 2.5-1.8 3.8-.6 4-1.1 8.1-1.7 12.1-.7 4.1-2.4 7.8-4.4 11.4-1.2 2.1-2.1 4.3-3.2 6.5-.4.9-1 1.4-2.1.3.3-.5.5-1.2.9-1.7 5-8.2 8.3-17.1 8.8-26.8.4-9.1.9-18.3.9-27.4 0-5.9-.7-11.8-1.3-17.6-.2-1.7-.8-3.3-1.3-5-.3 0-.6.1-.9.1.4 8 .8 16.1 1.1 24.1-1.7-3.3-2.7-6.8-2.9-10.5-.2-3.6-.3-3.6-2.5-6-1.3 3.8-.9 8.9 1 12.6.2.4.4.9.4 1.4 1 12.8.6 25.5-5 37.4-3 6.4-5.4 13.2-8.9 19.3-3.3 5.7-7.8 10.7-13.4 14.4-1.1.7-2.4 1.1-3.8 1.5 6-6.2 12.6-11.9 16.7-19.8s8.3-15.7 10.5-24.5c2.1-8.5 3.9-16.9 1.9-25.6-1.2 1.4-1.3 3-1.2 4.6.3 10.5-2.5 20.5-6.1 30.3-.3.9-1 1.6-1.5 2.4-.9 1.1-1.9 2.1-2.6 3.3-5.1 8-10.5 15.9-16.2 21.1 1.7-2.3 4.6-5.8 7-9.6 2.4-3.8 5.8-7.1 7.7-12-3.1.5-3.1 3.4-5.3 4.2 1.4-2.8 2.7-5.3 4-7.9.7-1.3 1.3-2.5 2-3.8.3-.6.7-1.5 1.2-1.7 3.7-1.3 4-4.7 4.9-7.7.6-2.2.8-4.5 1.7-6.6 1.9-4.8 2.5-9.7 2.2-14.8 0-.6-.3-1.1-.6-2.3-1.9 3-.4 5.8-1.2 8.3-.7 2.5-1 5.2-1.7 7.7-.8 2.6-1.9 5.1-2.9 7.9-.4-.6-.8-1.1-1.3-1.9-.4.7-.8 1.3-1 1.8-1.5 4.2-2.9 8.4-4.6 12.5-.9 2.3-2 4.6-4.7 5.6-.7.3-1.2 1.2-1.6 1.9-4.4 7.4-10.3 13.6-16.9 19.1-2.1 1.8-4 3.8-6.2 5.5 1.6-1.5 3.3-3 4.8-4.6 4.1-4.7 8-9.7 12.3-14.2 7.4-7.8 11.7-17.3 16-26.8 2.5-5.6 3.7-12 4.9-18.1 2.3-11.8 4.3-23.7 6.2-35.5.6-3.7.7-7.5.5-11.4-1.7 5.1-2.1 10.4-3.1 15.6-1 5.2-1.9 10.4-2.9 15.8-.6-.5-.9-.9-1.5-1.4-.4.8-.7 1.3-.9 2-1.2 4.8-2.2 9.6-3.5 14.4-.3 1.1-1 2.1-1.5 3.2-.3.7-.6 1.5-.8 2.3-.6 3.5-1.1 6.9-3.2 10.1-2.1 3.1-2.9 7.1-4.4 10.6-.8 2-1.9 3.9-3 5.8-.3.5-1 .7-2.1.6.9-2.4 1.7-4.8 2.6-7.2-1-.7-1.8-1.2-2.7-1.8-1.3 3.4-4.9 4.8-6.4 8.2-1.3 3.2-3.5 6-5.4 8.9-.7 1.1-1.7 2-2.5 3h.1c1.5-2.7 2.9-5.5 4.5-8.2 5.9-9.8 11.9-19.5 16.8-29.8 6.7-14.2 11.4-29.1 15.3-44.3 1.4-5.5 2.5-11 3.6-16.6.2-1.1.3-2.3-.1-3.7-.3.5-.8 1-.9 1.6-3.2 14.3-6.9 28.5-11.8 42.3-2.2 6.2-5 12.2-7.6 18.3-.3.8-1.1 1.8-1.8 2-1.5.4-2.1 1.5-2.6 2.7-4.7 11-10.7 21.2-16.7 31.5-1.4 2.4-2.8 4.7-4.6 6.9 2.4-5.6 4.6-11.3 7.1-16.9 2.5-5.5 5.7-10.8 7-16.7-.4-.3-.5-.3-.6-.4h-.3c-.2.3-.5.5-.6.9-5.6 12.2-11.3 24.4-17.1 36.6 1.5-6.7 5.1-12.7 7.3-19.1 2.2-6.5 4.4-13 6.8-19.4 2.5-6.5 5.8-12.7 6.3-19.8-3.4 8.1-6.7 16.2-10.1 24.3-3.4 8.1-5.1 17-10.3 24.4 1.9-5.5 3.7-11 5.7-16.5 1.9-5.3 4.1-10.4 5.1-15.9-2.8 4.2-3.6 9.2-5.4 13.8-1.8 4.6-3.5 9.2-5.6 13.8.1-.8 0-1.7.3-2.5 1.8-5.5 3.7-10.9 5.5-16.4.6-1.9 1-3.9 1.5-5.8.3-1.1.8-2.2 1.3-3.3.8-2.1 1.7-4.2 2.6-6.3 6-10.2 9.6-18.2 9.1-20.3-.2 0-.6 0-.7.1-3 6.7-6 13.5-9.1 20.2-5.5 11.1-10.4 22.4-13 34.6-.3 1.5-.7 2.9-1.1 4.3-.3-.1-.6-.1-.9-.2.6-3.2 1-6.5 1.7-9.7 4.3-18 11.3-34.9 21.2-50.5 1.1-1.7 1.9-3.6 2.9-5.3.8-1 2-1.8 1.2-3.6-.8 1.2-1.5 2.4-2.1 3.5zm-18.1-2.2c.3.2.6.4.9.5 3.4-6.4 6.6-13 11.3-18.6 4.7-5.6 9.3-11.4 15.7-15.9-.1.9-.1 1.2-.2 1.4-2.9 4.4-6 8.6-8.8 13.1-3.6 5.7-6.9 11.5-10.3 17.3-.5.8-1.3 1.7 0 3.2 7.4-12.4 14-24.9 22.8-36 .3-.4.4-.8.6-1.3v-.3l-.3-.3c-2.2.3-4.3 1.1-6 2.7-10.1 9.2-18.9 19.5-24.9 31.9-.4.8-.6 1.6-.8 2.3zm36.8-9.2c-.3-.1-.7-.1-1-.2-.4 1.1-.7 2.1-1.1 3.2-1.4 4.7-2.9 9.4-4.3 14.1-.4 1.4-.9 2.7-1.3 4.1-1.2 5.3-3 10.4-5.8 15-.8 1.3-1.5 2.7-2.1 4.2-.2.5-.1 1.2-.1 1.7 4.4-5.2 7.3-11.1 9-17.5.8-2.9 1.8-5.7 2.6-8.6 1.4-4.8 2.8-9.7 4.2-14.5.1-.4-.1-.9-.1-1.5zm5.9-27.8c-.4.5-.8.7-.9 1.1-2.2 6.3-4.3 12.7-6.4 19-.2.5.2 1.1.4 2 3.1-3.6 7.8-18.7 6.9-22.1zm-19.9 29.9c.7-.4 1.2-.6 1.4-.9 2.6-4.7 5.2-9.3 7.8-14.1.2-.4.1-1 .1-1.4-3.7 4.7-7.4 9.2-9.7 14.6-.2.4.2 1 .4 1.8zm7 5.7c-2.6 2.5-7.8 13.7-8 16.7 1.9-1.3 7.4-12.5 8-16.7zm25.6-1.7c1.6-3 1.2-6.6-.8-8.2-.9 5.1-.9 5.5.8 8.2zM104 133.5c-3.2 2.7-4.8 6.4-4 9.5 1.8-3 3.1-5.7 4-9.5zm27.3 28.1c-1.7 1.5-3.1 3.2-3.2 5.5 0 .3.6.6 1.1 1 1.4-2.1 2.8-3.9 2.1-6.5z"/><path class="st0" d="M72.4 156.4c-.6 2.7-1.1 5.4-1.7 8.1-.2.9-.5 1.7-1.1 2.5-.5-9.2 2.2-17.7 4.9-26.2 2.8-8.6 7.4-16.3 11.6-24.2-7.5 9.2-12.5 19.7-15.9 31-3.3 11.3-4.4 22.7-3.4 34.4-3.5-12.7-1.5-25 2.2-37.5-.6 0-1.1 0-1.7.1l.3-1.8c2.7-11.5 8.6-21.4 15.8-30.5 2.9-3.7 6-7.2 8.9-10.8 1.2-1.4 2.3-2.9 3.3-5.4-1.2.5-1.7.6-1.9.9-9 10.2-17.9 20.6-23.6 33.1-2.9 6.4-4.3 13.5-6.2 20.3-.4 1.3-.7 2.8.8 4 .3.2.3 1.1.3 1.6-.5 6.3-1.1 12.7-1.6 18.9-1.3-4.1-1.1-8.6-1.6-13-.9-8 1.4-15.5 3.6-23 .2-.8.5-1.6.6-2.4.1-.3-.1-.7-.2-1.2-.4.3-.8.4-.9.6-1.3 4.5-2.7 9-3.6 13.6-.9 4.4-2.6 8.7-2.4 13.4 0 .3-.2.6-.5.9-.1.2-.4.2-1.2.5.5-3.9.6-7.6 1.4-11.2 1.1-4.7 2.4-9.3 4-13.8 3.6-9.9 8.6-19.1 14.8-27.6 1.1-1.4 2.2-2.9 3.1-4.4 4.7-7.7 11.7-12.7 19.5-16.6 3.5-1.7 7.2-3.2 10.9-4.6-5.5 7.4-12.8 13.3-17.1 21.5.2.2.3.4.5.6.6-.5 1.3-1 1.9-1.7 5.8-6.9 11.5-13.9 17.3-20.8.6-.7 1.5-1.1 2.4-1.5 2.9-1.3 10.1-2.7 13.7-2.6-.7.8-1.2 1.4-1.7 1.9-11.5 10.5-22.3 21.6-30.8 34.8-6.5 10.5-11.1 21.7-14.4 33.5-1.6 5.8-2.9 11.7-4.1 17.6-1.3 6-1.7 12.1-1.3 18.3 0 .6-.1 1.1-.3 1.7-4.2-13.2-.8-26.2 1.5-39.1-7 15.8-7.2 31.9-1.2 48.2-.3.1-.6.1-.9.2-.9-2.4-1.9-4.7-2.7-7.1-3.2-10.1-3.2-20.4-1.3-30.7.3-1.4.3-2.9.5-4.3 1.1-3.7 2.2-7.4 3.2-11.1 1-3.6 3.2-6.9 3.7-11.1-2.7 2.7-6.8 15.5-7.4 22zm18.4-33c-.2-.2-.4-.3-.6-.5-.3.2-.7.2-.9.5-2.7 4.4-5.6 8.6-8.1 13.2-1.3 2.4-1.8 5.2-2.5 7.8-.3 1.1-.5 2.4 1.1 2.6 1.5-4.2 2.6-8.4 4.4-12.3 1.8-3.9 4.4-7.5 6.6-11.3z"/><path class="st0" d="M61.7 206.4c-3.3-3.2-6.4-6.7-8.2-11.1C50.7 188.8 49 182 49 175c0-4.8.8-9.6 1.2-14.3.1-.8.1-1.7-.3-2.6-2.5 4-2.1 8.8-3.5 13.1-1.3-6.2-.3-12.1 1.9-17.8.3-.7 1-1.4.8-1.9-1-2.9 1-4.8 2.1-6.9 4.4-8.6 9.7-16.6 15.5-24.4 2.7-3.7 5.7-7.1 8.9-10.4-5.7 8.9-11 17.9-15.2 27.7.4-2 .9-4.1 1.3-6.1-.3-.1-.5-.2-.8-.2-.4 1.1-.9 2.1-1.2 3.2-2.4 9.4-6 18.6-6.5 28.4 0 .4 0 .8-.2 1-3.1 2.9-2.2 6.8-1.8 10.1.9 7.3 2.2 14.5 4.5 21.5 1.3 3.9 3.4 7.5 6 11zM51.4 152c.3 0 .6 0 .8-.1 1.6-3 3.3-9.5 2.9-11.6-2.5 2.7-2.9 6.1-3.8 9.2-.2.8 0 1.7.1 2.5zm105.2 2.9c0 3.1.1 6.2 0 9.3-.2 6.6-.4 13.2-2.5 19.8-2.1-.8-2.5.8-3.1 2.3-1.2 2.8-2.4 5.5-3.8 8.2-.8 1.6-2 3-3.3 4.3.8-2.6 1.5-5.3 2.4-7.8 1.6-4.4 3.5-8.7 5.1-13.1 2.3-6 3.8-12.1 3.7-18.6 0-1.5.8-2.9 1.3-4.4h.2zm-26.2 25.4c6-12.4 9.3-25.8 13.1-39-3.1 13.4-4 27.5-13.1 39zm18.4 15.3c-2.5 5.4-6 10.1-10.3 14-3.8 3.4-8.1 6.3-12.2 9.4-.4.3-1 .4-1.6.2 2.2-1.8 4.4-3.5 6.6-5.3 3-2.6 6-5.1 8.8-7.9 2.2-2.2 4-4.8 6-7.2.9-1.1 1.8-2.2 2.7-3.4v.2zm-66.6 17.9c-2.2-2.9-5.3-5.5-6.3-8.7-1.2-4-4.2-7.3-4.5-11.7 0-.8.1-1.5.1-2.5 1.8 4.1 3.2 8 5.1 11.7 1.9 3.7 4.2 7.1 6.4 10.6-.3.2-.5.4-.8.6zm32.6 4.2c8.1-6.1 15-13.1 20.9-22.1-1.3 6.4-14.4 19.9-20.9 22.1zm-6.6-1.3c7.8-4.5 12.9-11.9 19.2-18.5-.3 2.8-1.6 4.4-8.2 11-3.2 3.2-6.3 6.5-11 7.5zm7.8-20c-5.1 7.1-9.6 14.7-17.4 19.5 5.9-6.5 11.6-13 17.4-19.5z"/><path class="st0" d="M77.4 213.6c-8.5-5.6-12.7-13.3-15.5-21.9 3.7 7.9 8.7 15 15.5 21.9zm12.4 15.5c6 .6 12 1.2 18 1.7-3.8 1.8-11.4 1.3-18-1.7zm-3.2-43.2l1.8 22.5c-2.8-7.3-2.3-14.9-1.8-22.5zm-43.8-11.6c-.3-.8-.8-1.6-.7-2.3.6-4.1 1.4-8.3 2.1-12.4.1-.3.4-.5 1.2-.6l-2.1 11.4c-.2 1.3-.4 2.6-.5 3.9zm83.8 47.9c3.4-1.6 6.8-3.2 10.9-5.2-3.5 3.2-6.9 4.6-10.9 5.2zm-81.3-42.8c.7 2.8 1.5 5.7 2.2 8.5-.3.1-.5.1-.8.2-1.7-2.6-1.4-5.7-2.2-8.5.3 0 .6-.1.8-.2zm-2.6-5.1c0 2.7.1 5.3.1 8-1.3-2.7-2.6-5.4-.1-8zm76.5 12.4c-1.1 1.8-2.1 3.6-3.2 5.4-.2-.1-.3-.2-.5-.3 1.1-1.7 2.3-3.5 3.4-5.2.1-.1.2 0 .3.1zm-2.6 0c.9-1.5 1.7-3 2.6-4.5.1.1.2.1.3.2-.8 1.5-1.7 3-2.5 4.5-.1 0-.3-.1-.4-.2zm-10.9 17.6c1.4-1.8 2.8-3.5 4.1-5.3.1.1.2.1.2.2-1.3 1.7-2.7 3.5-4 5.2-.1 0-.2 0-.3-.1zm3.6-9.9c-.8 1.4-1.7 2.8-2.5 4.3-.2-.1-.4-.3-.6-.4 1.1-1.3 2.1-2.6 3.1-3.9zm1.6.8c.5-.9 1.1-1.8 1.6-2.7.1.1.2.1.3.2-.5.9-1.1 1.9-1.6 2.8l-.3-.3zm45.6-40.3c-.1-1.2-.1-2.3-.2-3.5.3 0 .6 0 .9.1-.2 1.1-.4 2.3-.7 3.4zm-7.9 40.7c.4-1.1.8-2.1 1.3-3.2.3.1.5.3.8.4-.6.9-1.2 1.9-1.9 2.8h-.2zm-35.1 14.5c-.3.3-.7.6-1 1 .3-.4.6-.8 1-1 0-.1 0-.1 0 0zm-20.8-25.7c0 .8-.1 1.6-.1 2.5H92c.2-.8.4-1.6.5-2.4l.2-.1zm46.2 28.4c.2-.1.4-.2.6-.2 0 .2.1.4 0 .5-.2.2-.4.2-.6.3v-.6zm-84-51.8c-.1-.3-.3-.6-.3-.9 0-.3.2-.6.6-.9v1.7c-.1.1-.2.1-.3.1z"/><path d="M101.3 122.8c.2-.8.4-1.6.8-2.3 6-12.4 14.8-22.7 24.9-31.9 1.8-1.6 3.8-2.3 6-2.7.2.2.3.2.3.3 0 .1.1.2 0 .3-.2.4-.3.9-.6 1.3-8.7 11.1-15.4 23.7-22.8 36-1.3-1.5-.5-2.4 0-3.2 3.4-5.8 6.7-11.6 10.3-17.3 2.8-4.5 5.9-8.7 8.8-13.1.1-.2.1-.5.2-1.4-6.5 4.6-11 10.3-15.7 15.9-4.7 5.6-7.9 12.2-11.3 18.6-.3-.1-.6-.3-.9-.5zm36.8-9.2c0 .5.2 1.1.1 1.6-1.4 4.8-2.7 9.7-4.2 14.5-.8 2.9-1.8 5.7-2.6 8.6-1.7 6.4-4.6 12.3-9 17.5 0-.6-.1-1.2.1-1.7.6-1.4 1.3-2.8 2.1-4.2 2.8-4.7 4.6-9.7 5.8-15 .3-1.4.8-2.8 1.3-4.1 1.4-4.7 2.9-9.4 4.3-14.1.3-1.1.7-2.1 1.1-3.2.3 0 .6.1 1 .1zm5.9-27.8c.8 3.4-3.9 18.5-6.9 22.1-.2-.8-.6-1.5-.4-2 2.1-6.4 4.2-12.7 6.4-19 .2-.3.6-.6.9-1.1zm-19.9 29.9c-.2-.8-.6-1.4-.4-1.8 2.3-5.4 5.9-10 9.7-14.6 0 .5.1 1.1-.1 1.4l-7.8 14.1c-.2.3-.7.5-1.4.9zm7 5.7c-.6 4.2-6.1 15.4-8 16.7.2-3 5.4-14.2 8-16.7zM109.2 152c3-6.7 6-13.5 9.1-20.2 0-.1.4-.1.7-.1.4 2.2-3.2 10.1-9.1 20.3h-.7zm47.5-32.3c-1.7-2.7-1.7-3.1-.8-8.2 2 1.6 2.4 5.2.8 8.2zM104 133.5c-.9 3.8-2.2 6.4-4 9.5-.8-3.1.8-6.7 4-9.5zm27.3 28.1c.7 2.7-.7 4.5-2.1 6.5-.5-.4-1.1-.7-1.1-1 .1-2.4 1.5-4 3.2-5.5zM119.4 125c.6-1.2 1.2-2.3 1.9-3.5.9 1.8-.4 2.6-1.2 3.6-.2 0-.5 0-.7-.1zm-28.6-1.6c-2.2 3.8-4.8 7.4-6.6 11.3-1.8 3.9-2.9 8-4.4 12.3-1.5-.2-1.3-1.5-1.1-2.6.7-2.7 1.3-5.5 2.5-7.8 2.4-4.5 5.3-8.8 8.1-13.2.2-.2.6-.3.9-.5.2.2.4.3.6.5zm-18.4 33c.6-6.6 4.7-19.4 7.4-22.1-.5 4.2-2.7 7.5-3.7 11.1-1 3.7-2.1 7.4-3.2 11.1-.1 0-.3-.1-.5-.1zm-21-4.4c0-.8-.3-1.7-.1-2.5.9-3.1 1.3-6.5 3.8-9.2.3 2.2-1.4 8.7-2.9 11.6-.3.1-.6.1-.8.1z"/></svg>