<?xml version="1.0" encoding="UTF-8" standalone="no"?>
<svg
   xmlns:dc="http://purl.org/dc/elements/1.1/"
   xmlns:cc="http://creativecommons.org/ns#"
   xmlns:rdf="http://www.w3.org/1999/02/22-rdf-syntax-ns#"
   xmlns:svg="http://www.w3.org/2000/svg"
   xmlns="http://www.w3.org/2000/svg"
   viewBox="0 0 90.99839 118.03768">
     <defs
     id="defs6" /><g
     transform="matrix(1.3333333,0,0,-1.3333333,-363.97635,177.82981)"
     id="g10"><g
       transform="scale(0.1)"
       id="g12"><path d="m 3099.67,1333.71 c -0.1,-0.01 -0.2,-0.02 -0.29,-0.04 l -9.73,-1.38 c -9.61,-0.02 -20.79,1.32 -31.93,-2.21 l -11.08,1.37 c -0.32,0.04 -0.65,0.04 -0.97,0 -2.52,-0.32 -4.51,-1.29 -6.23,-2.05 -1.73,-0.76 -3.2,-1.31 -3.95,-1.39 -83,-9.16 -171.81,-4.57 -252.52,-13.79 -4.69,-0.54 -11.57,-0.11 -17.46,-0.94 -4.78,-0.67 -7.28,-2.24 -10.37,-2.85 -2.17,0.32 -4.71,1.37 -8.61,1.31 -4.17,-0.07 -9.04,-1.79 -15.14,-6.5 -1.06,-0.81 -1.64,-2.09 -1.56,-3.42 0,0 4.56,-66.26 67.77,-126.17 -1.5,-0.42 -2.93,-0.93 -4.24,-1.53 -4.79,-2.18 -8.31,-5.85 -9.94,-10.35 -3.27,-8.98 -0.18,-19.79 5.33,-32.73 68.03,-159.778 104.78,-312.36 111.49,-500.278 1.66,-46.614 -26.87,-86.543 -57.15,-132.481 -7.67,-11.312 -8.46,-23.98 -3.15,-33.711 5.31,-9.718 16.48,-16.129 30.73,-16.129 h 176.75 176.76 c 14.25,0 25.41,6.411 30.72,16.129 5.32,9.731 4.53,22.399 -3.14,33.711 -30.28,45.938 -58.81,85.867 -57.15,132.481 6.71,187.918 43.45,340.5 111.49,500.278 1.93,4.54 3.4,8.74 4.57,12.77 l 0.41,-1.37 c 51.96,48.13 80.48,110.82 101.01,173.44 0.55,1.66 0,3.81 -0.86,4.94 -0.86,1.14 -1.76,1.66 -2.58,2.09 -1.63,0.87 -3.2,1.29 -3.98,1.57 -5.56,1.94 -11.15,1.35 -15.9,0.87 -2.29,-0.23 -3.97,-1.04 -5.21,-1.52 -1.25,-0.48 -1.95,-0.62 -2.25,-0.59 0.23,-0.02 -0.12,0.04 -0.98,0.67 -0.85,0.62 -2.16,1.77 -4.37,2.22 -9.25,1.92 -12.4,0.7 -17.38,-0.64 -4.99,-1.34 -13.57,-3.1 -37.76,-2.95 -48.25,0.31 -212.06,10.08 -212.48,10.1 l -0.08,0.02 -7.79,1.02 c -0.27,0.04 -0.54,0.05 -0.8,0.04 v -0.01"
         style="fill:#ffffff;fill-opacity:1;fill-rule:nonzero;stroke:none"
         id="path11" /><path
         id="path24"
         style="fill:#100f0d;fill-opacity:1;fill-rule:nonzero;stroke:none"
         d="m 3089.51,457.25 c 10.18,0.102 20.82,-0.102 31.43,-0.309 h -38.67 c 2.47,0.098 4.69,0.289 7.24,0.309 z m -83.18,0 c 2.56,0 4.77,-0.238 7.25,-0.309 h -38.68 c 10.61,0.207 21.25,0.411 31.43,0.309 z m 22.52,5.879 c -13.52,0.101 -27.1,-0.547 -41.13,-0.609 13.86,-2.231 26.96,-2.77 40.04,-2.872 -0.51,-0.097 -1.02,-0.148 -1.53,-0.25 6.92,0.262 13.64,0.301 20.28,0.293 0.94,0 1.88,0.008 2.83,0 6.63,0 13.36,0 20.27,-0.293 -0.51,0.114 -1.01,0.153 -1.52,0.25 13.08,0.102 26.16,0.641 40.04,2.872 -14.03,0.101 -27.62,0.691 -41.14,0.609 -6.35,0 -12.69,-0.27 -19.06,-0.758 -6.37,0.488 -12.73,0.719 -19.08,0.758 z m -182.93,20.883 c -0.83,-4.692 -0.39,-9.653 1.68,-14.242 1.15,-2.438 2.65,-4.661 4.41,-6.598 -1.87,1.629 -3.51,3.418 -4.63,5.469 -2.38,4.371 -2.91,9.699 -1.46,15.371 z m 346.33,0.508 c 0.4,-0.008 0.8,0 1.21,0 -1.06,-0.219 -2.11,-0.34 -3.17,-0.532 0.66,0.192 1.31,0.364 1.96,0.571 z m -288.65,0 c 0.64,-0.211 1.3,-0.372 1.95,-0.571 -1.06,0.192 -2.1,0.313 -3.17,0.531 0.41,0.008 0.81,0 1.22,0 z m 312.08,3.441 c 0.39,-0.41 0.75,-0.852 1.14,-1.25 -0.07,-0.102 -0.15,-0.109 -0.22,-0.16 -0.32,-0.102 -0.68,-0.141 -1.01,-0.231 l 0.1,1.641 z m -335.52,0 0.1,-1.641 c -0.33,0.102 -0.69,0.141 -1.02,0.231 -0.07,0 -0.14,0.109 -0.21,0.16 0.39,0.398 0.74,0.84 1.13,1.25 z m 259.14,0.621 c -0.53,-0.102 -0.93,-0.152 -1.39,-0.23 -0.31,0.097 -0.62,0.109 -0.94,0.179 0.78,0 1.55,0 2.33,0.098 z m -10.2,1.406 c 0.65,-0.226 1.29,-0.34 1.94,-0.508 -1.46,0.149 -2.91,0.25 -4.36,0.258 0.8,0.114 1.62,0.16 2.42,0.242 z m 90.98,2.383 c 0.16,-0.391 0.37,-0.891 0.53,-1.269 -0.02,-0.43 -0.13,-0.93 -0.18,-1.391 -0.98,-1 -2.08,-1.949 -3.36,-2.832 -0.2,0.68 -0.49,1.223 -0.7,1.871 0.76,-0.16 1.57,-0.191 2.32,-0.391 l 0.69,3.461 c 0.22,0.192 0.47,0.352 0.7,0.551 z m -344.32,0 c 0.23,-0.191 0.48,-0.359 0.71,-0.551 l 0.68,-3.461 c 0.75,0.2 1.56,0.231 2.32,0.391 -0.21,-0.648 -0.49,-1.199 -0.7,-1.871 -1.28,0.883 -2.38,1.82 -3.36,2.832 -0.05,0.449 -0.15,0.949 -0.17,1.379 0.15,0.379 0.36,0.89 0.52,1.281 z m 269.87,2.34 c 1.98,0 3.81,-0.129 5.62,-0.25 3.7,-0.691 7.38,-1.289 7.38,-1.289 2.69,-0.371 5.3,-0.84 7.95,-1.25 -2.36,-0.293 -4.7,-0.613 -7.09,-0.863 0,0 -4.18,-0.469 -6.99,-0.778 3.45,0.68 6.87,1.34 10.24,1.617 -6.81,2.223 -13.48,1.34 -20.06,0.161 -5.29,1.23 -10.58,1.441 -15.86,1.101 5.83,1.051 12.56,1.61 18.81,1.559 z m 72.26,2.789 c 0.32,-0.75 0.64,-1.461 0.94,-2.18 -0.21,0 -0.42,0 -0.63,0 -0.08,0.719 -0.19,1.43 -0.31,2.141 z m -339.94,0 c -0.12,-0.711 -0.23,-1.418 -0.31,-2.141 -0.21,0 -0.41,-0.007 -0.63,0 0.31,0.723 0.62,1.442 0.94,2.18 z m 258.16,1.199 c -0.77,-0.109 -1.55,-0.16 -2.32,-0.308 -1.4,0 -2.87,0.097 -4.39,0.14 2.24,0.098 4.49,0.098 6.71,0.18 z m 15.36,1.262 c 1.49,-0.352 2.98,-0.742 4.49,-0.91 -2.76,-0.012 -3.34,0 -6.27,-0.102 -2.82,0.172 -5.65,0.192 -8.48,0.121 3.38,0.239 6.8,0.52 10.26,0.899 z m 86.58,1.781 c 3.53,-7.89 1.12,-18.75 -0.63,-28.023 5.99,8 9.2,20.781 0.63,28.023 z m -380.26,0 c -8.57,-7.242 -5.35,-20.023 0.63,-28.023 -1.74,9.273 -4.16,20.133 -0.63,28.023 z m 308.32,9.199 c 3.94,0 7.91,-0.589 7.91,-0.589 1.87,-0.231 3.73,-0.571 5.59,-0.903 -3.08,0 -6.38,0.371 -9.71,0.762 -1.78,0.258 -3.67,0.469 -5.54,0.641 0.82,0 0.9,0.097 1.75,0.097 z m -236.38,0 c 0.85,0 0.93,0 1.76,-0.101 -1.88,-0.168 -3.77,-0.391 -5.55,-0.641 -3.33,-0.398 -6.63,-0.769 -9.71,-0.758 1.86,0.329 3.73,0.668 5.59,0.899 0,0 3.98,0.582 7.91,0.59 z m 211.99,7.641 c 5.16,-0.773 10.35,-1.371 10.35,-1.371 7.03,-0.66 14.1,-0.992 21.17,-1.172 -6.62,-0.57 -13.27,-0.769 -19.88,-0.269 0,0 -5.38,0.378 -10.72,1.191 -1.61,0.238 -2.95,0.508 -4.42,0.777 1.18,0.254 2.33,0.563 3.5,0.844 z m 18.89,3.09 c -1.11,-0.281 -2.64,-0.512 -3.07,-0.781 -1.22,-0.02 -2.45,0 -3.67,-0.11 2.22,0.25 4.47,0.508 6.74,0.86 z m 34.35,2.527 c 0.16,-0.179 0.3,-0.379 0.45,-0.558 0.19,-1.172 0.38,-2.352 0.65,-3.481 -0.17,0.27 -0.33,0.531 -0.49,0.801 l -0.08,1.84 c -0.17,0 -0.34,0 -0.51,0 l -0.02,1.441 z m -294.08,0 -0.02,-1.437 h -0.51 l -0.08,-1.84 c -0.16,-0.274 -0.32,-0.531 -0.49,-0.801 0.27,1.129 0.46,2.309 0.65,3.481 0.15,0.187 0.3,0.378 0.45,0.57 z m 296.86,7.41 c 0.43,-0.687 0.9,-1.339 1.34,-2.007 0.04,-0.293 0.09,-0.582 0.14,-0.864 -0.47,0.961 -1.03,1.903 -1.48,2.871 z m -299.63,0 c -0.46,-0.98 -1.02,-1.91 -1.49,-2.871 0.05,0.282 0.1,0.563 0.14,0.852 0.44,0.68 0.91,1.332 1.35,2.019 z m 269.25,0.5 c 4.56,-0.711 9.13,-1.308 13.7,-1.929 -2.58,-0.321 -5.08,-0.7 -7.6,-1.071 -2.57,0.34 -5.14,0.59 -7.7,0.743 -3.13,0.757 -6.26,1.32 -9.39,1.699 3.64,0.109 7.3,0.211 10.99,0.558 z m 13.15,4.051 c 0.03,-0.058 0.07,-0.129 0.1,-0.199 -2.39,-0.012 -4.78,-0.012 -7.17,0.019 2.34,-0.019 4.7,0.008 7.07,0.18 z m -265.18,0 c 2.37,-0.18 4.73,-0.199 7.07,-0.18 -2.39,-0.031 -4.78,-0.031 -7.16,-0.019 0.03,0.07 0.07,0.129 0.1,0.199 z m 285.69,0.899 c 0.97,-1.629 1.92,-3.258 2.89,-4.868 -0.18,0.168 -0.35,0.34 -0.53,0.508 -0.79,1.442 -1.58,2.903 -2.36,4.36 z m -306.19,0 c -0.79,-1.457 -1.57,-2.918 -2.37,-4.36 -0.18,-0.168 -0.35,-0.34 -0.52,-0.508 0.97,1.61 1.91,3.239 2.89,4.868 z m 247.61,8.921 c 1.62,-0.179 2.75,-0.289 4.51,-0.429 -4.2,0.129 -8.65,0.109 -12.89,0.14 2.83,0.028 5.63,0.129 8.38,0.289 z m 21.8,5.231 c 3.2,-0.301 6.42,-0.551 9.67,-0.602 0.08,-0.187 0.15,-0.379 0.23,-0.57 -1.59,-0.207 -3.33,-0.328 -5.15,-0.43 -1.14,0.02 -2.36,0.063 -3.54,0.102 1.17,0.328 2.31,0.551 3.5,0.937 -5.42,0.09 -10.66,-0.058 -15.88,-0.429 4.21,0.429 7.44,0.679 11.17,1 z m -19.81,0.75 c -1.36,-0.41 -2.66,-1.09 -4,-1.621 -1.13,0.301 -2.25,0.539 -3.42,0.801 2.57,0.218 5,0.519 7.42,0.82 z m 23.21,5.918 h 0.02 c 1.12,-0.309 2.36,-0.527 3.51,-0.82 0.06,-0.149 0.13,-0.289 0.2,-0.43 -5.02,0.383 -10.02,0.359 -15,0.019 -3.5,-0.058 -6.99,-0.308 -10.47,-0.789 -6.21,0.262 -12.42,0.289 -18.65,-0.039 1.63,0.231 3.22,0.418 4.98,0.731 4.67,0.09 9.35,0.418 14.02,0.859 7.13,-0.449 14.32,-0.019 21.39,0.469 z m -9.69,5.012 c -0.11,-0.012 -0.35,-0.09 -0.51,-0.11 -0.22,-0.011 -0.44,-0.011 -0.66,-0.019 0.4,0.058 0.77,0.078 1.17,0.129 z m -220.06,0 c 0.4,-0.051 0.78,-0.082 1.17,-0.129 -0.22,0 -0.44,0.008 -0.66,0.019 -0.16,0.028 -0.4,0.098 -0.51,0.117 z m 225.63,0.691 c 0.18,-0.012 0.34,-0.07 0.52,-0.082 -0.65,-0.121 -1.31,-0.23 -1.97,-0.352 -0.73,-0.019 -1.46,0.043 -2.19,-0.019 0.04,0.012 0.08,0.012 0.12,0.019 -0.8,0.153 -1.6,0.211 -2.4,0.352 2.01,0.07 4.02,0.148 5.92,0.082 z m -231.19,0 c 1.89,0.066 3.9,-0.012 5.91,-0.082 -0.8,-0.141 -1.6,-0.199 -2.4,-0.352 0.04,-0.007 0.08,-0.007 0.12,-0.019 -0.73,0.062 -1.46,-0.008 -2.19,0.019 -0.65,0.122 -1.32,0.231 -1.97,0.352 0.18,0.012 0.34,0.07 0.52,0.082 z m 239.76,2.727 c 0.01,0 0.03,0 0.04,0 0.05,-0.098 0.09,-0.188 0.14,-0.289 -0.06,0.089 -0.12,0.199 -0.18,0.289 z m -248.38,0 c 0.01,0 0.03,0 0.04,0 -0.06,-0.09 -0.11,-0.188 -0.17,-0.289 0.05,0.101 0.09,0.199 0.13,0.289 z m 216.35,0.203 c 3.72,-0.461 7.81,-0.703 7.81,-0.703 1.71,-0.047 3.41,0.062 5.12,0.082 -1.26,-0.481 -2.1,-0.942 -2.48,-1.309 -3.45,0.379 -6.87,0.488 -10.29,0.449 h -0.02 c -1.43,0.449 -2.89,0.75 -4.36,1.09 1.41,0.141 2.81,0.199 4.22,0.391 z m -20.64,2.297 c 0.59,-0.071 1.19,-0.168 1.73,-0.227 -0.9,-0.051 -1.8,-0.113 -2.71,-0.184 0.33,0.122 0.65,0.282 0.98,0.411 z m -142.99,0 c 0.33,-0.129 0.64,-0.289 0.97,-0.411 -0.9,0.071 -1.81,0.122 -2.71,0.184 0.55,0.059 1.15,0.156 1.74,0.227 z m 184.18,2.543 c -0.01,-0.02 -0.03,-0.02 -0.04,-0.043 0.24,-0.071 0.44,-0.028 0.68,-0.079 -4.73,-0.781 -9.42,-1.511 -14.1,-1.949 0,0 -2.48,-0.269 -4.59,-0.449 -0.82,0.008 -1.63,0.008 -2.44,0.02 6.91,0.699 13.71,1.578 20.49,2.5 z m -225.35,0 c 6.76,-0.922 13.56,-1.801 20.46,-2.5 -0.81,-0.012 -1.62,0 -2.44,-0.02 -2.11,0.18 -4.59,0.449 -4.59,0.449 -4.68,0.438 -9.37,1.18 -14.1,1.949 0.24,0.051 0.44,0.008 0.69,0.079 -0.01,0.011 -0.01,0.031 -0.03,0.043 z m 185.89,0.609 c -0.55,-0.152 -1.12,-0.27 -1.68,-0.41 -0.46,0.019 -0.86,0.019 -1.32,0.039 1,0.109 1.99,0.25 3,0.371 z m -150.07,0.469 c 2.19,-0.301 4.4,-0.59 6.62,-0.84 -0.58,-0.02 -1.08,-0.039 -1.64,-0.059 -1.79,0.321 -2.87,0.481 -4.98,0.891 z m 156.05,0.289 c -0.23,-0.071 -1.62,-0.539 -2.93,-1.188 -0.1,-0.011 -0.23,-0.011 -0.35,-0.019 0.16,0.129 0.33,0.218 0.49,0.367 -0.64,-0.149 -0.99,-0.168 -1.39,-0.219 0.45,0.238 0.92,0.449 1.37,0.711 0.93,0.117 1.89,0.199 2.81,0.348 z m 10.23,1.832 c 1.4,-0.289 2.81,-0.512 4.22,-0.68 -1.38,-0.281 -2.76,-0.601 -4.14,-0.84 z m -178.88,0 -0.08,-1.52 c -1.38,0.239 -2.76,0.559 -4.14,0.84 1.41,0.168 2.82,0.391 4.22,0.688 z m 208.69,5.609 c 0.02,-0.039 0.05,-0.07 0.06,-0.101 0.07,-0.309 0.15,-0.61 0.23,-0.918 -0.73,-0.121 -1.45,-0.27 -2.18,-0.411 0.64,0.461 1.3,0.911 1.89,1.43 z m -238.5,0 c 0.59,-0.519 1.25,-0.969 1.9,-1.43 -0.73,0.141 -1.46,0.29 -2.19,0.411 0.08,0.308 0.16,0.609 0.23,0.918 0.01,0.031 0.04,0.062 0.06,0.101 z m 225.86,1.039 c -0.5,-0.398 -1.04,-0.75 -1.54,-1.14 -0.44,-0.071 -0.92,-0.161 -1.35,-0.227 -0.36,-0.051 -0.84,-0.051 -1.21,-0.102 0.25,0.122 0.5,0.239 0.74,0.372 1.04,0.347 2.12,0.589 3.15,1 0.07,0.019 0.14,0.07 0.21,0.097 z m -213.22,0 c 0.07,-0.039 0.14,-0.078 0.22,-0.109 1.02,-0.399 2.1,-0.641 3.14,-0.988 0.25,-0.133 0.49,-0.25 0.74,-0.372 -0.37,0.051 -0.85,0.051 -1.21,0.102 -0.43,0.066 -0.91,0.156 -1.35,0.227 -0.5,0.39 -1.04,0.742 -1.54,1.132 z m 73.59,1.653 c 0.18,-0.024 0.35,-0.063 0.53,-0.09 -0.65,-0.012 -1.29,0.008 -1.93,0.008 0.47,0.011 0.93,0.07 1.4,0.082 z m -13.12,0.468 c 2.45,-0.3 4.93,-0.39 7.4,-0.48 -2.48,0.07 -4.93,0.219 -7.34,0.461 -0.02,0.008 -0.04,0.008 -0.06,0.019 z m 162.56,2.93 c 0.02,-0.031 0.03,-0.07 0.04,-0.102 -0.1,-0.019 -0.18,-0.039 -0.28,-0.058 0.08,0.051 0.16,0.109 0.24,0.16 z m -232.83,0 c 0.08,-0.051 0.15,-0.102 0.23,-0.148 -0.09,0.019 -0.18,0.039 -0.27,0.058 0,0.031 0.02,0.07 0.04,0.102 z m 234.39,1.039 c 0.05,-0.34 0.09,-0.68 0.14,-1.019 -0.12,0 -0.24,0.011 -0.36,0 -0.15,0.191 -0.29,0.378 -0.44,0.57 0.22,0.148 0.44,0.289 0.66,0.449 z m -235.96,0 c 0.22,-0.16 0.44,-0.301 0.67,-0.449 -0.15,-0.192 -0.3,-0.379 -0.45,-0.57 -0.12,0.011 -0.24,0 -0.35,0 0.05,0.339 0.09,0.679 0.13,1.019 z m 238.21,1.5 c 0.18,-1.18 0.4,-2.348 0.64,-3.508 -0.13,-0.09 -0.24,-0.222 -0.37,-0.301 -0.19,0.36 -0.38,0.7 -0.57,1.059 0.06,0.082 0.16,0.191 0.22,0.27 -0.13,0.011 -0.23,0 -0.35,0 -0.29,0.562 -0.57,1.05 -0.86,1.621 0.41,0.32 0.89,0.531 1.29,0.859 z m -240.45,0 c 0.4,-0.328 0.87,-0.539 1.29,-0.859 -0.3,-0.571 -0.57,-1.059 -0.86,-1.621 -0.13,0 -0.23,0.011 -0.35,0 0.06,-0.079 0.15,-0.188 0.21,-0.27 -0.19,-0.359 -0.38,-0.699 -0.57,-1.051 -0.13,0.082 -0.23,0.203 -0.37,0.293 0.24,1.16 0.46,2.328 0.65,3.508 z m 242.22,1.621 c 0.01,-0.191 -0.02,-0.398 0,-0.601 -0.08,0.152 -0.13,0.25 -0.21,0.41 0.06,0.07 0.13,0.101 0.19,0.172 z m -244,0 0.02,-0.019 c 0.06,-0.071 0.13,-0.11 0.19,-0.172 -0.08,-0.16 -0.13,-0.258 -0.21,-0.41 0.02,0.191 -0.01,0.41 0,0.601 z m 240.88,2.41 c 0.24,-0.449 0.44,-0.961 0.68,-1.41 -0.23,-0.101 -0.44,-0.191 -0.68,-0.289 -0.71,-0.281 -1.5,-0.492 -2.23,-0.742 0.75,0.812 1.54,1.57 2.23,2.441 z m -237.76,0 c 0.69,-0.871 1.48,-1.629 2.23,-2.441 -0.73,0.25 -1.52,0.461 -2.23,0.742 -0.23,0.098 -0.44,0.199 -0.68,0.289 0.24,0.449 0.44,0.961 0.68,1.41 z m 238.48,0.782 c 0.06,-0.661 0.18,-1.301 0.25,-1.961 -0.32,0.398 -0.62,0.82 -0.95,1.211 0.21,0.269 0.5,0.468 0.7,0.75 z m -239.2,0 c 0.21,-0.282 0.49,-0.481 0.7,-0.75 -0.33,-0.391 -0.62,-0.813 -0.95,-1.211 0.08,0.66 0.19,1.3 0.25,1.961 z m 242.15,4.468 c 0.12,-0.468 0.18,-0.968 0.31,-1.429 0.26,-0.93 0.62,-1.832 0.92,-2.75 0.26,-1.02 0.53,-2.032 0.8,-3.051 -0.27,0.558 -0.98,1.969 -1.17,2.371 0,0.687 -0.25,1.32 -0.78,1.559 -0.01,0.011 -0.01,0.031 -0.02,0.039 -0.07,0.16 -0.65,1.25 -0.69,1.351 -0.07,-1.18 0.02,-2.32 0.04,-3.48 -0.33,-0.25 -0.67,-0.508 -1.07,-0.7 -0.39,0.77 -0.59,1.161 -1,1.969 0.97,1.321 1.85,2.692 2.66,4.121 z m -245.1,0 c 0.81,-1.429 1.69,-2.8 2.66,-4.121 -0.41,-0.808 -0.61,-1.199 -1,-1.969 -0.4,0.192 -0.73,0.45 -1.07,0.7 0.02,1.16 0.11,2.3 0.04,3.48 -0.04,-0.101 -0.61,-1.191 -0.69,-1.351 -0.01,-0.008 0,-0.028 -0.02,-0.039 -0.52,-0.239 -0.77,-0.872 -0.78,-1.559 -0.19,-0.402 -0.9,-1.813 -1.17,-2.371 0.27,1.019 0.55,2.031 0.8,3.051 0.3,0.918 0.66,1.82 0.92,2.75 0.13,0.461 0.19,0.961 0.31,1.429 z m 245.82,1.461 c 0.1,-0.461 0.15,-0.922 0.26,-1.383 -0.14,0.372 -0.24,0.75 -0.37,1.133 0.05,0.078 0.08,0.168 0.11,0.25 z m -246.54,0 c 0.04,-0.082 0.07,-0.172 0.12,-0.25 -0.13,-0.383 -0.23,-0.761 -0.37,-1.133 0.1,0.461 0.15,0.922 0.25,1.383 z M 3126.43,605 c -25.22,-12.668 -55.47,-17.352 -84.34,-18.73 29.4,-3.122 60.06,1.312 84.34,18.73 z m 42.85,4.91 c 0.14,-1.031 0.4,-2.051 0.56,-3.07 0.34,-2.09 0.73,-4.18 1.16,-6.27 l -0.28,-0.269 c -0.67,2.121 -1.18,4.301 -0.87,6.539 -0.59,-2.328 -0.26,-4.758 0.25,-7.129 -6.18,-6.16 -13.5,-10.762 -20.94,-14.219 -4.54,-1.461 -9.02,-2.941 -13.59,-4.691 -3.79,-1.43 -7.84,-3.313 -11.84,-4.469 0.44,-0.07 0.9,-0.012 1.35,-0.062 -3.76,-1.372 -7.48,-2.821 -11.09,-4.391 -4.01,0.519 -8.27,1.41 -8.36,1.172 -0.12,-0.313 1.98,-1.219 4.66,-2.153 -2.18,0.133 -4.83,0.071 -10.91,-1.5 1.35,-0.378 2.77,-0.687 4.2,-0.976 -12.28,-1.692 -24.97,-2.25 -37.09,-2.152 9.28,-2.168 18.84,-3.071 28.24,-2.418 7.34,-0.743 14.65,-1.161 22.01,-0.102 4.28,0.039 8.26,0.02 11.99,0.102 -2.3,-0.493 -4.59,-1.122 -6.87,-1.954 5.2,-0.027 9.74,-0.156 14.35,-0.218 -0.94,-0.149 -1.83,-0.301 -1.83,-0.508 0,-0.024 0.39,-0.063 0.41,-0.082 -2.2,0.172 -4.09,0.332 -4.16,0.082 -0.07,-0.231 0.8,-0.68 2.11,-1.192 -4.17,-0.128 -8.36,-0.332 -12.58,-0.601 1.47,0.223 2.95,0.422 4.43,0.641 -17.4,2.402 -30.32,-0.629 -47.48,0 8.69,-2.86 17.38,-3.219 26.09,-2.641 3.6,-0.219 7.16,-0.41 10.71,-0.559 -1.96,-0.57 -3.9,-1.16 -5.8,-1.968 -6.9,1.179 -13.18,1.168 -20.39,-0.454 5.3,-1.898 10.53,-2.5 15.78,-1.796 -0.06,-0.043 -0.13,-0.063 -0.2,-0.102 0.47,0.082 0.78,0.121 1.23,0.199 0.26,0.039 0.51,0.071 0.76,0.11 1.12,0.191 2.09,0.332 3.13,0.492 -0.24,-0.063 -0.48,-0.09 -0.72,-0.153 7.49,0.34 14.84,0.102 22.15,-0.179 -2.57,-0.457 -5.14,-0.899 -7.72,-1.348 -9.01,0.559 -18,0.777 -27.54,-0.98 11.12,-1.469 21.8,-2.801 32.76,-1.661 2.76,-0.308 5.53,-0.589 8.37,-0.621 -0.17,-0.089 -0.37,-0.14 -0.54,-0.238 0.41,0.07 1.24,0.141 1.7,0.199 0.89,0.02 1.84,0.219 2.77,0.328 1.02,0.133 2.26,0.262 3.4,0.391 -4.84,-0.769 -9.69,-1.758 -14.61,-3.359 -6.21,0 -12.2,0.07 -18.85,-0.039 1.91,-0.36 3.79,-0.52 5.68,-0.821 -1.32,-0.09 -2.66,-0.238 -4,-0.39 -6.88,2.371 -11.96,-0.598 -17.89,-0.059 3.89,-3.992 9.06,-3.172 13.65,-1.641 3.3,-0.32 6.57,-0.582 9.83,-0.781 -3.49,-0.609 -6.97,-1.367 -10.41,-2.558 15.14,1.597 28.6,-0.09 43.04,0.629 -4.15,-0.329 -10.25,-0.918 -10.11,-1.981 0.02,-0.18 1.03,-0.269 2.52,-0.348 1.48,-0.082 3.44,-0.132 5.39,-0.23 3.91,-0.199 7.85,-0.531 7.85,-0.531 5.2,-0.352 10.45,-0.801 15.76,-0.95 -2.05,0.032 -4.09,-0.039 -6.13,0.02 0,0 -11.55,0.27 -11.64,-0.449 -0.03,-0.281 1.06,-0.66 2.5,-1.063 -8.29,0.301 -16.6,0.403 -24.93,-0.039 1.92,0.199 3.88,0.473 5.79,0.571 -0.59,0.152 -1.16,0.218 -1.74,0.351 3.05,0.27 6.09,0.801 9.2,2.149 -0.69,0.07 -1.37,0.101 -2.05,0.171 -7.77,0.86 -15.53,1.778 -23.42,-1.211 -8.36,-0.351 -16.6,-1.468 -25.12,-0.839 7.37,-2.969 14.9,-3.219 22.42,-2.672 -2.06,-0.328 -4.13,-0.629 -6.21,-1.078 8.49,0.179 16.72,-0.102 24.88,-0.332 -6.6,-0.598 -13.21,-1.508 -19.86,-2.789 8.54,-0.52 15.28,-0.438 21.8,-0.239 -7.16,-0.801 -14.37,-1.621 -21.64,-2.34 -6.74,0.957 -12.27,0.489 -19.51,0.079 6.84,-3.809 14.26,-3.508 21.34,-1.149 10.02,-0.551 19.5,0.02 28.93,0.859 1.28,-0.449 2.53,-0.921 4.06,-1.23 4.45,-0.93 9.04,-1 9.04,-1 3.2,-0.078 6.37,0.012 9.48,0.141 5.72,0.179 11.36,0.597 16.83,0.621 -5.26,-0.352 -10.51,-0.672 -15.78,-1.231 0.78,0.168 1.52,0.301 2.31,0.489 -18.52,-0.34 -37.3,0.718 -55.55,-4.469 -3.79,0 -7.42,0.179 -10.66,0.699 1.85,-0.949 3.75,-1.68 5.66,-2.27 -0.23,-0.101 -0.47,-0.128 -0.7,-0.218 0.4,0 0.77,0 1.17,0.097 7.62,-2.257 15.6,-1.847 23.48,-0.468 0.62,-0.25 1.37,-0.481 2.14,-0.762 -5.58,-0.098 -11.11,-0.641 -16.73,-2.07 -7.45,1.171 -14.72,1.242 -22.54,-0.547 8.91,-2.133 17.15,-2.821 26.05,-1.09 6.3,-0.211 12.43,0.269 18.61,1.949 0.11,0 0.18,-0.101 0.28,-0.101 5.59,-1.52 11.34,-2.34 11.34,-2.34 1.98,-0.282 3.99,-0.36 5.98,-0.551 -0.69,-0.289 -0.96,-0.508 -1.21,-0.719 -0.66,0 -1.22,0 -1.91,-0.121 -0.38,-0.098 -0.64,-0.18 -1,-0.25 -14.77,2.313 -29.62,-0.48 -44.39,-3.648 25.76,-1.09 24.74,1.3 39.82,1.789 h -0.04 c 0.09,-0.27 3.15,0.101 5.96,-0.192 2.87,-0.277 5.78,-1.027 5.78,-1.027 0.39,-0.102 0.79,-0.211 1.19,-0.313 -0.2,0 -11.67,-1.16 -15.39,-1.839 2.79,0.722 5.57,1.461 8.28,2.23 -13.84,0.391 -31.29,-3.738 -44.34,-1.879 10.99,-5.16 22.77,-3.66 34.15,-0.859 1.78,-0.992 18.45,-1.09 18.45,-1.09 0.3,0 0.6,0 0.9,0 1.24,-0.461 2.63,-0.949 5.27,-1.641 -0.74,-0.101 -1.48,-0.129 -2.22,-0.23 -23.33,-1.27 1.18,2.621 -25.51,0.68 0.21,-0.098 0.44,-0.141 0.65,-0.231 -10.24,0.012 -20.38,-1.059 -30.79,-3.148 -6.05,0.25 -12.34,0.507 -16.52,0.879 10.32,-4.258 21.16,-5.418 31.95,-4.161 -1.77,-0.757 -3.47,-1.73 -5.07,-2.91 -5.41,-0.551 -10.8,-1.617 -16.18,-2.847 0.38,0.199 0.77,0.328 1.14,0.546 -7.37,1.071 -12.4,-0.32 -19.36,-1.867 5.65,-2.691 11.39,-1.883 16.66,0.571 4.36,-0.313 8.38,-0.332 12.23,-0.141 -1.9,-0.27 -3.8,-0.582 -5.76,-1.063 7.83,-2.117 15.06,-2.308 22.73,-0.738 0.99,0 2.95,-0.012 4.38,0 -6.11,-0.441 -12.33,-0.93 -12.33,-1.191 0,-0.578 7.63,-0.879 15.22,-1.047 2.97,-0.371 5.97,-0.621 5.97,-0.621 5.17,-0.289 10.25,-0.281 15.37,-0.332 -3.3,-0.617 -6.42,-1.117 -9.61,-1.637 -8.48,1.359 -16.86,2.109 -25.23,2.117 0.75,0.11 1.5,0.27 2.25,0.371 -4,0.5 -7.82,0.59 -11.57,0.512 -10.1,1.277 -19.4,0.109 -29.68,-1.133 2.14,-0.597 4.24,-0.89 6.34,-1.187 -5.5,-0.703 -11.06,-1.301 -16.95,-1.313 10.7,-2.789 21.19,-1.808 31.64,-0.16 9.42,-0.25 18.47,-0.539 27.27,-0.469 3.31,-0.828 6.62,-1.601 9.92,-2.269 -3.74,0 -7.46,0 -11.17,0 -10.4,1.73 -20.65,3.449 -31.04,-0.219 3.9,-0.301 7.57,-0.652 11.27,-0.992 1.55,-0.41 3.88,-0.801 6.35,-1.149 -12.84,0.411 -26.24,0.891 -37.5,1.039 -6.74,0.098 -13.25,-3.019 -19.43,-1.968 5.94,-2.071 13.54,0 19.23,-0.84 2.16,-0.301 4.34,-0.453 6.51,-0.723 -10.25,-0.219 -21.24,0.262 -30.16,-1 13.29,-2.039 27.5,-4.679 40.37,-0.117 21.46,-2.344 43.03,-3.543 64.71,-2.371 0.52,-0.152 1.07,-0.231 1.58,-0.391 l 0.12,0.512 c 2.87,0.168 5.74,0.277 8.61,0.527 10.44,-1.031 20.91,-0.461 31.19,2.211 0.83,0.141 1.66,0.34 2.48,0.489 -4.41,-1.758 -8.91,-3.348 -13.2,-4.797 12.18,-0.571 26.18,3.539 31.31,15.66 -1.3,-1.352 -2.79,-2.551 -4.36,-3.692 0.48,0.571 1.01,1.079 1.41,1.739 0.2,0.371 0.22,0.761 0.37,1.133 0.2,0.187 0.41,0.289 0.61,0.507 2.59,3.371 2.09,6.77 2.22,10.411 -0.48,-0.579 -0.64,-0.899 -0.95,-1.348 0.7,3.93 -0.67,7.109 -1.78,9.219 -1.85,4.48 -4.13,8.679 -6.43,12.73 -6.49,11.481 -13.65,22.438 -20.78,33.457 -3.75,5.801 -7.58,11.684 -11.35,17.641 0.46,-0.379 0.84,-0.809 1.31,-1.168 -9.09,12.168 -14.36,29.898 -20.66,44.41 z m -242.72,0 c -6.3,-14.519 -11.57,-32.238 -20.66,-44.418 0.47,0.367 0.86,0.797 1.31,1.168 -3.77,-5.949 -7.6,-11.828 -11.35,-17.629 -7.13,-11.019 -14.29,-21.98 -20.78,-33.461 -2.3,-4.058 -4.57,-8.25 -6.43,-12.73 -1.11,-2.121 -2.48,-5.301 -1.77,-9.219 -0.32,0.449 -0.48,0.77 -0.96,1.34 0.13,-3.641 -0.36,-7.039 2.23,-10.402 0.19,-0.219 0.41,-0.329 0.6,-0.508 0.16,-0.391 0.17,-0.77 0.37,-1.141 2.87,-4.629 7.88,-7.148 12.42,-8.359 1.76,-0.512 3.49,-0.75 5.22,-1.031 10.29,-2.668 20.76,-3.239 31.19,-2.211 2.87,-0.25 5.74,-0.36 8.61,-0.528 l 0.12,-0.511 c 0.52,0.16 1.06,0.242 1.58,0.39 21.68,-1.172 43.25,0 64.71,2.36 12.88,-4.559 27.08,-1.918 40.37,0.121 -8.91,1.257 -19.91,0.781 -30.16,1 2.17,0.269 4.35,0.429 6.51,0.718 5.69,0.821 13.29,-1.218 19.24,0.84 -6.19,-1.039 -12.7,2.071 -19.44,1.973 -11.26,-0.133 -24.66,-0.633 -37.5,-1.031 2.48,0.359 4.8,0.738 6.35,1.148 3.71,0.32 7.37,0.68 11.27,0.981 -10.38,3.679 -20.64,1.968 -31.04,0.23 -3.71,0 -7.43,0 -11.17,0 3.3,0.66 6.61,1.441 9.92,2.27 11.62,-0.098 22.5,0.261 36.02,0.621 -17.33,3.8 -34.45,3.437 -51.95,0.621 -3.19,0.527 -6.31,1.019 -9.61,1.636 5.12,0 10.2,0 15.37,0.332 0,0 3,0.25 5.98,0.622 7.58,0.168 15.21,0.48 15.21,1.058 0,0.262 -6.22,0.75 -12.32,1.192 1.77,0 5.43,-0.102 5.45,0.097 0.1,1.063 -25.12,3.633 -25.12,3.633 -2.39,0.25 -4.73,0.566 -7.09,0.859 2.65,0.411 5.26,0.879 7.95,1.25 0,0 11,1.59 13.34,2.629 5.69,0.559 11.36,1.34 16.56,1.102 -6.75,2.668 -13.92,2.476 -20.96,2.047 -2.93,0 -3.51,0.109 -6.27,0.121 4.19,0.469 8.34,1.742 12.19,3.48 -26.69,1.93 -2.18,-1.961 -25.51,-0.679 -0.73,0.097 -1.48,0.16 -2.22,0.23 2.64,0.688 4.03,1.18 5.27,1.641 0.3,-0.012 0.6,0 0.9,0 0,0 19.08,0.097 19.08,1.226 0,0.532 -17.7,2.184 -17.93,2.211 0.4,0.102 0.8,0.211 1.19,0.301 0,0 2.91,0.77 5.78,1.039 2.81,0.27 5.87,-0.098 5.96,0.18 0.16,0.492 -2.57,1.679 -5.61,2.133 -0.69,0.097 -1.25,0.097 -1.91,0.117 -0.25,0.211 -0.52,0.429 -1.21,0.722 1.99,0.18 4,0.289 5.98,0.571 0,0 5.75,0.82 11.34,2.34 5.6,1.527 10.93,3.699 10.78,4.148 -0.11,0.34 -5.44,-0.922 -10.76,-1.719 -5.34,-0.82 -10.72,-1.199 -10.72,-1.199 -6.61,-0.492 -13.25,-0.301 -19.88,0.277 7.07,0.18 14.14,0.5 21.17,1.172 0,0 21.09,2.36 20.82,3.957 -0.02,0.121 -20.06,-0.429 -20.06,-0.429 -2.07,0 -4.15,0.121 -6.23,0.14 -1.72,1.09 -11.09,2.36 -11.09,2.36 -5.45,0.601 -10.86,0.91 -16.29,1.273 5.47,-0.023 11.11,-0.441 16.83,-0.621 3.11,-0.121 6.29,-0.223 9.48,-0.141 0,0 4.59,0.071 9.04,1 4.46,0.918 8.52,2.789 8.32,3.301 -0.11,0.258 -4.22,-0.691 -8.24,-0.922 -4.08,-0.23 -8.24,0.102 -8.24,0.102 -3.32,0.211 -6.67,0.648 -10,1.058 -4.38,0.571 -8.8,1.321 -13.32,1.891 5.37,0.73 10.75,1.391 16.09,2.289 0,0 11.95,2.152 11.83,3.082 -0.09,0.731 -11.64,0.43 -11.64,0.43 -2.04,-0.063 -4.08,0.008 -6.13,-0.02 5.31,0.149 10.56,0.61 15.76,0.957 0,0 3.94,0.321 7.85,0.524 3.91,0.207 7.86,0.226 7.91,0.59 0.16,1.269 -9.26,1.968 -12.67,2.207 1.28,0.121 3.29,0.23 3.3,0.293 0.17,1.386 -12.09,2.339 -12.09,2.339 -0.86,0.039 -1.73,-0.011 -2.6,0 2.74,0.52 5.7,1.207 5.82,1.957 1.4,0.082 2.79,0.184 4.18,0.25 0,0 15.31,0.864 15.31,1.704 0,0.82 -14.6,1.777 -14.6,1.777 -0.47,0.031 -0.93,0.051 -1.39,0.082 -0.83,0.348 -2.02,0.699 -3.5,0.898 -2.34,0.301 -4.67,0.27 -4.67,0.27 -2.28,-0.039 -4.54,-0.168 -6.69,-0.199 -1.83,0.101 -3.57,0.218 -5.16,0.441 0.08,0.18 0.15,0.371 0.23,0.559 5.57,0.082 11.06,0.672 16.49,1.351 0,0 4.4,0.617 8.38,1.27 5.01,0.008 9.94,0.058 15.31,-0.102 -12.49,4.242 -25.02,3.973 -37.81,3.063 0.11,0.289 0.25,0.558 0.37,0.84 1.16,0.296 2.39,0.519 3.51,0.82 h 0.02 c 7.6,-0.531 15.33,-1.051 22.97,-0.434 0,0 3.67,0.301 7.23,1.121 3.57,0.821 6.94,2.161 6.82,2.61 -0.07,0.25 -1.97,0.09 -4.16,-0.078 0.02,0.019 0.4,0.058 0.4,0.078 0,0.211 -0.89,0.359 -1.83,0.511 4.62,0.059 9.16,0.192 14.35,0.219 -9.42,3.43 -18.98,3.75 -28.65,2.672 -0.37,0.367 -1.22,0.84 -2.48,1.309 1.71,-0.008 3.41,-0.121 5.12,-0.078 0,0 4.1,0.25 7.81,0.699 11.58,-1.563 22.98,-1.16 34.86,-0.352 1.66,-0.328 3.32,-0.629 4.99,-0.898 -5.31,0.078 -10.64,-0.121 -16.67,-0.86 10.13,-2.882 20.26,-3.55 30.4,-0.679 8.54,-0.731 17.15,-1.133 25.87,-1.192 -30.93,6.45 -30.95,4.942 -41.89,6.149 1.05,0.242 2.12,0.441 3.12,0.722 -6.08,1.579 -8.73,1.641 -10.91,1.508 2.68,0.93 4.78,1.84 4.66,2.153 -0.09,0.238 -4.35,-0.653 -8.35,-1.172 -3.62,1.57 -7.34,3.019 -11.1,4.39 0.45,0.051 0.91,-0.011 1.35,0.059 -4,1.16 -8.04,3.043 -11.84,4.473 -4.57,1.75 -9.05,3.226 -13.59,4.687 -7.44,3.461 -14.76,8.063 -20.94,14.223 0.51,2.367 0.84,4.797 0.26,7.129 0.3,-2.243 -0.21,-4.422 -0.88,-6.551 -0.09,0.09 -0.19,0.191 -0.28,0.281 0.44,2.078 0.82,4.18 1.16,6.27 0.16,1.019 0.42,2.039 0.56,3.07 z m 143.58,15.582 c -9.3,0.129 -18.57,-0.051 -27.85,-0.351 -15.98,0.109 -32.03,-0.231 -48.32,-1.371 5.14,-0.168 11.59,-0.418 17.13,-0.598 -12.78,-1.274 -25.58,-3.043 -38.4,-5.652 18.75,1.839 40.12,2.972 61.6,3.91 16.68,-0.289 31.94,-1.18 48.83,-1 14.56,-0.68 28.79,-1.399 41.48,-2.282 -6.9,1.211 -13.8,2.211 -20.68,3.102 0.23,0.02 0.42,0 0.66,0.02 -0.75,0.05 -1.51,0.121 -2.26,0.179 -6.61,0.832 -13.2,1.512 -19.81,2.071 6.61,0.289 14.03,0.539 20.2,0.878 -10.89,0.551 -21.74,0.942 -32.58,1.094 z m -140.39,70.688 c -2.72,-21.16 3.16,-40.348 10.29,-59.539 -0.29,0.699 -0.65,1.371 -0.92,2.07 2.02,-13.25 8.82,-25.262 18.24,-34.551 -0.82,0.5 -1.91,1.012 -2.65,1.512 8.33,-13.293 22.47,-19.473 37.24,-21.883 11.98,-5.809 25.8,-4.969 39.32,-3.219 18.21,-1.929 36.43,-1.84 54.34,2.211 2.83,0.071 5.66,0.199 8.45,0.539 -0.49,-0.238 -1.13,-0.5 -1.6,-0.738 18.57,0.84 38.21,6.387 48.67,23.09 -0.74,-0.5 -1.83,-1.012 -2.65,-1.512 9.42,9.289 16.22,21.301 18.24,34.551 -0.27,-0.699 -0.62,-1.371 -0.92,-2.07 7.14,19.191 13.01,38.379 10.3,59.539 -4.88,-22.461 -11.78,-40.891 -12.43,-64.219 -7,-13.672 -18.18,-24.602 -30.19,-32.109 -14.12,-8.821 -31.2,-14.75 -49.1,-16.641 0.58,-0.07 1.17,-0.039 1.75,-0.102 -22.25,-1.328 -45.25,0.641 -67.98,2.262 -7.45,1.66 -14.56,4.129 -21.33,7.07 17.07,-6.019 35.73,-7.25 54.02,-5.543 -23.03,1.973 -47.78,5.012 -69.41,13.614 -11.65,7.48 -22.44,18.136 -29.26,31.437 -0.65,23.34 -7.55,41.77 -12.42,64.223 z m 240.72,5.64 c -5.01,-29.738 -6.63,-58.05 -18.83,-82.75 -5.15,-10.531 -12.87,-19.992 -22.65,-26.609 -12.33,-8.41 -27.59,-12.859 -43.38,-15.5 16.11,0.437 32.07,3.328 45.93,11.437 6.42,3.793 11.96,8.84 16.66,14.551 4.05,2.02 7.71,4.68 10.53,8.383 4.99,6.707 6.64,14.727 7.42,22.988 -3.05,-7.73 -5.77,-15.058 -10.21,-20.879 -0.53,-0.711 -1.2,-1.351 -1.8,-2.031 0.99,1.66 2.04,3.289 2.89,5.02 12.89,26.57 12.49,55.558 13.44,85.39 z m -245.1,0 c 0.95,-29.832 0.55,-58.82 13.44,-85.39 0.85,-1.731 1.9,-3.36 2.89,-5.02 -0.6,0.68 -1.27,1.32 -1.8,2.031 -4.43,5.821 -7.16,13.149 -10.21,20.879 0.78,-8.261 2.43,-16.289 7.42,-22.988 2.82,-3.703 6.48,-6.363 10.53,-8.383 4.7,-5.711 10.24,-10.758 16.66,-14.551 13.86,-8.109 29.82,-11 45.94,-11.437 -15.8,2.641 -31.06,7.09 -43.38,15.5 -9.78,6.617 -17.51,16.078 -22.66,26.609 -12.19,24.7 -13.81,53.012 -18.83,82.75 z m -21.87,25.02 c 3.89,-44.141 4.11,-58.379 9.37,-102.539 3.79,34.668 1.45,68.781 -9.37,102.539 z m 264.47,48.73 c -7.88,-36.039 -11.54,-69.781 -10.62,-106.25 7.18,36.469 10.6,69.071 10.62,106.25 z m -240.1,0 c 0.02,-37.179 3.44,-69.781 10.63,-106.25 0.91,36.469 -2.74,70.211 -10.63,106.25 z m 254.48,3.129 c -6.76,-28.051 -11.09,-54.437 -8.75,-83.148 5.74,28.551 9.85,53.758 8.75,83.148 z m -268.85,0 c -1.1,-29.39 3,-54.597 8.75,-83.148 2.33,28.711 -2,55.097 -8.75,83.148 z m -16.88,22.5 c -0.93,-19.437 1.31,-34.379 5.63,-53.148 3.83,18.25 1.22,35.808 -5.63,53.148 z M 3208.6,923.07 c -8.48,-27.308 -11.89,-53.672 -10.63,-81.871 6.87,28.262 9.93,52.832 10.63,81.871 z m -321.35,0 c 0.69,-29.039 3.75,-53.609 10.62,-81.871 1.27,28.199 -2.15,54.563 -10.62,81.871 z m 308.57,3.071 c -0.65,-4.661 -1.39,-9.321 -1.97,-13.993 -4.93,-18.867 -8.7,-37.976 -11.86,-57.238 0.4,7 2.12,19.68 4.87,36.809 4.47,17.101 6.84,26.211 8.96,34.422 z m 18.97,58.941 c -2.42,-7.32 -3.81,-14.953 -4.16,-22.852 -2.05,-4.89 -3.99,-9.8 -5.78,-14.75 3.13,13.532 5.07,22 7.92,34.36 0.7,1.07 1.35,2.16 2.02,3.242 z m -333.73,0 c 0.66,-1.082 1.32,-2.172 2.01,-3.242 2.85,-12.36 4.79,-20.828 7.93,-34.36 -1.8,4.95 -3.74,9.86 -5.78,14.75 -0.36,7.899 -1.74,15.532 -4.16,22.852 z m 13.12,5.977 c 4.22,-14.481 8.34,-28.977 12.34,-43.5 -4.15,14.543 -8.6,28.972 -13.02,43.421 0.23,0.02 0.45,0.051 0.68,0.079 z m 348.69,73.531 c -3.78,-8.63 -7.22,-17.32 -10.29,-25.84 -5.64,-15.59 -11.09,-32.31 -17.83,-48.34 4.06,17.66 6.45,28.32 6.33,28.48 0.75,2.62 1.5,5.25 2.26,7.87 7.24,13.35 13.56,25.73 19.53,37.83 z m -51.09,11.7 c -7.72,-27.83 -15.13,-55.73 -22.19,-83.731 -2.95,-0.039 -5.88,-0.098 -8.85,-0.098 0.85,3.129 3.25,11.879 3.25,11.879 6.36,23.32 13.05,46.56 19.78,69.78 2.7,0.66 5.34,1.44 8.01,2.17 z m 13.4,3.91 c -8.71,-29.04 -17.01,-58.21 -24.75,-87.52 -2.15,-0.059 -4.34,-0.02 -6.5,-0.059 7.66,28.549 15.67,56.999 24.02,85.349 2.42,0.72 4.84,1.44 7.23,2.23 z m 12.01,4.37 c -9.13,-30.36 -17.96,-60.84 -26.29,-91.422 -1.71,-0.078 -3.38,-0.226 -5.1,-0.296 8.29,30.128 17.15,60.098 26.47,89.928 1.64,0.59 3.29,1.17 4.92,1.79 z m -34.94,3.23 c -0.56,-2.07 -1.07,-4.15 -1.62,-6.21 -2.91,-0.69 -5.87,-1.26 -8.81,-1.86 0.48,2.04 1.01,4.07 1.5,6.11 2.98,0.64 5.98,1.22 8.93,1.96 z m 46.29,1.36 c -9.65,-31.75 -19.2,-63.55 -28.23,-95.461 -1.35,-0.078 -2.71,-0.168 -4.08,-0.238 8.92,31.379 18.38,62.629 28.13,93.789 1.44,0.6 2.76,1.3 4.18,1.91 z m -32.44,2.56 c -0.61,-2.15 -1.26,-4.31 -1.86,-6.46 -2.62,-0.77 -5.27,-1.44 -7.93,-2.13 0.61,2.11 1.2,4.22 1.82,6.33 2.66,0.73 5.33,1.44 7.97,2.26 z m -12.74,0.26 c -0.03,-0.1 -0.05,-0.2 -0.08,-0.3 -3,-0.76 -6.03,-1.46 -9.06,-2.16 0.01,0.04 0.01,0.09 0.02,0.13 3.04,0.69 6.09,1.5 9.12,2.33 z m 54.51,1.44 c -10.33,-32.78 -19.64,-65.88 -28.28,-99.178 -1.41,-0.113 -2.87,-0.152 -4.3,-0.254 9.78,32.902 20.1,65.702 30.49,98.472 0.69,0.33 1.41,0.64 2.09,0.96 z m -40.39,3.13 c -0.1,-0.36 -0.21,-0.72 -0.31,-1.08 -2.61,-0.77 -5.26,-1.43 -7.89,-2.15 0.05,0.16 0.09,0.32 0.14,0.47 2.71,0.86 5.4,1.74 8.06,2.76 z m 12.74,0.17 c -0.71,-2.32 -1.44,-4.64 -2.15,-6.97 -2.49,-0.88 -4.9,-1.89 -7.42,-2.7 0.69,2.33 1.41,4.64 2.11,6.96 2.5,0.87 4.99,1.75 7.46,2.71 z m 12.4,5.43 c -0.82,-2.67 -1.67,-5.33 -2.48,-8.01 -1.57,-0.64 -3.22,-1.12 -4.81,-1.73 0.79,2.49 1.61,4.98 2.41,7.48 1.64,0.72 3.26,1.49 4.88,2.26 z m 32.67,0.24 c -0.65,-1.21 -1.4,-2.39 -2.05,-3.6 -0.88,-0.85 -1.72,-1.76 -2.63,-2.58 0.69,0.43 1.29,0.95 1.97,1.39 -10.45,-19.75 -19.05,-40.22 -26.54,-61.46 6.05,20.35 12.33,40.62 19.08,60.72 3.5,1.77 6.8,3.67 10.17,5.53 z m -444.94,5.72 c 11.93,-34.77 23,-62.65 39.4,-95.63 -8.17,34.18 -20.71,65.29 -39.4,95.63 z m 377.46,0.06 c -1.32,-4.85 -2.69,-9.68 -4,-14.53 -3.02,-0.7 -6.03,-1.35 -9.06,-1.92 1.11,4.58 2.21,9.15 3.36,13.71 3.26,0.81 6.49,1.76 9.7,2.74 z m 46.51,0.06 c -0.92,-3.02 -1.82,-6.03 -2.74,-9.05 -1.3,-0.6 -2.64,-1.17 -3.96,-1.75 0.89,2.83 1.81,5.66 2.71,8.49 1.35,0.72 2.65,1.55 3.99,2.31 z m -289.06,0.78 c 11.45,-11.11 27.8,-12.54 42.98,-12.89 -13.36,4.48 -30.92,6.68 -42.98,12.89 z m 256.58,2.73 c -1.38,-4.75 -2.75,-9.51 -4.1,-14.27 -2.61,-0.86 -5.25,-1.58 -7.89,-2.29 1.43,4.9 2.9,9.78 4.35,14.67 2.55,0.6 5.1,1.22 7.64,1.89 z m -171.66,2.68 c 28.11,-4.71 56.59,-8.61 84.43,-0.55 -26.83,-3.24 -56.59,0.33 -84.43,0.55 z m 185.99,1.5 c -1.66,-5.3 -3.3,-10.62 -4.94,-15.93 -2.43,-0.84 -4.92,-1.6 -7.38,-2.39 0.2,0.67 0.4,1.33 0.6,2 2.14,0.97 4.33,1.85 6.41,2.96 -2.04,-0.95 -4.18,-1.65 -6.27,-2.48 1.37,4.55 2.75,9.1 4.14,13.64 2.48,0.72 4.98,1.41 7.44,2.2 z m -25.56,2.31 c -0.45,-1.64 -0.92,-3.28 -1.37,-4.92 -3.21,-0.76 -6.46,-1.42 -9.71,-2.07 0.42,1.62 0.79,3.27 1.21,4.9 3.3,0.66 6.6,1.27 9.87,2.09 z m -307.5,0.99 c 87.8,-42.87 192.18,-65.07 282.65,-48.8 -0.18,-0.91 -0.38,-1.81 -0.56,-2.72 0,0 -10.37,-51.86 -9.91,-51.97 1.15,-0.28 12.82,48.87 12.82,48.87 0.51,2.19 1.08,4.36 1.6,6.56 2.87,0.55 5.77,0.99 8.61,1.62 -5.69,-21.27 -11.37,-42.54 -16.76,-63.89 0,0 -2.67,-11.12 -3.98,-16.46 -62.22,0.191 -128.41,7.121 -193.73,7.109 -15.8,-0.008 -31.54,-0.469 -47.17,-1.488 -10.65,40.529 -21.77,80.949 -33.57,121.169 z m 345.06,0.88 c -1.6,-5.18 -3.22,-10.35 -4.81,-15.54 -1.56,-0.62 -3.13,-1.23 -4.71,-1.82 1.69,5.27 3.37,10.56 5.08,15.82 1.48,0.52 2.97,1 4.44,1.54 z m -23.31,2.21 c -0.51,-1.77 -1,-3.54 -1.52,-5.31 -2.53,-0.75 -5.08,-1.44 -7.64,-2.11 0.52,1.75 1.05,3.5 1.57,5.25 2.53,0.72 5.08,1.37 7.59,2.17 z m 34.4,2.27 c -1.54,-5.06 -3.05,-10.12 -4.59,-15.18 -1.26,-0.57 -2.5,-1.18 -3.77,-1.74 1.65,5.19 3.32,10.37 4.98,15.55 1.13,0.46 2.26,0.89 3.38,1.37 z m -371.04,2.1 c 2.42,-1.27 4.88,-2.48 7.33,-3.72 12.93,-41.53 25.08,-83.31 36.78,-125.241 -2.41,-0.18 -4.81,-0.34 -7.21,-0.547 -12.44,43.168 -25.16,86.228 -36.9,129.508 z m 351.61,1.02 c -0.62,-1.95 -1.2,-3.92 -1.82,-5.88 -2.51,-0.92 -5.05,-1.76 -7.6,-2.6 0.58,1.88 1.14,3.77 1.72,5.65 2.58,0.92 5.15,1.83 7.7,2.83 z m 29.78,1.6 c -2.91,-8.41 -5.56,-16.9 -8.3,-25.37 -0.75,-0.38 -1.51,-0.75 -2.27,-1.13 1.06,3.33 2.11,6.67 3.17,10 0.3,0.19 0.62,0.33 0.92,0.52 -0.29,-0.14 -0.59,-0.26 -0.88,-0.4 1.6,5.05 3.18,10.11 4.78,15.17 0.86,0.4 1.73,0.8 2.58,1.21 z m -391.85,3.13 c 0.81,-0.46 1.64,-0.9 2.46,-1.35 12.58,-44.99 26.32,-89.62 39.7,-134.318 -0.61,-0.063 -1.22,-0.153 -1.83,-0.211 -12.84,45.489 -26.56,90.729 -40.33,135.879 z m 374.41,0.58 c -0.75,-2.4 -1.5,-4.8 -2.25,-7.2 -1.5,-0.71 -3.02,-1.4 -4.53,-2.09 0.09,0.28 0.2,0.57 0.29,0.85 0.37,0.22 0.74,0.41 1.1,0.63 -0.34,-0.14 -0.7,-0.25 -1.04,-0.39 0.69,2.08 1.37,4.17 2.05,6.25 1.47,0.64 2.93,1.29 4.38,1.95 z m -385.08,5.45 c 0.69,-0.4 1.28,-0.84 1.97,-1.25 0.11,-0.06 0.23,-0.11 0.34,-0.17 14.78,-46.91 29.54,-93.9 43.36,-141.118 -0.24,-0.031 -0.47,-0.051 -0.71,-0.082 -14.67,47.67 -30.29,95.03 -44.96,142.62 z m 396.41,0.06 c -0.72,-2.37 -1.45,-4.75 -2.17,-7.13 -1.13,-0.57 -2.24,-1.17 -3.38,-1.74 0.77,2.39 1.52,4.79 2.29,7.17 1.09,0.55 2.17,1.14 3.26,1.7 z m -378.69,1.06 c 2.19,-1.2 4.39,-2.4 6.64,-3.52 0.25,-0.81 0.52,-1.62 0.78,-2.44 -2.33,1.22 -4.56,2.52 -6.86,3.77 -0.19,0.73 -0.37,1.46 -0.56,2.19 z m -1.29,4.98 c 0.85,-0.66 1.67,-1.37 2.54,-2.01 -0.81,0.48 -1.6,1.01 -2.41,1.5 -0.04,0.17 -0.09,0.34 -0.13,0.51 z m 413.75,0.54 c 0.59,-2.87 0.95,-5.79 0.76,-8.67 -0.43,-1.56 -0.84,-3.12 -1.23,-4.71 -0.39,-0.4 -0.76,-0.82 -1.15,-1.23 l 0.6,1.14 c -0.99,-0.81 -1.99,-1.57 -2.99,-2.37 1.35,2.9 2.61,5.63 4.1,8.87 -2.7,-3.84 -5.11,-7.76 -7.63,-11.66 -4.47,-3.49 -8.99,-6.89 -13.62,-10.08 3.95,2.16 7.76,4.52 11.53,6.94 -1.49,-2.35 -2.99,-4.69 -4.42,-7.05 -4.64,-2.87 -9.39,-5.68 -14.31,-8.36 2.95,8.55 5.85,17.12 8.98,25.6 6.67,3.53 13.09,7.46 19.38,11.58 z m -423.73,1.22 c 1.03,-0.67 2.05,-1.37 3.1,-2.02 0.23,-0.83 0.46,-1.66 0.69,-2.5 -0.96,0.55 -1.96,1.06 -2.91,1.6 -0.3,0.97 -0.59,1.95 -0.88,2.92 z m 427.44,1.26 c 0.07,-0.28 0.07,-0.54 0.15,-0.84 -0.16,-0.49 -0.3,-1.02 -0.47,-1.52 -0.15,0.6 -0.41,1.17 -0.6,1.76 0.3,0.21 0.62,0.4 0.92,0.6 z m -157.66,0.65 c 0.34,-5.65 3.19,-11.64 9.53,-12.99 5.95,-0.91 10.87,1.37 16.17,3.38 -6,0.36 -10.71,-0.82 -15.6,0.06 -3.95,0.38 -7.55,4.59 -10.1,9.55 z m 16.23,0.04 c 2.49,-1.59 5.42,-2.51 8.46,-2.75 -4.14,-0.61 -8.43,-0.46 -11.7,1.64 -0.45,0.25 -0.81,0.68 -1.23,0.99 0.77,-0.15 1.55,-0.22 2.34,-0.21 0.74,0.03 1.44,0.18 2.13,0.33 z m -265.21,0.25 c 7.17,-3.86 14.59,-7.31 22.34,-10.19 4.15,-1.55 8.57,-2.65 13.01,-3.73 24.03,-12.51 50.97,-19.31 78.32,-23.91 33.19,-12.97 68.81,-13.74 104.37,-10.68 27.1,-2.22 54.46,-1.46 80.59,4.3 -0.97,-4.47 -1.9,-8.93 -2.83,-13.4 -3.14,-0.54 -6.28,-1.07 -9.4,-1.53 -21.25,-3.12 -42.72,-4.45 -64,-4.82 -21.3,-0.37 -42.89,0.25 -64.49,2.23 -17.01,1.56 -34.6,3.75 -51.53,8.8 16.64,-6.03 34.25,-9.06 51.27,-11.19 21.64,-2.71 43.32,-3.71 64.81,-3.34 21.36,0.37 42.95,2.07 64.31,5.94 2.84,0.51 5.7,1.13 8.56,1.72 -0.02,-0.09 -0.04,-0.18 -0.06,-0.27 -17.84,-4 -35.98,-7.14 -53.93,-10.06 17.84,1.08 35.7,3.06 53.17,6.5 -0.41,-1.99 -0.87,-3.97 -1.27,-5.96 -91.18,-17.26 -198.64,5.92 -287.5,50.73 -0.27,0.9 -0.53,1.81 -0.8,2.71 3.07,-1.38 6.12,-2.79 9.25,-4.04 13.24,-7.02 27.32,-12.64 41.65,-17.7 -16.78,8.97 -35.33,18.03 -52.8,27.97 -0.99,3.32 -2.04,6.61 -3.04,9.93 z m 301.7,3.75 c -1.44,-0.61 -2.78,-1.2 -4.34,-1.85 0.17,0.14 0.32,0.29 0.49,0.43 1.33,0.49 2.54,0.92 3.85,1.43 z m 24.02,0.26 c -2.81,-10.12 -5.59,-20.25 -8.38,-30.37 -3.32,-0.85 -6.65,-1.6 -10,-2.35 2.67,10.1 5.56,20.12 8.61,30.08 1.54,-0.01 3.12,0.35 4.57,0.76 1.79,0.49 3.47,1.24 5.2,1.88 z m -357.75,1.7 c 0.74,-0.58 1.47,-1.18 2.22,-1.74 0.4,-1.26 0.8,-2.53 1.19,-3.79 -0.7,0.44 -1.43,0.86 -2.12,1.31 -0.43,1.41 -0.87,2.81 -1.29,4.22 z m -19.95,0.82 c 5.15,-3.76 10.48,-7.48 16.12,-11.12 15.79,-49.72 32.68,-99.03 48.55,-148.629 -0.67,-0.082 -1.35,-0.16 -2.03,-0.231 -3.06,9.06 -6.63,18 -10.9,26.79 -0.81,2.75 2.46,-11.59 6.08,-27.36 -0.18,-0.02 -0.36,-0.031 -0.53,-0.059 l 0.06,-0.39 c -6.07,14.909 -11.22,30.279 -16.44,44.709 -3.07,8.51 -6.51,17.21 -10.3,25.84 6.43,-13.05 13.15,-26.3 21.13,-40.86 -8.43,25.74 -18.36,50.28 -30.83,73.86 0.67,-0.44 1.27,-0.96 1.97,-1.38 -0.91,0.82 -1.76,1.72 -2.64,2.58 -7.15,13.4 -15.11,26.51 -24.12,39.33 1.94,-4.21 3.49,-7.49 5.33,-11.5 -1.48,1.76 -3.17,3.4 -4.76,5.09 -0.39,1.59 -0.8,3.15 -1.23,4.71 -0.43,6.39 1.21,13.02 4.55,18.62 z m 49.81,1.62 c 1.85,0.01 3.72,-0.04 5.57,0 4.29,-3.87 8.74,-7.45 13.36,-10.73 -6.45,3.24 -12.72,6.91 -18.93,10.73 z m 357.09,0.04 c -2.83,-8.6 -5.69,-17.18 -8.44,-25.8 -2.51,-0.87 -5.06,-1.65 -7.6,-2.46 2.94,9.42 6,18.8 9.03,28.2 2.32,-0.02 4.67,0.03 7.01,0.06 z m -368.91,0.06 c 0.06,0 0.12,0 0.18,0 1.78,-1.15 3.54,-2.33 5.35,-3.42 1.08,-3.34 2.16,-6.68 3.22,-10.02 -2.12,1.28 -4.2,2.59 -6.27,3.91 -0.83,3.17 -1.66,6.35 -2.48,9.53 z m 204.94,0.02 c -5.22,-4.44 -5.18,-9.99 -1.07,-15.04 3.95,5.31 3.75,9.31 1.07,15.04 z m 174.26,0.15 c -2.22,-7.21 -4.44,-14.41 -6.68,-21.62 -1.38,-0.53 -2.78,-1.02 -4.18,-1.54 2.55,7.69 5.18,15.34 7.78,23.01 1.02,0.04 2.06,0.11 3.08,0.15 z m -29.04,0.03 c 1.57,-0.07 3.15,-0.14 4.73,-0.18 -3.12,-10.23 -6.26,-20.45 -9.28,-30.7 -2.5,-0.75 -5.03,-1.38 -7.54,-2.07 3.14,10.55 6.26,21.11 9.43,31.66 0.9,0.41 1.77,0.86 2.66,1.29 z m -360.33,0.4 c 1,-0.07 2.01,-0.15 3,-0.21 0.39,-1.4 0.76,-2.81 1.14,-4.22 -0.87,0.61 -1.79,1.2 -2.64,1.82 0.93,-0.91 1.9,-1.73 2.85,-2.6 0.26,-0.96 0.52,-1.91 0.78,-2.87 -1.1,0.71 -2.22,1.39 -3.32,2.11 -0.6,1.99 -1.21,3.98 -1.81,5.97 z m 347.59,0.18 c 1.21,-0.07 2.42,-0.17 3.62,-0.23 -0.26,-0.94 -0.52,-1.88 -0.78,-2.82 -2,-1.02 -3.96,-2.11 -6.04,-2.98 -1.4,-0.57 -2.78,-1.13 -4.2,-1.37 0.31,1 0.65,1.99 0.96,2.99 2.23,1.31 4.33,2.87 6.45,4.41 z m 51.51,0.08 c -1.82,-5.98 -3.62,-11.95 -5.43,-17.93 -1.04,-0.43 -2.06,-0.87 -3.11,-1.29 2.05,6.35 4.09,12.71 6.12,19.06 0.8,0.06 1.61,0.09 2.42,0.16 z m -406.9,0.31 c 0.16,-0.01 0.3,-0.02 0.45,-0.04 0.04,-0.12 0.08,-0.23 0.12,-0.35 -0.19,0.13 -0.38,0.26 -0.57,0.39 z m -24,0.04 c 0.91,-0.69 1.86,-1.38 2.79,-2.07 -2.97,-2.92 -4.99,-6.69 -5.99,-10.68 -0.17,0.5 -0.3,1.02 -0.47,1.52 1.05,3.47 0.78,6.38 2.24,10.33 -2.19,-0.96 -3.33,-2.6 -4.1,-4.41 -0.18,0.62 -0.46,1.29 -0.6,1.89 -0.13,1.35 -0.5,2.19 -0.24,2.17 -0.36,-0.03 0.28,0.03 1.16,0.49 1.5,0.45 3.34,0.58 5.21,0.76 z m 452.75,0.57 c 1.86,-2.3 3.25,-4.92 4.38,-7.66 -4.74,-3.01 -9.53,-5.94 -14.41,-8.77 1.13,3 2.22,6 3.37,8.99 2.42,2.25 4.61,4.77 6.66,7.44 z m 0.16,0.17 c 1.67,-0.18 3.37,-0.4 5,-0.56 2.37,-0.25 4.54,-0.39 6.39,-0.94 0.87,-0.46 1.52,-0.52 1.15,-0.49 0.27,0.02 -0.11,-0.82 -0.23,-2.17 -0.03,-0.11 -0.08,-0.23 -0.12,-0.35 l -0.84,1.27 c -0.32,-0.21 -0.64,-0.41 -0.96,-0.62 -0.69,0.89 -1.54,1.68 -2.79,2.22 0.48,-1.28 0.6,-2.35 0.82,-3.47 -0.71,-0.47 -1.42,-0.93 -2.13,-1.39 -1.63,2.53 -3.72,4.76 -6.37,6.41 0.03,0.03 0.05,0.06 0.08,0.1 z m -338.26,0.67 c 2.73,-2.27 5.42,-4.51 8.47,-6.84 -3.84,1.65 -7.44,4.04 -10.87,6.74 0.8,0.04 1.6,0.05 2.4,0.1 z m 297.15,0.15 c -0.02,-0.05 -0.02,-0.1 -0.04,-0.15 -0.42,0.02 -0.85,0.04 -1.27,0.06 0.43,0.02 0.87,0.07 1.31,0.1 z m -148.5,0.11 c 1.46,-6.41 3.27,-12.87 5.66,-19.46 -0.38,6.5 -0.74,12.98 -1.21,19.43 z m -133.77,0.21 c 1.22,-2.02 2.81,-3.86 5.29,-5.12 4.94,-1.79 10.03,0.19 13.21,3.15 0.69,0.58 1.2,1.3 1.83,1.93 l -9.86,0.02 c -1.25,-0.58 -2.47,-0.87 -3.55,-0.49 -0.42,0.05 -0.78,0.34 -1.18,0.49 z m -114.49,0.12 c 0.42,-1.33 0.83,-2.66 1.25,-3.99 -1.66,1.15 -3.34,2.3 -4.98,3.46 1.24,0.16 2.48,0.35 3.73,0.53 z m 405.53,0.15 c 0.54,-0.03 1.06,0.02 1.6,0 -0.13,-0.41 -0.27,-0.82 -0.39,-1.23 -0.97,0.05 -1.97,0.09 -2.93,0.14 0.11,0.33 0.22,0.66 0.33,1 0.46,0.03 0.93,0.07 1.39,0.09 z m -389.61,0 c 1,-0.05 2.03,0.01 3.04,0 0.13,-0.46 0.25,-0.92 0.37,-1.38 -0.97,-0.05 -1.96,-0.09 -2.94,-0.14 -0.16,0.51 -0.32,1.01 -0.47,1.52 z m 400.78,0.28 c -0.2,-0.66 -0.41,-1.32 -0.61,-1.98 -0.77,0.04 -1.53,0.08 -2.3,0.12 0.17,0.54 0.33,1.08 0.51,1.62 0.8,0.05 1.6,0.17 2.4,0.23 z m 7.21,0.29 c 1.19,-0.2 2.36,-0.33 3.55,-0.51 -1.67,-4.47 -3.41,-8.91 -5.04,-13.4 -1.1,-0.97 -2.17,-1.93 -3.5,-2.95 1.04,0.31 1.92,0.83 2.88,1.23 -0.96,-2.64 -1.9,-5.28 -2.84,-7.93 -0.99,-0.54 -2,-1.06 -3,-1.6 0.77,2.45 1.55,4.9 2.32,7.35 0.37,0.2 0.75,0.38 1.11,0.58 -0.35,-0.15 -0.72,-0.29 -1.07,-0.45 1.86,5.9 3.72,11.79 5.59,17.68 z m -417.04,0.25 c 0.55,-0.07 1.1,-0.1 1.64,-0.17 0.27,-0.84 0.54,-1.68 0.81,-2.52 -0.27,-0.01 -0.5,-0.03 -0.77,-0.04 -0.36,0.24 -0.72,0.49 -1.07,0.74 -0.2,0.66 -0.4,1.33 -0.61,1.99 z m 249.07,0.41 c 2.71,-0.72 5.42,-1.19 8.14,-1.75 l -3.24,0.01 c 1.29,-5.57 2.19,-11.17 1.68,-16.79 1.96,5.35 2.51,10.98 2.24,16.64 1.05,-0.21 2.08,-0.49 3.13,-0.68 0.65,-2.47 1.32,-4.94 1.91,-7.39 0.1,-0.93 0.31,-1.88 0.37,-2.81 0.28,-5.35 1.07,-10.85 -1.56,-13.83 -0.79,-1.34 -2.9,-1.71 -4.88,-1.66 -2.07,0.17 -4.72,0.92 -8.07,0.53 -12.09,-1.72 -24.7,-2.99 -37.03,-2.03 -5.23,1.85 -10.75,3.68 -16.37,5.52 3.79,0.19 7.58,0.7 11.25,1.82 -9.58,0.56 -18.69,2.76 -26.71,6.02 -3.47,1.43 -6.93,2.22 -10.06,3.14 -0.19,0.31 -0.47,0.59 -0.61,0.92 -1.48,2.89 -1.52,6.53 -1.38,10.19 1.36,-0.06 2.72,-0.12 4.08,-0.17 0.07,-0.65 0.12,-1.31 0.31,-1.94 0.6,-2.06 1.97,-3.97 3.89,-4.76 -1.66,1.23 -2.32,3.22 -2.46,5.06 -0.04,0.52 0.04,1.04 0.1,1.56 1.95,-0.08 3.9,-0.19 5.86,-0.25 0.34,-1.33 0.71,-2.66 1.36,-3.99 0.22,1.59 0.45,2.71 0.69,3.89 2.18,-0.07 4.36,-0.11 6.54,-0.16 -0.2,-1 -0.36,-1.93 -0.65,-3.16 0.77,1.02 1.42,2.09 2.09,3.14 2.19,-0.04 4.38,-0.06 6.57,-0.08 -0.51,-3.61 -0.25,-7.37 1.01,-11.17 2.53,4.02 3.89,7.53 4.69,11.15 1.9,0.01 3.8,0.07 5.7,0.1 0.21,-5.63 0.79,-11.31 2.29,-17.18 1.37,5.88 2.22,11.58 2.79,17.26 2.41,0.07 4.82,0.16 7.23,0.27 0.06,-0.47 0.13,-0.93 0.19,-1.4 0.06,0.49 0.1,0.95 0.14,1.42 3.34,0.16 6.69,0.35 10.04,0.61 0.78,-6.2 1.96,-12.42 3.81,-19.24 1.62,6.57 2.04,13.05 1.74,19.47 h -2.13 c 5.1,0.45 10.2,1 15.31,1.72 z m -130.32,0.12 c 13.04,-0.49 26.02,-1.18 38.97,-1.84 -1.01,-4.21 -0.93,-8.56 2.5,-12.44 5.31,-4.93 12.4,-6.05 17.66,-7.75 0.4,-0.14 0.82,-0.19 1.23,-0.31 5.07,-4.27 11.16,-6.96 17.69,-8.52 16.84,-6.55 35.73,-5.97 52.93,-2.64 1.63,0.44 4,-0.2 6.97,-0.17 1.31,-0.04 2.63,0.23 3.91,0.68 1.49,-0.04 3,0.19 4.53,1.25 3.84,3.36 4.86,8.84 4.65,13.32 -0.04,5.12 -1.1,10.02 -2.42,14.75 1.75,-0.24 3.5,-0.42 5.25,-0.61 1.36,-4.11 2.54,-8.25 2.89,-12.51 0.53,-6.24 -0.9,-13.04 -4.88,-18.56 4.83,4.84 7.37,11.74 7.38,18.63 0.01,4.13 -0.85,8.11 -1.91,12.03 2.66,-0.21 5.33,-0.25 8.01,-0.33 0.86,-1.23 1.78,-2.42 2.85,-3.51 1.2,-3.6 3.15,-6.92 6.29,-9.61 5.03,-3.97 11.71,-4.72 17.54,-3.38 4.61,1.02 8.82,2.78 12.75,5 6.95,0.07 13.53,1.62 19.73,4.22 -2.73,-10.16 -5.2,-20.35 -7.54,-30.59 -17.8,-3.61 -35.86,-5.73 -53.87,-5.76 17.87,-1.74 35.66,-0.82 53.1,2.23 -0.35,-1.57 -0.65,-3.15 -0.99,-4.71 -12.57,-2.31 -25.33,-4.1 -38.24,-5.23 0.85,0.11 1.72,0.23 2.57,0.35 -37.43,0.27 -77.05,-2.76 -114.82,0.84 4.84,0.09 9.68,0.5 14.47,1.15 -15.21,1.88 -33.16,2.98 -48.16,7.05 -39.31,9.85 -79.29,20.39 -111.84,42.19 3.04,0.07 6.07,0.22 9.1,0.35 43.36,-26.56 93.57,-40.71 144.46,-38.3 -49.31,2.13 -99.46,15.98 -144.32,38.3 8.49,0.36 16.99,0.87 25.59,1.52 5.35,0.09 10.72,0.39 16.09,0.67 6.73,-7.9 15.9,-13.78 26.51,-14.81 0.53,-0.04 1.05,0.03 1.58,0.02 2.41,-0.42 4.88,-0.56 7.46,0.02 2.4,0.76 4.34,1.95 6.13,3.26 4.25,2.23 7.99,5.43 10.9,9.32 0.87,0.84 1.54,1.82 2.28,2.75 h -7.75 c -4.1,-5.04 -9.73,-8.89 -15.94,-10.07 -4.26,0.32 -8.85,3.26 -13.4,6.13 -1.73,1.19 -3.5,2.62 -5.27,4 h -1.54 c 6.29,0.46 12.6,0.95 18.92,1.62 z m 136.39,0.88 c 15.31,-1.17 30.63,-1.93 46,-1.35 12.1,-1.15 24.15,-1.88 36.15,-2.22 -0.34,-0.21 -0.68,-0.42 -1.02,-0.63 -8.54,-3.97 -17.07,-8.27 -25.58,-10.25 -3.29,-0.78 -6.99,-0.6 -10.37,0.64 2.57,0.8 4.82,2.35 6.73,4.12 -3.17,-1.74 -6.69,-2.95 -9.76,-2.36 -2.57,0.4 -4.79,2.14 -6.49,4.14 -0.48,0.57 -0.8,1.26 -1.23,1.87 1.29,0.01 2.57,-0.04 3.85,0 1.95,-2.84 5.01,-4.66 9.47,-4.17 0.84,-0.92 -0.63,1.54 -2.55,4.64 1.7,0.12 3.4,0.16 5.11,0.33 1.24,-1.03 2.52,-2 3.93,-2.85 -0.9,0.92 -1.63,1.96 -2.42,2.95 0.07,0.01 0.14,0.01 0.21,0.02 -0.19,0.02 -0.04,0 -0.23,0.02 -0.61,0.77 -1.3,1.47 -1.86,2.27 h -2.28 c 0.74,-0.73 1.53,-1.41 2.32,-2.09 -4.15,0.42 -2.47,0.21 -5.51,0.51 -0.36,0.59 -0.58,0.98 -0.97,1.6 h -6.84 c 0.12,-0.32 0.31,-0.59 0.45,-0.9 -1.48,0.14 -3.43,0.32 -4.45,0.41 -0.1,0.18 -0.24,0.33 -0.34,0.51 h -5.09 c -5.8,0.43 -4.87,0.12 -29.34,2.44 0.71,0.11 1.41,0.24 2.11,0.35 z m 92.17,0.84 c -0.11,-0.39 -0.22,-0.78 -0.33,-1.17 -10.2,0.05 -20.32,0.07 -30.06,0.15 0.77,0.08 1.55,0.2 2.32,0.3 9.35,-0.08 18.68,0.13 28.07,0.72 z m 15.8,1.44 c -0.25,-0.89 -0.5,-1.79 -0.74,-2.69 -2.87,0.01 -5.59,0.03 -8.46,0.04 0.19,0.6 0.38,1.21 0.57,1.82 2.87,0.24 5.75,0.5 8.63,0.84 z m -406.84,1.53 c -2.36,-1.82 -4.21,-4.27 -5.43,-7.09 0.11,0.57 0.1,1.29 0.28,1.78 0.84,2.32 2.31,3.92 5.15,5.31 z m 167.7,0.02 c -27.54,0.22 -48.91,-1.39 -82.83,-0.12 38.15,-6 74.83,-3.3 113.12,-0.88 -11.24,0.65 -21.11,0.93 -30.29,1 z m 239.8,0.82 c -0.1,-0.39 -0.22,-0.77 -0.33,-1.15 -2.79,-0.07 -5.7,-0.16 -8.34,-0.18 0.11,0.35 0.22,0.7 0.33,1.05 2.78,0.06 5.56,0.17 8.34,0.28 z m 14.48,0.66 c -0.6,-1.93 -1.17,-3.87 -1.76,-5.8 -2.36,0.01 -4.69,0.03 -7.07,0.04 0.36,1.23 0.73,2.46 1.09,3.69 1.21,0.17 2.41,0.28 3.62,0.47 -1.27,-0.05 -2.27,-0.04 -3.5,-0.08 0.12,0.42 0.25,0.83 0.37,1.25 2.41,0.12 4.83,0.29 7.25,0.43 z m 14.63,0.98 c -0.76,-2.28 -1.5,-4.57 -2.25,-6.86 -2.29,0.01 -4.71,0.03 -7.03,0.04 0.68,2.11 1.34,4.23 2.03,6.33 2.41,0.17 4.82,0.3 7.25,0.49 z m 26.69,0.12 h 4.24 c -0.47,-1.22 -0.9,-2.44 -1.36,-3.66 -1.4,-0.11 -2.78,-0.26 -4.16,-0.43 0.42,1.36 0.86,2.72 1.28,4.08 z m -9.37,0 h 2.15 c -0.5,-1.66 -1,-3.32 -1.51,-4.98 -0.79,-0.13 -1.59,-0.26 -2.38,-0.4 0.58,1.8 1.16,3.59 1.74,5.37 z m -9.98,0 h 2.71 c -0.69,-2.22 -1.38,-4.43 -2.07,-6.65 -0.73,-0.12 -1.46,-0.24 -2.2,-0.37 -0.26,0.01 -0.55,0 -0.8,0 0.79,2.34 1.56,4.68 2.36,7.02 z m -291.23,0 h 197.28 c 14.08,-1.68 28.04,-2.23 42.02,-2.15 -0.09,-0.33 -0.18,-0.67 -0.28,-1 -20.28,-0.01 -36.98,0.72 -56.72,0.57 -8.48,-0.07 -17.8,-0.37 -28,-0.92 -17.19,1.15 -34.46,2.23 -51.76,1.8 -5.69,-0.15 -11.37,-0.47 -17.05,-1 18.77,-0.11 37.36,-1.86 55.93,-3.34 -0.9,-0.06 -1.79,-0.16 -2.69,-0.22 -2.38,0.23 -2.19,0.19 -5.06,0.47 0.84,-0.26 1.68,-0.39 2.52,-0.64 -39.59,-2.17 -81.05,1.12 -121.23,-0.35 1.86,0.21 3.69,0.3 5.55,0.54 -26.38,-0.74 -65.4,-0.64 -99.5,-0.74 -0.65,2.17 -1.33,4.32 -1.99,6.49 27.13,-1.93 53.86,-2.74 80.98,0.48 z m -92.03,0 h 3.57 c 0.03,-0.01 0.07,0 0.1,0 0.75,-2.34 1.5,-4.67 2.25,-7 -1.31,0 -2.82,-0.01 -4.1,-0.02 -0.61,2.34 -1.21,4.68 -1.82,7.01 z m -10.55,0 h 3.36 c 0.55,-2.05 1.08,-4.11 1.64,-6.16 -1.09,0.19 -2.19,0.38 -3.28,0.57 -0.57,1.86 -1.15,3.72 -1.72,5.58 z m -8.77,0 h 1.49 c 0.46,-1.49 0.93,-2.97 1.4,-4.46 -0.53,0.07 -1.07,0.09 -1.6,0.16 -0.44,1.43 -0.85,2.86 -1.29,4.3 z m -22.64,0 h 15.36 c 0.36,-1.18 0.74,-2.35 1.11,-3.52 -1.02,0.07 -2,0.27 -3.03,0.31 -3.87,0.16 -7.8,0.08 -11.83,-0.37 3.28,-0.59 6.46,-1.14 9.68,-1.78 -2.43,0.07 -4.84,0.21 -7.32,0.2 -2.33,0 -4.88,-0.04 -7.58,-0.67 -1.62,-0.18 -3.59,-1.26 -5.08,-3.61 -0.96,-2.59 -0.7,-4.79 -0.13,-6.21 0.17,-0.64 0.46,-1.15 0.66,-1.76 -0.83,1.65 -1.73,3.3 -2.54,4.94 4.72,-16.79 12.3,-33.06 23.81,-45.86 2.66,-3.97 5.46,-7.95 8.44,-11.95 2.5,-5.38 5.22,-11.45 7.73,-16.74 -3.87,7.17 -8.03,14.2 -12.97,20.76 10.98,-20.9 18.38,-44.63 26.02,-65.78 3.48,-9.68 7.36,-19.62 11.79,-29.39 3.33,-16.93 7.42,-29.942 14.03,-45.289 6.28,-22.762 13.46,-53.492 20.43,-83.012 -0.14,0.313 -0.24,0.621 -0.37,0.93 1.39,-19.399 3.86,-36.949 9.92,-54.899 0.14,-2.32 0.39,-5.129 0.74,-8.34 1.75,-40.808 7.01,-79.039 13.71,-120.519 -0.01,28.738 -2.19,56.039 -5.45,83.488 0.69,-1.789 1.36,-3.578 2.33,-5.367 2.61,10.977 1.47,20.09 -2.5,30.609 -0.38,-1.019 -0.5,-1.992 -0.78,-2.992 -1,37.641 -3.5,75.242 -16.1,111.77 5.95,-33.039 7.92,-48.957 8.48,-58.797 -3.16,19.258 -6.93,38.367 -11.86,57.238 -3.3,26.371 -7.47,52.641 -15.49,78.051 0.68,0.078 1.36,0.148 2.04,0.23 4.67,-14.671 9.33,-29.351 13.73,-44.101 7.82,-26.27 15.03,-52.77 21.36,-79.449 0,0 9.08,-37.672 15.43,-75.879 6.35,-38.172 9.86,-76.821 9.94,-76.821 0.72,0.051 -1.74,37.02 -7.05,73.7 -5.3,36.679 -13.34,72.898 -13.34,72.898 -1.76,8.02 -3.78,15.973 -5.7,23.949 5.82,-23.476 11.38,-47.008 16.29,-70.648 0,0 9.25,-43.879 15.86,-88.219 6.6,-44.293 10.49,-89.152 10.59,-89.141 0.69,0.051 -2.15,42.942 -7.7,85.43 -5.55,42.512 -13.73,84.61 -13.73,84.61 -11.99,62.152 -27.55,123.722 -44.73,184.921 0.64,0.059 1.26,0.161 1.9,0.219 6.41,-21.469 12.72,-42.961 18.77,-64.512 7.58,-27.058 14.82,-54.25 21.23,-81.617 0,0 9.64,-40.199 16.21,-80.902 6.56,-40.66 9.66,-81.879 9.61,-81.879 0.83,0.039 -1.24,39.461 -6.72,78.52 -5.48,39.082 -14.04,77.671 -14.04,77.671 -6.54,29.989 -14.07,59.789 -22.05,89.379 -5.75,21.289 -11.77,42.52 -17.86,63.711 2.37,0.199 4.75,0.36 7.13,0.528 4.06,-14.598 8.12,-29.188 12.09,-43.809 0,0 29.7,-110.059 30.3,-109.91 0.98,0.262 -25.61,105.769 -25.61,105.769 -4.11,16.102 -8.29,32.2 -12.5,48.282 78.88,4.98 161.3,-5.27 238.44,-5.551 -0.78,-3.168 -1.66,-7 -2.52,-10.551 -78.18,2.352 -151.7,8.68 -231.27,7.43 79.01,-3.258 152.18,-9.75 231.21,-7.68 -5.36,-22.148 -11.6,-48.488 -10.65,-48.707 0.11,-0.023 7.7,28.027 13.31,48.75 0.64,0.02 1.27,0.02 1.91,0.039 -0.64,0.02 -1.26,0.059 -1.89,0.078 1.22,4.52 1.92,6.992 2.91,10.641 2.97,0 5.99,-0.09 8.94,-0.059 -3.22,-12.851 -6.46,-25.699 -9.55,-38.59 0,0 -25.79,-110.211 -23.98,-110.609 -0.08,0.027 26.13,104.77 26.13,104.77 3.77,14.828 7.7,29.609 11.64,44.398 2.19,0.039 4.36,0.109 6.54,0.172 -14.12,-53.953 -26.49,-108.332 -36.37,-163.102 0,0 -7.84,-43.39 -13.39,-87.109 -5.56,-43.723 -8.86,-87.711 -8.25,-87.762 0.23,-0.019 4.22,41.871 10.06,83.461 5.84,41.602 13.58,82.891 13.58,82.891 10.72,57.75 24.22,115.031 39.7,171.801 1.68,0.058 3.37,0.097 5.04,0.168 -12.41,-45.938 -23.71,-92.129 -33,-138.668 0,0 -8.09,-40.231 -13.87,-80.821 -5.79,-40.582 -9.23,-81.5 -8.58,-81.562 0.2,-0.02 4.33,38.941 10.37,77.519 6.06,38.594 14.01,76.852 14.01,76.852 10.16,49.34 22.61,98.262 36.33,146.898 1.36,0.071 2.7,0.192 4.06,0.274 -7.8,-27.782 -15.29,-55.633 -21.86,-83.672 0,0 -7.84,-33.168 -13.8,-66.699 -5.97,-33.532 -9.95,-67.422 -9.32,-67.5 0.22,-0.032 4.84,32.211 11.07,64.019 6.24,31.84 14.01,63.34 14.01,63.34 7.4,30.449 15.93,60.68 24.82,90.82 1.52,0.11 3.04,0.2 4.55,0.321 -3.63,-14.102 -7.26,-28.192 -10.74,-42.332 0,0 -5.6,-23.321 -10.74,-44.86 -2.1,-7.32 -3.8,-14.668 -5.24,-22.051 -5.58,-23.628 -10.6,-45.289 -10.25,-45.367 0.25,-0.062 3.2,10.66 6.84,24.25 -2.38,-18.84 -3.27,-37.84 -3.77,-56.832 -0.29,1 -0.41,1.973 -0.79,2.981 -3.97,-10.508 -5.11,-19.621 -2.5,-30.598 0.97,1.777 1.64,3.578 2.33,5.367 -3.26,-27.449 -5.44,-54.75 -5.45,-83.488 6.71,41.48 11.96,79.711 13.71,120.519 0.35,3.211 0.6,6.02 0.74,8.34 6.06,17.942 8.53,35.5 9.92,54.899 -0.13,-0.309 -0.23,-0.617 -0.37,-0.93 6.97,29.52 14.15,60.25 20.43,83 6.61,15.359 10.71,28.371 14.03,45.301 4.44,9.77 8.31,19.71 11.79,29.39 7.64,21.15 15.04,44.88 26.02,65.78 -4.94,-6.56 -9.1,-13.59 -12.97,-20.76 2.51,5.29 5.23,11.36 7.73,16.74 2.98,4 5.78,7.98 8.44,11.95 11.51,12.8 19.09,29.07 23.81,45.86 -0.81,-1.64 -1.71,-3.29 -2.54,-4.94 0.2,0.61 0.5,1.12 0.67,1.76 0.56,1.42 0.82,3.62 -0.14,6.21 -1.49,2.35 -3.45,3.43 -5.08,3.61 -2.69,0.63 -5.25,0.67 -7.58,0.67 -2.43,0.02 -4.81,-0.13 -7.2,-0.2 l 0.02,0.02 c 3.17,0.63 6.31,1.18 9.55,1.76 -2.99,0.33 -5.87,0.29 -8.75,0.27 0.43,1.1 0.87,2.21 1.3,3.3 h 9.05 c 0.52,-0.16 1.2,-0.36 1.68,-0.52 4.35,-1.4 9.51,-4.62 13.53,-9.49 -0.29,3.38 -1.58,6.61 -3.63,9.29 1.61,-0.28 2.79,-0.71 4,-1.13 4.49,-5.58 5.19,-13.06 4.12,-18.95 -0.65,-3.62 -1.69,-7.32 -2.85,-11.15 1.07,4.75 2.14,9.51 2.91,14.36 -5.07,-14.5 -10.65,-30.81 -16.72,-46.29 -17.6,-29.32 -29.61,-59.42 -37.5,-92.38 13.23,26.6 22.98,50.06 32.52,76.32 1.28,2.03 2.43,4.11 3.58,6.19 -14.27,-36.02 -27.01,-71.89 -38.11,-108.061 -9.17,-22.508 -18.62,-42.277 -22.99,-66.949 3.18,6.07 6.23,12.102 9.11,18.16 -7.34,-27.66 -13.78,-55.629 -19.32,-84.101 0.63,8.32 1.24,16.613 2.09,25.273 -7.8,-29.141 -10.81,-58 -12.56,-87.031 -0.52,-3.602 -1.01,-7.219 -1.5,-10.84 0.44,6.277 0.65,12.68 0.31,19.75 -6.85,-17.34 -9.46,-34.902 -5.63,-53.152 0.95,4.14 1.77,8.043 2.5,11.902 -1.84,-15.25 -3.44,-30.731 -4.82,-46.391 0.4,4.84 0.57,7.559 1.07,13.282 -10.82,-33.75 -13.15,-67.872 -9.37,-102.543 3.44,28.863 4.92,47.023 6.48,67.011 -1.44,-19.73 -2.6,-39.75 -3.34,-60.25 -0.38,-10.879 0.83,-21.332 3.13,-31.519 -1.95,5.34 -3.74,10.711 -5.18,16.031 0.29,-12.184 3.43,-24.203 9.5,-34.512 7.7,-24.539 23.17,-46.23 36.93,-67.461 -0.48,1.332 -1.13,2.77 -1.66,4.141 4.41,-6.77 8.85,-13.531 13.42,-20.43 3.93,-8.55 3.84,-18.191 0.54,-25.019 -2.51,-5.512 -7.13,-10.77 -13,-14.75 -1.81,-0.281 -3.57,-0.61 -5.61,-0.61 h -4.36 c 4.85,1.528 9.38,4.039 13.23,8.129 -14.44,-5.98 -35.34,-3.09 -52.41,-4.351 3.93,-1.469 8.15,-2.77 12.47,-3.778 h -31.66 c -19.95,1.93 -39.62,4.09 -59.18,3.641 -10.75,-0.254 -21.46,-1.34 -32.17,-3.641 h -22.68 -21.68 c -10.71,2.301 -21.42,3.387 -32.17,3.641 -19.56,0.449 -39.23,-1.711 -59.18,-3.641 h -31.66 c 4.32,1.008 8.54,2.309 12.47,3.778 -17.07,1.261 -37.97,-1.629 -52.41,4.351 3.85,-4.09 8.38,-6.601 13.23,-8.129 h -5.36 c -1.62,0 -2.98,0.309 -4.45,0.489 -5.95,3.992 -10.62,9.312 -13.16,14.871 -3.45,7.16 -3.52,17.437 1.03,26.289 -0.68,-0.578 -1.27,-1.25 -1.87,-1.899 5.57,8.418 11.03,16.688 16.35,24.918 -1.14,-2.711 -2.29,-5.429 -3.21,-8 18.06,27.879 39.56,56.379 41.9,91.301 -0.29,-0.941 -0.73,-1.988 -1.06,-2.961 1.94,9.43 2.9,19.09 2.54,29.121 -1.85,51.782 -6.07,100.86 -12.5,148.239 -1.59,33.441 -4.39,66.531 -13.36,100.023 1.17,-11.902 2.05,-23.41 2.87,-34.73 -6.3,33.769 -13.86,66.828 -22.67,99.457 3.59,-8.059 7.48,-16.039 11.68,-24.071 -4.7,26.532 -15.21,47.153 -25,71.864 0.07,-0.942 0.24,-1.84 0.33,-2.774 -14.32,46.402 -31.24,92.322 -50.78,138.752 0.95,-1.16 1.89,-2.33 2.93,-3.44 -2.46,8.42 -5.31,16.17 -6.64,23.57 -1.09,6.01 -0.36,13.69 4.39,19.3 1.2,0.34 2.35,0.69 3.87,0.92 -2.12,-2.72 -3.47,-5.99 -3.77,-9.44 4.02,4.88 9.18,8.1 13.53,9.49 0.48,0.17 1.17,0.37 1.68,0.53 z m 423.07,25.13 c 0.01,-0.03 0.03,-0.07 0.04,-0.1 0.05,-0.2 0.14,-0.42 0.18,-0.62 0.06,-0.19 0.05,-0.37 0.1,-0.55 0.26,-1.27 0.34,-2.69 0.29,-4.18 -0.12,-0.84 -0.17,-1.7 -0.57,-2.46 -0.37,-0.87 -0.95,-1.62 -1.52,-2.36 1.31,3.23 1.82,6.74 1.48,10.27 z m -26.31,2.33 c 1.98,-6.66 3.58,-8.84 10.28,-11.33 0.58,6.44 -3.6,11.32 -10.28,11.33 z m -262.95,5.41 c -10.7,-6.16 -17.52,-12.64 -24.7,-22.8 11.75,3.58 20.19,11.37 24.7,22.8 z m 117.82,11.13 c -4.39,-6.16 -3.04,-11.98 1.6,-17.19 3.28,6.54 2,11.42 -1.6,17.19 z m -102.6,5.6 c -6.87,-2.02 -13.97,-5.68 -14.87,-14.47 6.71,3.36 12.63,5.7 14.87,14.47 z m 17.85,0.73 c -11.67,-9.84 -9.29,-10.15 -19.34,-20.84 11.36,0.65 18.32,10.4 19.34,20.84 z m -26.97,1.19 c -16.97,-9.97 -28.55,-21.38 -42.21,-35.35 18.05,7.3 31.12,19.77 42.21,35.35 z m 327.98,0.9 c -0.45,-0.31 -0.86,-0.67 -1.32,-0.96 -2.72,-1.71 -5.73,-3.15 -8.89,-4.28 2.86,1.3 5.63,2.84 8.2,4.67 0.67,0.2 1.36,0.34 2.01,0.57 z m -339.39,1.76 c -15.23,-7.18 -25.39,-17.46 -36.5,-29.65 15.87,5.81 26.71,16.51 36.5,29.65 z m -110.14,2.42 c 1.04,-0.85 2.15,-1.58 3.25,-2.35 0.16,-0.37 0.29,-0.77 0.48,-1.13 -1.23,1.17 -2.51,2.29 -3.73,3.48 z m 167.54,5.54 c -15.57,-12.54 -21.45,-30.38 -30.04,-47.14 15.57,12.87 21.36,30.42 30.04,47.14 z m 139.92,5.06 c 3.21,-15.83 7.01,-29 16.68,-42.5 -1.83,15.62 -6.24,29.94 -16.68,42.5 z m -191.25,1.43 c -9.46,-6.6 -21.2,-11.91 -31.38,-19.1 -7.93,-1.37 -15.56,-2.69 -22.27,-8.01 -2.85,-2.13 -5.28,-5.62 -5.45,-9.81 0.23,-5.14 3.49,-8.48 6.99,-10.83 -1.95,3.77 -3.38,7.71 -2.4,10.4 0.46,2.1 2.53,3.85 4.55,5.55 2.43,1.9 9.24,6.08 14.55,9.67 -5.65,-4.54 -10.63,-9.83 -14.04,-16.68 14.76,13.75 36.86,20.1 49.45,38.81 z m 42.58,2.26 c -6.95,-1.96 -10.28,-6.72 -11.03,-13.69 7.14,2.24 10.18,6.46 11.03,13.69 z m -104.55,3.46 c -11.21,-4.06 -24.14,-6.15 -32.71,-17.13 11.57,3.67 24.7,5.55 32.71,17.13 z m -71.89,0.78 c 1.27,-1.08 2.64,-2.06 3.98,-3.08 1.19,-1.85 2.47,-3.62 3.83,-5.34 -2.64,2.79 -5.27,5.56 -7.81,8.42 z m 148.71,0.36 c -6.19,0.05 -8.09,-2.15 -10.61,-7.21 6.1,-2.24 10.03,1.46 10.61,7.21 z m 12.15,1.5 c -12.29,-6.93 -22.64,-13.05 -31.92,-24.71 13.26,4.76 24.96,11.66 31.92,24.71 z m 164.76,1.01 c 10.46,-13.83 14.96,-34.02 31.74,-44.64 -9.39,14.23 -14.49,34.95 -31.74,44.64 z m 6.43,1.1 c 9.01,-7.72 18.72,-19.44 26.83,-27.31 1.46,-1.42 3.05,-2.81 4.61,-4.22 -3.21,1.89 -6.64,3.5 -10.47,4.63 11.72,-10.97 21.2,-24.48 38.19,-29.57 -5.26,5.09 -10.28,10.72 -15.8,15.84 4.89,-3.11 10.11,-5.73 15.78,-7.22 -10.57,6.69 -19.46,16.48 -28.13,24.84 -8.74,8.54 -18.86,17.73 -31.01,23.01 z m -141.92,0.92 c -6.94,-2.18 -7.69,-7.66 -7.98,-13.31 7.38,1.8 8.12,7.46 7.98,13.31 z m 224.61,0.41 c 6.99,-11.75 19.83,-15.96 32.66,-15.94 -12,8.56 -19.78,10.12 -32.66,15.94 z m 18.28,1.5 c 5.25,-12.06 18.35,-21.19 31.82,-16.68 -8.61,2.63 -23.41,11.47 -31.82,16.68 z m -196.4,1.37 c -6.45,-17.96 -7.63,-35.31 -5.92,-54.34 6.21,18.38 7.44,35.17 5.92,54.34 z m -201.99,0.29 c -6.86,0.32 -11.42,-4.52 -15.92,-8.46 8.76,-2.74 14.04,3.1 19,7.99 -1.08,0.28 -2.1,0.42 -3.08,0.47 z m 275.95,4.06 c -1.7,-7.54 4.7,-9.74 9.67,-10.74 -0.14,7.22 -5.06,8.56 -9.67,10.74 z m -95.23,0.98 c -8.35,-21.42 -15.49,-39.37 -20.98,-61.86 9.59,19.91 17.24,39.66 20.98,61.86 z m 84.47,0.12 c 4.56,-9.88 14.83,-34.03 18.32,-44.18 2.46,16.96 -4.91,33.49 -18.32,44.18 z m -117.67,0.02 c -12.17,-10.07 -24.35,-19.01 -31.94,-34.22 12.94,9.37 25.51,18.42 31.94,34.22 z m 234.6,3.44 c -0.48,0.08 -1,0.05 -1.6,-0.08 -0.79,-0.18 -1.68,-0.53 -2.71,-1.04 0.66,-5.14 3.69,-6.05 7.58,-3.03 -0.83,2.6 -1.82,3.89 -3.27,4.14 z m -356.25,2.32 c -8.25,1.09 -13.05,-2.87 -18.22,-7.99 8.27,-2.29 13.81,2.05 18.22,7.99 z m 382.35,0.37 c 14.19,-9.7 29.68,-12.26 46.37,-12.17 -15.31,7.88 -29.61,10.01 -46.37,12.17 z m -207.83,1.35 c -6.51,-5.24 -8.58,-11.27 -8.62,-19.36 7.21,4.62 9.61,11.17 8.62,19.36 z m -303.13,1.03 c 4.1,-17.86 12.76,-34.5 25.84,-47.03 9.07,-13.13 20.49,-24.04 32.23,-35.23 -6.7,10.01 -13.63,18.07 -20.76,26.05 0.1,-0.07 0.2,-0.14 0.31,-0.21 -0.52,0.5 -1.01,1.06 -1.53,1.58 -3.46,3.87 -7,7.87 -10.58,11.97 -10.25,12.96 -18.81,27.91 -25.51,42.87 z m 319.03,1.57 c -6.18,-14.79 5.1,-28.57 10.74,-40.3 1.47,15.56 -8.92,27.41 -10.74,40.3 z m -129.95,0.99 c -17.51,-5.72 -34.46,-9.57 -50.19,-21.29 18.08,4.13 35.76,8.08 50.19,21.29 z m -31.17,0 c -23.94,-4.53 -40.35,-21.47 -60.47,-32.32 24.11,3.93 40.88,20.96 60.47,32.32 z m -68.18,2.58 c -10.56,-0.02 -20.51,-3.04 -30.67,-7.13 15.16,-2.35 27.61,1.01 41.47,6.09 -3.69,0.73 -7.28,1.05 -10.8,1.04 z m 496.37,0.25 c -14.83,-29.17 -39.66,-54.44 -70.41,-66.64 33.18,8.27 59.24,34.42 70.41,66.64 z m -325.18,1.7 c -12.65,-7.05 -21.08,-13.64 -31.15,-24.31 13.73,3.49 24.52,11.7 31.15,24.31 z m 210.49,0.41 c 19.61,-13.23 39.99,-29.65 65.37,-28.12 -9.99,2.72 -53.53,24.78 -65.37,28.12 z m -297.21,1.18 c -3.96,0.1 -7.11,-1.8 -9.82,-5.73 6.22,-2.25 10.64,-0.75 14.08,4.94 -1.52,0.49 -2.94,0.75 -4.26,0.79 z m 196.97,0.52 c 2.71,-12.37 13.79,-17.58 23.64,-22.03 -5.49,11.27 -15.07,15.22 -23.64,22.03 z m 86.61,5.92 c -1.46,-0.06 -3.01,-0.51 -4.67,-1.5 4.23,-3.57 8.1,-8.14 15.23,-4.58 -2.7,2.88 -6.19,6.25 -10.56,6.08 z m -303.33,1.11 c -11.89,-6.29 -26.04,-9.18 -38.53,-13.04 -12.95,-3.95 -27.2,-8.56 -39.41,-16.61 4.7,1.51 37.03,9.58 41.17,10.86 12.56,3.84 26.58,8.97 36.77,18.79 z m 369.44,2.68 c 12.2,-10.08 27.02,-11.1 41.81,-10.63 -13.98,7.63 -26.91,8.09 -41.81,10.63 z m -59.36,0.02 c 30.58,-10.49 59.46,-17.88 92.03,-19.03 -30.93,9.05 -59.27,16.18 -92.03,19.03 z m -32.59,0.68 c 2.45,-9.17 10.44,-16 18.51,-19.84 8.95,-4.39 16.01,-5.38 25.55,-9.01 -6.55,6.67 -15.4,10.78 -22.91,14.4 -7.26,3.61 -15.56,7.62 -21.15,14.45 z m -374.11,0.71 c -2,-0.3 -3.72,-1.76 -5.6,-3.68 4.43,-4.65 8.33,-2.21 11.01,1.92 -1.22,0.87 -2.3,1.39 -3.3,1.64 -0.75,0.19 -1.44,0.21 -2.11,0.12 z m 155.98,0.5 c -7.89,0.52 -15.51,-0.91 -20.55,-8.38 8.19,0.2 14.89,1.07 20.55,8.38 z m -88.95,0 c -20.98,0.88 -39.83,-2.72 -59.72,-9.88 21.32,-0.65 39.72,2.75 59.72,9.88 z m 187.97,0.79 c -7.68,-2.13 -11.46,-8.54 -11.32,-16.18 7.19,4.26 9.49,8.33 11.32,16.18 z m -36.21,0.99 c 0.12,-0.04 0.11,-0.2 -0.06,-0.55 -0.18,0.22 -0.32,0.27 -0.49,0.41 0.23,0.09 0.46,0.17 0.55,0.14 z m -245.95,0 c 4.02,-16.82 12.66,-32.06 22.77,-45.16 10.15,-13.19 22.86,-25.62 38.5,-33.32 -14.19,9.56 -25.71,22.51 -35.73,35.45 -9.84,12.77 -19.41,27.09 -25.54,43.03 z m 110.35,1.06 c -3.69,0.43 -6.54,-1.58 -9.32,-4.73 5.78,-3.54 9.85,-1.3 13.3,3.42 -1.44,0.73 -2.76,1.16 -3.98,1.31 z m 44.16,0.99 c -8.81,-0.32 -17.61,-1.48 -26.84,-4.2 18.36,-2.5 35.71,-3.47 53.61,3.42 -9.17,0.59 -17.97,1.11 -26.77,0.78 z m 92.17,2.09 c -4.34,-0.87 -4.06,-3.55 -4.26,-5.58 0.62,0.22 1.06,0.45 1.58,0.7 v -0.02 c -0.56,-3.07 -0.3,-6.05 0.59,-10.35 3.33,2.51 5.23,5.99 5.31,9.82 1.1,0.71 0.22,3.5 -3.22,5.43 z m 187.14,0.35 c -3.26,0.07 -6.55,0.03 -9.88,-0.11 -4.44,-0.2 -8.98,-0.6 -13.67,-1.19 17.86,-5.51 34.92,-6.51 53.22,-2.29 -10.26,2.17 -19.88,3.38 -29.67,3.59 z m -149.21,0.04 c 0.84,0.01 1.51,-0.25 1.71,-0.84 5.49,-5.38 5.81,-15.25 9.54,-24.53 1.17,-3.04 2.65,-5.56 4.19,-7.99 3.61,-19.31 7.45,-37.63 13.05,-56.13 -0.74,-9.21 1.31,-17.99 4.73,-26.42 h -1.31 c -0.87,3.38 -1.77,6.74 -2.7,9.86 -3.89,13.86 -10.82,28.64 -10.95,43.38 -3.81,-15.07 1.18,-31.42 5.19,-45.04 0.74,-2.67 1.66,-5.45 2.56,-8.2 h -4.88 c -1.8,14.38 -4.76,28.63 -10.94,42.55 2,-14.72 3.22,-28.66 5.25,-42.55 h -5.6 c -0.84,2.71 -1.7,5.42 -2.87,8.1 -0.24,-2.84 -0.3,-5.47 -0.35,-8.1 h -7.99 c 0.56,23.32 -2.6,43.21 -1.35,68.82 -7.26,-22.9 -5.65,-45.84 -2.67,-68.82 h -4.4 c -0.28,4.05 -0.72,8.14 -1.52,12.38 -1.2,-4.19 -2.05,-8.3 -2.74,-12.38 h -1.7 -9.22 c 2.56,9.85 3.07,20.23 2.04,30.68 -4.04,-11.83 -6.05,-21.17 -7.89,-30.68 h -2.82 c 0.9,2.62 1.75,6.16 2.44,12.93 -3.2,-3.72 -6.41,-8.18 -8.9,-12.93 h -3.6 c 1.25,2.97 2.54,5.94 3.81,8.86 3.27,7.48 6.61,14.96 9.61,22.74 1.91,4.86 4.31,10.28 4.92,16.01 0.38,3.72 0.03,7.23 -0.13,10.9 -0.79,-3.59 -1.29,-7.12 -2.33,-10.39 -1.54,-4.94 -4.61,-9.51 -7.11,-14.43 -3.79,-7.36 -7.36,-14.81 -10.35,-22.62 -1.36,-3.53 -2.51,-7.28 -3.55,-11.07 h -3.36 c 0.87,3.3 1.93,6.59 3.4,9.72 -1.16,-1.02 -2.09,-2.23 -3.09,-3.4 3.99,7.01 8.45,13.79 11.37,22 4.69,13.33 11.28,34.04 16.01,47.38 3.09,8.68 6.29,17.53 10.37,25.94 1.34,2.75 2.8,5.44 4.54,7.97 2.14,2.22 4.36,4.19 6.83,5.58 0.91,0.46 1.91,0.72 2.76,0.73 z m -236.06,2.09 c -9.91,-0.36 -19.83,-1.75 -30.04,-4.59 20.86,-2.24 39.51,-2.52 60.1,3.05 -10.23,1.26 -20.15,1.91 -30.06,1.54 z m 49.14,0.47 c -5.46,-0.33 -10.77,-1.82 -16.41,-3.9 10.48,-4.25 19.99,-2.45 29.65,2.26 -2.66,0.82 -5.21,1.34 -7.71,1.56 -1.87,0.18 -3.71,0.19 -5.53,0.08 z m 34.67,1.84 c -4.08,0.03 -8.21,-0.59 -13.05,-2.33 8.3,-4.42 17.77,-5.62 25.82,0.77 -4.66,0.86 -8.69,1.53 -12.77,1.56 z m 367.09,0.6 c -7.03,-1.06 -14.09,-1.9 -20.96,-0.78 7,0.33 13.99,0.65 20.96,0.78 z m -249.01,0.39 c 2.49,0.17 4.5,-2.63 4.89,-5.17 1.42,-6.36 -3.97,-13.36 -7.6,-21.21 -3.59,-7.17 -8.75,-15.56 -9.61,-24.3 0.96,2.42 2.28,4.71 3.71,6.95 -10.39,-20.31 -17.64,-41.13 -25.8,-62.22 2.51,6.69 4.75,13.61 5.04,20.74 -2.44,-10.25 -8.32,-19.46 -13.01,-28.73 -1.1,-2.23 -1.93,-4.79 -2.69,-7.36 h -5.57 c 0.75,2.36 1.47,4.73 1.89,7.2 -1.63,-2.51 -3.33,-4.85 -5.03,-7.2 h -10.51 c 3.33,4.92 6.02,10.35 8.34,15.99 -6.73,-4.56 -11.25,-10.06 -15.26,-15.99 h -14.12 c 11.5,9.16 20.09,20.86 26.33,34.62 -12.66,-11.27 -21.43,-21.96 -31.03,-34.62 h -28.77 c -5.12,3.29 -10.07,7 -14.11,11.81 1.8,-3.13 4.01,-6.02 6.45,-8.69 -2.84,1.83 -5.6,3.79 -8.24,6 -2.58,2.34 -5.12,4.87 -6.58,7.56 -0.27,2.25 -0.01,4.68 0.46,6.79 0.75,2.77 1.77,5.46 3.11,7.78 2.27,2.44 5,4.77 7.79,6.95 -0.37,-0.15 -0.75,-0.37 -1.13,-0.53 7.22,4.73 16.23,7.48 24.55,12.11 8.57,4.75 16.69,10.3 24.45,16.49 22.81,13.48 43.01,26.15 63.56,41.77 3.81,2.92 6.19,6.5 9.14,9.57 0.63,0.66 1.32,1.27 2.07,1.84 2.47,1.14 4.96,1.99 7.29,1.85 z m 72.78,0.22 c 1.83,0.06 3.73,-0.43 5.64,-1.13 7.44,-5.55 12.9,-13.83 18.66,-20.73 5.72,-7.15 12.83,-15.27 21.77,-19.78 9.54,-10.04 22.46,-17.21 35.61,-22.89 3.4,-3.65 7.58,-6.69 11.54,-9.3 7.09,-4.74 14.71,-8.82 21.6,-13.03 6.14,-3.83 12.39,-7.67 16.25,-13.28 2.3,-3.11 3.24,-7.33 3.11,-11.76 -1.03,5.55 -5.38,10.89 -9.53,13.99 -6.26,5.17 -13.2,7.9 -20.82,10.96 5.15,-6.2 11.68,-11.19 17.01,-15.59 4.57,-4.2 10.95,-8.41 12.32,-14.69 -1.84,-1.65 -4.09,-3.01 -6.4,-4.29 h -15.36 c -14.78,14.73 -17.36,11.11 -32.81,25.39 4.5,-14.38 17.81,-21.39 31.12,-25.39 h -19.71 c -4.29,6.73 -10.44,11.24 -16.25,16.75 0.78,-7.34 4.63,-12.53 9.49,-16.75 h -7.5 c -5.84,8.57 -11.88,17.81 -15.41,24.78 -0.26,-9.27 2.95,-17.81 8.32,-24.78 h -3.01 c -1.41,1.54 -3.1,2.8 -4.78,5.39 -1.61,-1.98 -1.97,-3.77 -1.68,-5.39 h -4.04 c -6.31,12.19 -11.92,26.23 -16.33,38.22 -0.6,-13.63 2.79,-27.35 10.5,-38.22 h -3.2 c -4.28,7.36 -8.21,15.36 -9.98,22.07 -2.35,-7.73 -0.77,-15.57 3.17,-22.07 h -3.89 c -1.9,5.93 -3.41,12.02 -4.83,17.89 -3.23,14.25 -6.43,31.2 -15.99,44.06 5.78,-13.96 6.79,-31.11 10.15,-45.41 1.2,-5.41 2.96,-11.08 5.24,-16.54 h -9.84 c -2.34,9.22 -4.15,18.72 -6.06,28.41 -0.82,4.19 -1.66,8.62 -2.6,13.05 -1.6,19.05 -7.33,36.63 -13.01,55.39 -0.02,-1.01 0.03,-1.98 0.03,-2.99 -0.58,2.69 -1.27,5.47 -1.76,8.09 -0.67,3.61 -1.27,7.18 -1.39,10.7 0,2.56 -0.09,4.96 0.9,6.72 0.43,1.2 2.06,2.09 3.75,2.15 z m -119.51,2.03 c -2.19,-0.4 -3.98,-2.16 -5.34,-3.67 4.76,-1.84 6.87,-1.38 6.29,-2.01 0.11,0.13 0.68,2.07 -1.99,-3.99 3.15,-0.22 8.49,0.16 6.88,7.4 -1.25,1.19 -2.43,1.87 -3.52,2.17 -0.82,0.23 -1.59,0.23 -2.32,0.1 z m 405.66,1.21 c -13.14,-21.72 -16.98,-39.89 -28.51,-61.87 14.79,18.15 20.63,40.13 28.51,61.87 z m -55.41,0.08 c 2.66,-8.16 2.02,-19.2 0.55,-28.05 5.94,8.24 6.88,20.3 -0.55,28.05 z m -186.17,0.31 c 4.19,-12.86 16.42,-18.22 28.1,-21.27 -8.7,10.86 -17.77,13.8 -28.1,21.27 z m 218.46,3.38 c -7.19,-16.38 -15.15,-35.71 -25.3,-50.06 14.67,12.7 21.9,31.07 25.3,50.06 z m -356.92,0.02 c -3.36,-2.02 -6.44,-4.04 -9.33,-6.07 -0.03,0.07 0,0.15 -0.04,0.21 0.03,-0.08 -0.03,-0.15 0,-0.23 -5.62,-3.96 -10.62,-8.3 -15.55,-13.54 -1.73,-0.94 -3.48,-1.84 -5.16,-3.06 -5.19,-3.79 -10.65,-7.56 -15.99,-11.35 3.4,2.88 6.68,6.05 9.74,9.75 -16.83,-8.56 -34.49,-16.33 -46.42,-32.72 7.82,4.71 15.66,8.77 23.14,13.36 -17.91,-12.29 -36.62,-24.12 -55.92,-34.76 -8.23,-4.21 -15.32,-8.42 -23.4,-11.96 -4.43,-1.91 -9,-3.67 -13.63,-3.9 -2.48,-0.18 -5.17,0.31 -7.77,1.32 -1.16,0.9 -2.32,1.85 -3.5,2.82 -0.08,0.07 -0.15,0.14 -0.23,0.21 1.34,-0.66 2.75,-1.22 4.2,-1.52 3.52,-0.73 7.03,-0.62 10.51,-0.2 1.58,-0.25 3.13,-0.61 4.76,-0.7 -0.68,0.3 -1.37,0.69 -2.05,1.02 4.03,0.76 7.93,2.03 11.54,3.47 15.28,5.93 27.88,15.48 40.98,25.92 -15.63,-6.96 -28.43,-14.46 -43.16,-20.33 -5.58,-2.16 -11.25,-4.36 -16.9,-5.02 -14.72,8.72 -28.74,21.76 -40.14,34.43 0.31,-0.74 0.71,-1.45 1.04,-2.19 -3.22,4.71 -6.45,9.49 -11.23,16.04 -3.72,5.12 -7.74,10.36 -10.94,15.84 -1.74,3.56 -4.6,7.29 -2.83,10.82 -3.01,-2.84 -1.78,-8.56 -0.37,-12.25 0.46,-1.46 1.01,-2.89 1.6,-4.29 -1.31,2.57 -2.4,5.2 -3.16,7.97 -0.77,3.06 -1.21,6.46 0.47,8.9 0.38,0.64 0.91,1.16 1.5,1.64 0.15,0.11 0.28,0.25 0.43,0.36 0.49,0.35 1.06,0.64 1.64,0.91 0.87,0.39 1.74,0.75 2.68,0.78 6.84,0.77 29.82,2.15 36.73,2.89 7.15,0.77 14.2,1.7 21.49,2.72 2.33,0.32 4.7,0.71 7.09,1.03 42.32,-1.75 81.88,-3.15 123.73,-1.83 5.76,0.18 12.21,-0.57 18.51,0.72 2.23,0.52 3.82,1.71 5.24,2.52 0.25,0.09 0.46,0.17 0.7,0.27 z m 1.19,0.39 c 0.24,0.06 0.37,-0.03 0.53,-0.08 -0.24,-0.09 -0.52,-0.17 -0.74,-0.27 0.07,0.12 0.15,0.23 0.21,0.35 z m 385.84,0.12 c -13.24,-28.34 -25.11,-60.44 -43.04,-85.55 22.53,23.58 33.49,54.4 43.04,85.55 z m -386.27,2.58 c -1.03,0 -1.99,-0.31 -2.73,-0.76 -1.83,-0.77 -3.26,-1.76 -4.51,-1.82 -5.65,-0.73 -11.68,0.49 -17.97,0.65 -40.67,1.14 -81.66,1.3 -123.81,-1.21 -2.42,0.21 -4.83,0.3 -7.15,0.41 -7.33,0.33 -14.59,0.28 -21.78,-0.08 -12.13,-0.59 -24.76,-1.52 -37.03,-4.95 -6.74,-2.11 -9.69,-8.67 -10.43,-14.76 0.34,0.87 0.81,1.68 1.23,2.52 -0.15,-1.57 -0.1,-3.16 0.18,-4.65 1.9,-11.76 9.01,-21.99 15.74,-30.9 8.26,-11.08 17.75,-21.18 28.21,-30.27 4.18,-3.64 8.58,-7.17 13.28,-10.32 2.84,-1.94 6,-4.06 9.63,-5.03 0.83,-0.17 1.6,-0.2 2.34,-0.14 0.43,-0.1 0.83,-0.27 1.27,-0.33 5.66,-0.8 11.33,0.56 16.23,2.69 5.89,2.54 10.92,6.07 15.62,10.14 34.34,14.74 65.25,36.06 92.88,60.47 0.82,0.73 1.78,1.32 2.67,1.97 7.46,3.19 14.05,7.62 19.38,13.58 -0.02,-0.15 -0.08,-0.23 -0.1,-0.38 5.23,0.85 8.95,3.69 10.13,8.68 0.25,0.55 0.44,1.1 0.35,1.81 0.04,0.34 0.17,0.58 0.18,0.94 -0.16,-0.05 -0.27,-0.11 -0.43,-0.16 -0.09,0.28 -0.12,0.54 -0.27,0.82 -0.98,0.78 -2.08,1.08 -3.11,1.08 z m 125.61,2.09 c 6.66,-0.49 13.38,-1.87 20.16,-3.2 7.16,-1.43 14.5,-2.93 21.93,-4.3 17.87,-7.8 38.98,-6.49 58.12,-7.11 -0.71,0.26 -1.55,0.46 -2.3,0.7 7.8,-0.3 15.6,-0.1 23.4,0.26 2.39,-1.15 4.9,-2.01 7.5,-2.58 -6.92,0.14 -13.76,-0.96 -20.3,-4.47 18.65,1.77 35.78,-6.73 56.33,-2.27 -8,1.59 -16.63,4.11 -25.35,5.59 5.42,-0.14 10.84,0.19 15.74,0.48 6.32,0.24 12.72,0.67 18.75,0.26 6.56,-1.87 12.91,-4.06 16.37,-8.32 0.15,-1.19 0.33,-2.38 0.29,-3.63 -0.23,-3.47 -1.07,-7.01 -2.07,-10.57 1.62,2.78 2.98,5.69 3.99,8.79 0.02,-0.23 0.03,-0.46 0.04,-0.69 -2.57,-7.19 -5.87,-14.07 -9.81,-20.48 -6.45,-8.06 -12.68,-15.87 -19.59,-22.45 -8.85,-6.82 -18.11,-13.06 -27.59,-16.34 -1.92,-0.61 -3.83,-1.23 -5.83,-1.66 -1.55,-0.32 -3.12,-0.57 -4.68,-0.69 -4.15,-0.5 -8.4,0.32 -12.54,2.01 0.44,0.02 0.89,-0.06 1.33,0 -1.04,0.13 -2.01,0.45 -2.99,0.73 -5.82,2.75 -11.34,7.29 -15.98,12.85 8.71,-5 18.8,-8.35 28.85,-6.74 -12.53,1.82 -23.29,9.64 -33.11,16.7 -9.79,7.2 -20.94,15.94 -33.77,19.8 9.16,-6.09 21.64,-18.38 30.24,-24.64 1.86,-1.39 3.94,-2.66 5.99,-3.93 0.95,-2.15 2.03,-4.23 3.31,-6.21 -7.09,4.73 -13.97,9.95 -20.67,15.1 -6.34,4.88 -12.86,10.03 -19.24,15.21 -3.64,3.54 -7.51,6.71 -11.5,9.65 -2.19,1.96 -4.35,3.96 -6.31,6.17 0.5,-0.95 1.08,-1.85 1.64,-2.77 -8.87,6.19 -18.01,11.9 -25.99,19.51 1.06,-2.12 2.33,-4.03 3.61,-5.92 -5.2,3.57 -10.47,7.14 -15.37,10.76 -2.73,2.03 -5.42,4.03 -7.76,6.29 -1.42,1.64 -2.97,2.79 -3.02,3.99 -0.7,0.15 0.47,0.88 1.66,1.54 3.4,1.26 7.48,1.26 11.62,1.35 -1.69,0.47 -3.39,0.89 -5.1,1.23 z m 4,5.29 c -1.99,0.09 -4,0.08 -6.01,-0.04 -2.7,-0.12 -5.7,-0.55 -8.48,-1.93 -2.16,-1.04 -3.87,-3.1 -4.24,-5.65 0.4,-2.35 1.62,-3.08 2.17,-2.99 0.18,-0.12 0.35,-0.21 0.53,-0.33 0.49,-2.5 1.87,-4.53 3.14,-5.88 2.37,-2.9 5.12,-5.35 7.89,-7.55 6.79,-5.42 14.27,-9.78 22.19,-13.4 1.39,-0.64 2.88,-1.13 4.32,-1.72 7.64,-7.56 16.91,-13.33 26.13,-18.95 6.31,-6.86 13.16,-13.08 20.47,-18.63 7.19,-5.47 14.97,-10.46 23.42,-14.32 1.83,-0.86 3.89,-1.61 5.91,-2.38 6.25,-6.49 14.54,-10.74 24.16,-10.17 1.46,0.13 2.85,0.43 4.24,0.72 6.67,-0.86 13.68,0.53 19.79,3.46 8.69,4.13 16.02,10.55 22.09,17.69 5.19,6.06 9.74,12.94 13.47,20.26 5.94,5.3 10.86,11.59 12.91,19.78 1.31,5.3 -0.04,11.27 -4.21,15.18 -0.24,0.19 -0.51,0.28 -0.75,0.47 -0.5,1.57 -1.27,3.09 -2.73,4.37 -10.44,7.63 -24.1,6.96 -35.67,5.43 -0.3,-0.03 -0.62,-0.1 -0.93,-0.14 -26.23,6.54 -52.35,1.75 -78.63,2.46 -12.68,2.05 -25.96,3.81 -36.78,6.55 -3.08,1.04 -6.18,2 -9.3,2.89 -0.1,0.04 -0.23,0.08 -0.33,0.11 0.01,0 0.02,-0.03 0.04,-0.04 -2.46,0.7 -4.9,1.45 -7.4,2.03 -5.59,1.32 -11.43,2.45 -17.41,2.72 z m -103.14,0.27 c -3.57,-4.66 0.08,-9.73 3.75,-12.3 -0.01,6.16 -2.22,7.3 -3.75,12.3 z m 361.17,1.22 c 2.11,-0.02 4.06,-0.25 5.74,-0.84 0.65,-0.23 1.08,-0.42 1.64,-0.63 -19.31,-58.42 -45.43,-115.81 -91.07,-161.17 0.03,1.83 0.05,3.63 -0.28,5.33 13.98,14.8 26.38,31.25 36.88,49.04 -11.54,-15.68 -24.28,-30.97 -37.97,-45.35 -0.77,1.98 -1.92,3.79 -3.38,5.37 0.7,0.66 1.43,1.28 2.11,1.96 -0.35,-0.58 -0.76,-1.2 -1.11,-1.78 0.79,0.99 1.52,2.03 2.3,3.03 6.56,6.72 12.71,13.91 18.26,21.68 -1.31,-1.38 -2.77,-2.64 -4.12,-3.99 2.07,2.75 3.95,5.66 5.63,8.71 14.44,20.61 27.06,42.43 34.96,66.86 -6.3,-13.66 -14.2,-27.38 -22.48,-41.02 -5.62,-9.26 -11.16,-18.22 -16.95,-27.32 -4.04,-4.46 -7.62,-7.64 -11.14,-10.67 10.38,11.89 19.76,24.56 28.09,37.99 14.23,22.95 25.77,47.83 35.7,73.48 -0.92,-1.65 -1.9,-3.37 -2.83,-5.02 2.45,6.99 4.05,14.3 4.73,21.89 2.23,-0.1 4.09,0.52 5.45,1.04 1.48,0.58 2.56,0.96 3.12,1.01 2.33,0.24 4.61,0.42 6.72,0.4 z m -283.36,2.63 c -5.98,-5.25 -12,-10.14 -18.38,-13.55 -6.08,-3.25 -13.77,-5.33 -21.31,-3.63 7.04,-3.94 15.98,-3.22 22.97,0.54 7.06,3.79 12.45,9.75 16.72,16.64 z m 64.65,0.02 c 18.32,-9.62 39.53,-12.09 59.24,-12.36 15.83,-0.24 44.54,1.6 61.21,1.07 -20.33,2.96 -41.57,2.15 -61.15,2.43 -19.38,0.29 -40.28,1.4 -59.3,8.86 z m -128.59,0.26 c 1.6,-10.11 13.03,-9.72 19.66,-7.56 -8.46,6.77 -11.66,3.88 -19.66,7.56 z m -3.05,2.07 c -13.83,-6.22 0.57,-21.47 8.28,-19.52 -5.39,3.75 -10.08,13.84 -8.28,19.52 z m 48.98,2.2 c -1.96,-1.78 -3.67,-3.91 -4.96,-6.34 0.74,0.14 1.23,0.33 1.9,0.48 -6.47,-1.77 -10.74,-4.01 -15.12,-6.75 0.01,0.26 0.12,0.42 0.12,0.7 -4.06,-3.34 -14.86,-3.59 -21.84,-2.23 0.34,-0.59 0.93,-1.15 1.48,-1.72 -1.76,0.17 -3.63,0.51 -5.21,1.64 -0.36,-4.28 4.05,-7.66 8.03,-7.87 3.03,-0.25 5.19,0.54 7.56,1.45 3.48,-0.38 6.68,0.59 8.47,3.38 2.31,0.03 4.51,0.48 6.58,1.29 -0.73,-0.76 -1.47,-1.35 -2.2,-2.23 10,0.86 19.14,5.07 24.24,14.55 -4.82,-1.53 -8.94,-3 -12.72,-5.04 0.86,1.09 1.81,2.1 2.5,3.32 4.65,1.26 8.35,3.16 11.88,5.33 l 1.66,-0.21 c 0.09,-0.01 0.19,-0.02 0.29,-0.02 0,0 148.19,-8.83 204.14,-9.86 -26.6,0.08 -54.44,-0.22 -78.22,2.38 38.95,-8.85 77.73,-5.64 117.24,-3.22 -7.28,0.4 -15.14,0.53 -23.04,0.64 19.13,0.24 28,1.81 32.95,3.14 0.68,0.19 0.87,0.22 1.4,0.38 3.42,-1.16 6.43,-2.51 8.11,-4.93 1.04,-1.13 1.12,-3.19 0.84,-5.21 -0.13,-0.75 -0.46,-1.51 -0.67,-2.27 -0.52,-1.8 -1.2,-3.55 -1.79,-5.33 -0.52,-1.25 -1.03,-2.47 -1.59,-3.77 0.19,0.2 0.33,0.41 0.51,0.61 -13.34,-37.86 -39.99,-71.46 -60.76,-106.56 24.72,33.39 52.66,67.36 62.42,108.55 2,2.39 3.79,4.93 4.81,8.03 0.86,2.51 0.78,5.57 -1.02,8.1 -1.65,1.96 -3.63,3.06 -5.72,3.87 1.55,0.04 3.46,-0.18 7.15,-0.94 -0.12,0.03 0.37,-0.2 1.31,-0.88 0.81,-0.59 2.14,-1.47 4,-1.89 -6.28,-15.83 -22.9,-50.77 -27.93,-63.5 1.16,1.4 2.26,2.87 3.38,4.3 -16.33,-28.09 -33.79,-56.07 -53.34,-80.86 -0.34,-0.3 -0.73,-0.69 -1.09,-1.03 -2.59,1.07 -5.62,1.75 -8.93,2.2 3.06,4.28 5.69,8.89 7.44,14.05 -2.06,-2.67 -6.81,-8.31 -11.35,-13.75 -1.57,0.1 -2.94,0.33 -4.66,0.33 h -5 c 27.42,20.94 47.17,49.42 65.64,79.02 -21.18,-26.26 -42.4,-55.88 -66.91,-79.02 h -35.75 c 2.93,2.74 5.66,5.69 7.62,9.25 1.33,2.34 2.3,5.26 1.52,7.99 -0.89,2.82 -3.51,4.41 -6.09,5.28 2.41,-1.26 4.65,-3.18 4.96,-5.53 0.42,-2.29 -0.82,-4.6 -2.17,-6.66 -1.57,-2.32 -3.5,-4.34 -5.56,-6.27 2.54,3.56 3.92,8.01 3.1,12.72 -1.59,7.87 -7.55,13.66 -14.72,16.17 0.88,-1.07 1.66,-2.18 2.44,-3.28 -3.62,4.12 -8.07,7.41 -12.5,10.09 -7.36,4.56 -14.98,7.97 -22.64,11.64 -1.12,0.55 -2.26,1.17 -3.4,1.72 -17.87,13.62 -39.74,25.23 -53.42,41.78 -4.46,8.19 -10.97,14.53 -19.57,19.08 -4.09,3.61 -8.6,6.76 -13.75,8.38 -1.49,0.89 -3.09,1.64 -4.92,2.03 -0.65,0.13 -1.32,0.17 -1.99,0.12 -2.02,-0.15 -4.03,-1.11 -5.47,-2.91 -1.96,-2.76 -2.56,-6.05 -2.67,-8.87 -0.28,-4.04 0.11,-8.02 0.74,-11.81 1.66,-10.13 4.98,-19.81 9.41,-29.2 2.11,-12.84 5.79,-25.21 9.71,-37.97 0.03,-1.92 -0.01,-3.83 0.1,-5.84 0.48,-9.45 1.7,-18.76 3.98,-27.91 h -7.03 c -4.51,9.75 -9.4,19.72 -10.25,30.13 -0.77,-10.32 2.81,-20.55 6.72,-30.13 h -4.55 c -0.55,4.51 -1.39,8.85 -2.41,13.08 -3.32,22.53 -7.81,44.3 -15.43,65.84 -1.52,4.75 -3.3,9.7 -4,12.97 -1.75,8.63 -2.24,19.64 -10.18,27.19 -1.83,1.36 -3.86,1.91 -5.78,1.82 -1.91,-0.1 -3.72,-0.84 -5.15,-2.04 -4.92,-4.11 -7.58,-9.49 -10.04,-15 -0.24,-0.36 -0.51,-0.72 -0.74,-1.09 -5.16,-8.05 -9.26,-16.73 -12.93,-25.27 -6.68,-15.53 -11.86,-31.49 -16.82,-47.39 -2.9,-9.48 -8.49,-17.29 -12.32,-27.59 -0.31,-0.82 -0.56,-1.68 -0.82,-2.52 h -13.48 c 0.05,0.35 0.12,0.7 0.14,1.05 17.73,27.73 26.55,58.24 38.24,88.93 0.55,0.8 1.2,1.58 1.72,2.4 4.57,6.62 10.55,14.95 8.75,24.86 -1.11,4.95 -5.46,8.82 -10.75,8.6 -4.82,-0.63 -8.72,-3.26 -11.83,-6.29 -1.13,-1.08 -2.09,-2.34 -3.15,-3.52 -1.89,-1.64 -3.74,-3.19 -5.72,-4.31 -15.38,-9.06 -30.11,-19.1 -44.33,-30.41 0.82,0.82 1.7,1.58 2.52,2.42 -15.42,-10.52 -31.07,-20.32 -46.61,-28.69 -8.59,-4.6 -19.38,-8.08 -27.48,-15.71 -2.37,-2.32 -3.9,-5.12 -4.94,-8.06 -2.7,-2.49 -4.78,-5.59 -5.53,-9.69 -0.66,-7.17 3.91,-13.31 8.79,-17.07 2.09,-1.73 4.28,-3.17 6.51,-4.51 h -5.86 c -1.69,1.42 -3.42,2.82 -4.9,4.39 -5.87,6.22 -10.24,15.12 -9.77,24.65 -2.73,-9.47 0.56,-19.93 7.21,-27.05 0.68,-0.73 1.47,-1.34 2.22,-1.99 h -35.5 c -22.1,19.15 -45.96,40.19 -64.3,62.99 15.55,-26.3 38.14,-46.39 63.53,-62.99 h -7.57 c -10.64,7.98 -21.13,16.35 -31.49,25.13 5.61,-4.06 11.48,-7.75 17.44,-11.05 -22.13,17.33 -45.68,37.58 -54.8,63.95 0.72,-4.05 1.87,-7.9 3.28,-11.63 -9.93,16.47 -18.23,33.87 -24.1,51.84 6.74,-45.75 33.68,-86.24 72.2,-111.72 -8.11,7.68 -15.87,15.97 -23.18,24.75 10.11,-11.15 20.74,-21.63 31.93,-31.27 h -21.64 c -1.45,0 -2.6,-0.22 -3.94,-0.3 -62.6,55.68 -69.05,117.01 -69.51,122.84 3.6,2.36 6.62,3.89 8.44,3.92 2.23,0.04 4.5,-0.98 8.28,-1.35 0.34,-0.03 0.69,-0.01 1.03,0.04 4.89,0.81 7.35,2.47 10.65,2.93 4.52,0.64 11.36,0.25 17.24,0.92 79.75,9.11 168.6,4.53 252.5,13.79 2.55,0.28 4.55,1.25 6.29,2.01 1.63,0.72 2.93,1.19 3.73,1.33 l 10.72,-1.29 c 0.62,-0.08 1.25,-0.01 1.84,0.2 9.31,3.35 20.04,1.92 30.98,1.97 0.18,0 0.36,0.01 0.54,0.04 l 4.46,0.64 z m 4.75,8.75 c -0.1,-0.01 -0.2,-0.02 -0.29,-0.04 l -9.73,-1.38 c -9.61,-0.02 -20.79,1.32 -31.93,-2.21 l -11.08,1.37 c -0.32,0.04 -0.65,0.04 -0.97,0 -2.52,-0.32 -4.51,-1.29 -6.23,-2.05 -1.73,-0.76 -3.2,-1.31 -3.95,-1.39 -83,-9.16 -171.81,-4.57 -252.52,-13.79 -4.69,-0.54 -11.57,-0.11 -17.46,-0.94 -4.78,-0.67 -7.28,-2.24 -10.37,-2.85 -2.17,0.32 -4.71,1.37 -8.61,1.31 -4.17,-0.07 -9.04,-1.79 -15.14,-6.5 -1.06,-0.81 -1.64,-2.09 -1.56,-3.42 0,0 4.56,-66.26 67.77,-126.17 -1.5,-0.42 -2.93,-0.93 -4.24,-1.53 -4.79,-2.18 -8.31,-5.85 -9.94,-10.35 -3.27,-8.98 -0.18,-19.79 5.33,-32.73 68.03,-159.778 104.78,-312.36 111.49,-500.278 1.66,-46.614 -26.87,-86.543 -57.15,-132.481 -7.67,-11.312 -8.46,-23.98 -3.15,-33.711 5.31,-9.718 16.48,-16.129 30.73,-16.129 h 176.75 176.76 c 14.25,0 25.41,6.411 30.72,16.129 5.32,9.731 4.53,22.399 -3.14,33.711 -30.28,45.938 -58.81,85.867 -57.15,132.481 6.71,187.918 43.45,340.5 111.49,500.278 1.93,4.54 3.4,8.74 4.57,12.77 l 0.41,-1.37 c 51.96,48.13 80.48,110.82 101.01,173.44 0.55,1.66 0,3.81 -0.86,4.94 -0.86,1.14 -1.76,1.66 -2.58,2.09 -1.63,0.87 -3.2,1.29 -3.98,1.57 -5.56,1.94 -11.15,1.35 -15.9,0.87 -2.29,-0.23 -3.97,-1.04 -5.21,-1.52 -1.25,-0.48 -1.95,-0.62 -2.25,-0.59 0.23,-0.02 -0.12,0.04 -0.98,0.67 -0.85,0.62 -2.16,1.77 -4.37,2.22 -9.25,1.92 -12.4,0.7 -17.38,-0.64 -4.99,-1.34 -13.57,-3.1 -37.76,-2.95 -48.25,0.31 -212.06,10.08 -212.48,10.1 l -0.08,0.02 -7.79,1.02 c -0.27,0.04 -0.54,0.05 -0.8,0.04 v -0.01" /></g></g></svg>